<svg width="101" height="101" viewBox="0 0 101 101" fill="none" xmlns="http://www.w3.org/2000/svg">
<path d="M29.9458 75.5V42.3959H71.0541M40.6645 75.5H71.0541V53.5209" stroke="#003399" stroke-width="2" stroke-linecap="round" stroke-linejoin="round"/>
<path d="M40.5957 55.9292L49.2103 64.5437L60.404 53.3521M41.7915 34.0146C41.7915 31.7564 42.6886 29.5907 44.2854 27.9939C45.8822 26.3971 48.0479 25.5 50.3061 25.5C52.5643 25.5 54.73 26.3971 56.3268 27.9939C57.9236 29.5907 58.8207 31.7564 58.8207 34.0146M58.8207 34.0146V42.3958M41.7957 33.8375V42.3958" stroke="#003399" stroke-width="2" stroke-linecap="round" stroke-linejoin="round"/>
<path d="M63.6001 93.3459C53.2341 96.5226 42.068 95.8346 32.1703 91.4094C22.2727 86.9841 14.3143 79.1216 9.76953 69.2782C5.22475 59.4349 4.4016 48.2779 7.45257 37.8742C10.5035 27.4705 17.2218 18.5251 26.3629 12.6952C35.5039 6.86529 46.4481 4.54603 57.1681 6.16705C67.8881 7.78807 77.6574 13.2395 84.666 21.5115C91.6746 29.7834 95.4477 40.3153 95.2862 51.1559C95.1247 61.9966 91.0396 72.4114 83.7876 80.4709" stroke="#003399" stroke-width="2" stroke-linecap="round" stroke-linejoin="round"/>
</svg>
