<svg width="101" height="101" viewBox="0 0 101 101" fill="none" xmlns="http://www.w3.org/2000/svg">
<path d="M46.75 10.625L14.4375 23.9375V56.75C14.4375 74.3333 50.5 91.125 50.5 91.125C50.5 91.125 86.5625 74.3333 86.5625 56.75V23.9375L54.25 10.625C53.0618 10.1299 51.7873 9.875 50.5 9.875C49.2127 9.875 47.9382 10.1299 46.75 10.625V10.625Z" stroke="#003399" stroke-width="2" stroke-linecap="round" stroke-linejoin="round"/>
<path d="M66.4377 40.625H34.5835C33.3754 40.625 32.396 41.6044 32.396 42.8125V66.3542C32.396 67.5623 33.3754 68.5417 34.5835 68.5417H66.4377C67.6458 68.5417 68.6252 67.5623 68.6252 66.3542V42.8125C68.6252 41.6044 67.6458 40.625 66.4377 40.625Z" stroke="#003399" stroke-width="2" stroke-linecap="round" stroke-linejoin="round"/>
<path d="M38.521 40.625V35.6042C38.521 32.4271 39.7831 29.3801 42.0296 27.1336C44.2761 24.8871 47.3231 23.625 50.5002 23.625C53.6772 23.625 56.7242 24.8871 58.9707 27.1336C61.2172 29.3801 62.4793 32.4271 62.4793 35.6042V40.625" stroke="#003399" stroke-width="2" stroke-linecap="round" stroke-linejoin="round"/>
<path d="M50.4998 59.2292C53.0657 59.2292 55.1457 57.1492 55.1457 54.5833C55.1457 52.0175 53.0657 49.9375 50.4998 49.9375C47.934 49.9375 45.854 52.0175 45.854 54.5833C45.854 57.1492 47.934 59.2292 50.4998 59.2292Z" stroke="#003399" stroke-width="2" stroke-linecap="round" stroke-linejoin="round"/>
</svg>
