<svg width="60" height="60" viewBox="0 0 60 60" fill="none" xmlns="http://www.w3.org/2000/svg">
<g clip-path="url(#clip0_1885_1035)">
<path d="M29.9998 0C13.4313 0 0 13.4313 0 29.9998C0 46.5683 13.4313 60.0002 29.9998 60.0002C46.5683 60.0002 60.0002 46.5683 60.0002 29.9998C59.9815 13.439 46.5612 0.0186767 29.9998 0V0ZM29.9998 56.9998C15.0881 56.9998 2.99982 44.9116 2.99982 29.9998C2.99982 15.0881 15.0881 2.99982 29.9998 2.99982C44.9116 2.99982 56.9998 15.0881 56.9998 29.9998C56.9828 44.9044 44.9044 56.9828 29.9998 56.9998Z" fill="black"/>
<path d="M26.4882 18.3708C25.8642 17.8253 24.9166 17.889 24.3711 18.5125C23.8262 19.1365 23.8899 20.0841 24.5134 20.6296L35.2229 29.9998L24.5129 39.3706C23.8888 39.9161 23.8257 40.8636 24.3706 41.4871C24.9161 42.1111 25.8636 42.1749 26.4877 41.6294L38.4875 31.1292C38.8132 30.8447 39 30.4327 39 29.9998C39 29.567 38.8132 29.1555 38.4875 28.8704L26.4882 18.3708Z" fill="black"/>
</g>
<defs>
<clipPath id="clip0_1885_1035">
<rect width="60" height="60" fill="white"/>
</clipPath>
</defs>
</svg>
