<svg width="61" height="64" viewBox="0 0 61 64" fill="none" xmlns="http://www.w3.org/2000/svg">
<path d="M30.6933 13.1581C41.7537 13.2158 50.8019 22.0218 50.8622 33.2137C50.9209 44.231 42.0317 53.3519 30.7427 53.4169C19.7223 53.4808 10.6122 44.5194 10.5639 33.3743C10.5156 22.318 19.3522 13.2792 30.6933 13.1581ZM42.6408 46.2161C41.8732 45.5697 41.9236 44.7917 42.225 43.9727C42.2567 43.8864 42.2666 43.7923 42.29 43.703C42.5207 42.8242 42.4501 42.6704 41.604 42.3045C41.1529 42.1096 40.6384 42.0228 40.7091 41.3171C40.7647 40.7647 40.944 40.3136 41.3811 39.9779C41.6004 39.809 41.842 39.6692 42.0686 39.5102C42.9609 38.8865 42.9999 38.3362 42.2521 37.5296C41.7256 36.9611 41.063 36.8577 40.3375 36.8291C38.5431 36.7584 37.6872 35.8797 37.6352 34.1081C37.6201 33.5775 37.4538 33.0973 36.9944 32.8224C36.3785 32.4547 35.7401 32.126 35.083 31.8381C34.1081 31.4099 33.8119 31.0009 33.8192 29.9277C33.8285 28.616 34.6772 27.44 35.9556 26.886C36.732 26.5493 37.5328 26.226 38.2297 25.7583C39.5435 24.8749 40.4644 23.6853 40.1292 21.9922C39.9265 20.9624 39.5913 19.9632 39.1319 19.0196C38.5384 17.8165 37.6196 16.8697 36.2253 16.5563C35.0191 16.285 33.8192 15.9025 32.5974 15.8059C31.5331 15.7212 30.421 15.8682 29.3691 16.0953C28.3298 16.3198 28.1978 17.1233 28.997 17.8456C29.2317 18.055 29.49 18.2364 29.7667 18.3861C30.2864 18.6688 30.8279 18.9094 31.3512 19.1854C31.8745 19.4613 32.4056 19.7279 32.8957 20.0553C33.5526 20.495 33.5879 21.089 33.0152 21.6258C32.7601 21.8648 32.4597 22.0545 32.1837 22.2702C31.5009 22.8034 30.7634 23.2825 30.1523 23.8885C29.4809 24.5537 29.6664 25.1456 30.5057 25.5936C30.7338 25.7152 30.9869 25.987 31.0295 26.2255C31.1906 27.1292 30.2822 28.8166 29.4679 29.2516C29.0521 29.473 28.6447 29.4844 28.2819 29.1602C27.9104 28.8276 27.5918 28.429 27.1948 28.1333C26.5041 27.6188 25.8244 27.0388 25.0459 26.7057C23.5087 26.0483 22.0177 26.7374 21.4798 28.2382C21.233 28.9273 21.3239 29.579 21.8187 30.1611C22.2781 30.7031 22.8398 30.675 23.4411 30.502C23.7254 30.4204 24.0086 30.3341 24.2965 30.2666C25.1036 30.0758 25.5495 30.3533 25.6939 31.1656C25.8072 31.8022 25.8779 32.4461 25.9699 33.0884C26.158 34.4017 26.7349 35.4104 28.0403 35.9342C28.9855 36.3086 29.9074 36.7389 30.8014 37.223C32.2383 38.0114 33.2491 39.1672 33.6336 40.8088C33.9054 41.9719 33.6539 42.7478 32.6691 43.4073C32.1021 43.7861 31.4931 44.1068 30.8835 44.4154C29.682 45.0245 28.8863 45.9667 28.4446 47.2316C28.3257 47.5815 28.174 47.9195 27.9914 48.2408C27.6459 48.8338 26.8196 49.1191 26.1996 48.8956C25.6404 48.6945 25.4575 48.3167 25.5858 47.4779C25.6997 46.7414 25.5786 45.9877 25.2397 45.3239C24.9071 44.6483 24.8759 43.9992 25.2184 43.3059C25.5864 42.5612 25.498 42.3009 24.8287 41.7988C24.6073 41.6341 24.3609 41.5057 24.1266 41.3545C23.5861 41.0022 23.0056 40.6956 22.5192 40.2793C21.7916 39.6557 21.8327 38.9229 22.5649 38.2957C22.9157 37.9953 23.307 37.7427 23.662 37.447C24.8365 36.4685 24.6494 34.9915 23.2499 34.3767C22.5743 34.0805 21.8431 33.9194 21.1607 33.6393C20.2253 33.2558 19.2379 32.9294 18.4017 32.3786C16.7954 31.3184 16.0237 29.6357 15.4967 27.8521C15.2639 27.0643 15.161 26.2411 15.003 25.4501C11.6719 31.3922 12.2705 40.9949 19.558 46.9395C26.7915 52.8338 36.7595 51.8204 42.6408 46.2161Z" fill="#003399"/>
<path d="M14.9947 9.25739C19.664 6.19461 25.1284 4.56713 30.7125 4.57609C46.5701 4.57609 59.425 17.4304 59.425 33.288C59.4341 38.8725 57.8065 44.3371 54.7432 49.0064" stroke="#003399" stroke-width="3" stroke-linecap="round" stroke-linejoin="round"/>
<path d="M16.8765 2L14.9807 9.22879L22.843 11.2909" stroke="#003399" stroke-width="3" stroke-linecap="round" stroke-linejoin="round"/>
<path d="M4.91025 20.68C2.98948 24.6051 1.99392 28.9182 2.00003 33.288C2.00003 49.1446 14.8554 62 30.712 62C35.0818 62.006 39.3949 61.0105 43.32 59.0897" stroke="#003399" stroke-width="3" stroke-linecap="round" stroke-linejoin="round"/>
</svg>
