<svg width="22" height="16" viewBox="0 0 22 16" fill="none" xmlns="http://www.w3.org/2000/svg">
<path d="M7.45354 15.8694L0.133212 8.58804C0.0909942 8.54606 0.0574917 8.49615 0.0346303 8.44117C0.011769 8.3862 0 8.32725 0 8.26771C0 8.20817 0.011769 8.14922 0.0346303 8.09425C0.0574917 8.03928 0.0909942 7.98936 0.133212 7.94738L1.98126 6.09728C2.15785 5.92069 2.44327 5.92069 2.61986 6.09728L7.43917 10.8878C7.61576 11.0644 7.90323 11.0624 8.07982 10.8858L18.7287 0.134241C18.9053 -0.0444034 19.1928 -0.0444034 19.3714 0.132188L21.2215 1.98229C21.3981 2.15888 21.3981 2.4443 21.2236 2.62089L9.62192 14.3273L9.62397 14.3293L8.0942 15.8673C7.9176 16.0439 7.63013 16.0439 7.45354 15.8694Z" fill="#5FD085"/>
</svg>
