<svg width="24" height="24" viewBox="0 0 24 24" fill="none" xmlns="http://www.w3.org/2000/svg">
<path d="M11.9912 24C9.61956 23.9999 7.30119 23.2967 5.32925 21.9791C3.35731 20.6615 1.82037 18.7887 0.912781 16.5976C0.00519654 14.4065 -0.23227 11.9955 0.230412 9.66941C0.693093 7.34335 1.83514 5.20672 3.51214 3.52973C4.62479 2.41246 5.94688 1.5256 7.40271 0.91992C8.85855 0.314243 10.4195 0.00164008 11.9963 6.43631e-06C13.5731 -0.00162721 15.1348 0.30774 16.5919 0.9104C18.049 1.51306 19.3729 2.39718 20.4879 3.51214C21.6028 4.6271 22.4869 5.95102 23.0896 7.4081C23.6923 8.86518 24.0016 10.4268 24 12.0036C23.9984 13.5804 23.6858 15.1414 23.0801 16.5972C22.4744 18.0531 21.5875 19.3751 20.4703 20.4878C19.3594 21.6048 18.038 22.4904 16.5825 23.0932C15.1271 23.6961 13.5665 24.0043 11.9912 24Z" fill="#B0EF8F"/>
<path d="M10.1287 17.2174L5.35156 12.441L7.29351 10.4991L10.1283 13.3339L16.6796 6.78259L18.6215 8.72449L10.1287 17.2174Z" fill="#009045"/>
</svg>
