<svg width="74" height="62" viewBox="0 0 74 62" fill="none" xmlns="http://www.w3.org/2000/svg">
<path opacity="0.2" d="M54.64 33.0128C62.2735 33.0128 68.4617 26.8246 68.4617 19.1911C68.4617 11.5576 62.2735 5.36938 54.64 5.36938C47.0064 5.36938 40.8182 11.5576 40.8182 19.1911C40.8182 26.8246 47.0064 33.0128 54.64 33.0128Z" fill="#003399"/>
<path d="M54.5534 37.2705C64.5692 37.2705 72.6886 29.151 72.6886 19.1352C72.6886 9.11942 64.5692 1 54.5534 1C44.5376 1 36.4182 9.11942 36.4182 19.1352C36.4182 29.151 44.5376 37.2705 54.5534 37.2705Z" stroke="#003399" stroke-width="2" stroke-miterlimit="10"/>
<path d="M42.8528 26.3981C45.2816 30.3046 49.6139 32.9052 54.5533 32.9052C54.8067 32.9052 55.0574 32.8988 55.309 32.8846" stroke="#003399" stroke-width="2" stroke-miterlimit="10" stroke-linecap="round"/>
<path d="M40.7839 19.2191V19.1352C40.7819 17.0843 41.239 15.0589 42.1217 13.2076C43.0044 11.3563 44.2903 9.72605 45.8851 8.43646" stroke="#003399" stroke-width="2" stroke-miterlimit="10" stroke-linecap="round"/>
<path d="M53.8806 5.38228C54.1033 5.37174 54.327 5.36578 54.5524 5.36578C62.1594 5.36578 68.3219 11.5306 68.3219 19.1353C68.3243 20.9629 67.9616 22.7727 67.2552 24.4583C66.5488 26.1439 65.5129 27.6715 64.2082 28.9514" stroke="#003399" stroke-width="2" stroke-miterlimit="10" stroke-linecap="round"/>
<path d="M54.5442 12.8838C56.0106 12.8838 57.1645 13.1917 58.0058 13.8076C58.8471 14.4235 59.2671 15.2789 59.2655 16.3738C59.2655 17.008 59.1161 17.546 58.8174 17.9878C58.5186 18.4295 58.0832 18.7747 57.5113 19.0234C58.2201 19.2599 58.7767 19.6144 59.1812 20.087C59.5857 20.5596 59.7879 21.163 59.7879 21.8971C59.7985 22.3918 59.6895 22.8817 59.4702 23.3252C59.2509 23.7687 58.9277 24.1527 58.5282 24.4445C58.1234 24.75 57.629 24.9833 57.0448 25.1443C56.4607 25.3053 55.8013 25.3861 55.0666 25.3867H51.0954C50.6243 25.3867 50.1725 25.1995 49.8394 24.8664C49.5063 24.5333 49.3192 24.0816 49.3192 23.6105V14.66C49.3192 14.1889 49.5063 13.7371 49.8394 13.404C50.1725 13.0709 50.6243 12.8838 51.0954 12.8838H54.5442ZM54.376 18.2041C54.9485 18.2041 55.4026 18.0858 55.7384 17.8494C56.0741 17.6129 56.2421 17.2645 56.2425 16.8041C56.2425 16.3566 56.0744 16.0205 55.7384 15.796C55.4023 15.5714 54.9482 15.4595 54.376 15.4601H52.1929V18.2041H54.376ZM54.8054 22.8131C55.4396 22.8131 55.9247 22.6887 56.2608 22.4397C56.5968 22.1907 56.7649 21.83 56.7649 21.3577C56.7649 20.4373 56.0928 19.9769 54.7486 19.9766H52.192V22.8131H54.8054Z" fill="#003399"/>
<path d="M52.3024 24.6205H52.302C51.8517 24.6205 51.4868 24.9855 51.4868 25.4357V26.9186C51.4868 27.3688 51.8517 27.7338 52.302 27.7338H52.3024C52.7527 27.7338 53.1177 27.3688 53.1177 26.9186V25.4357C53.1177 24.9855 52.7527 24.6205 52.3024 24.6205Z" fill="#003399"/>
<path d="M55.5885 24.6205H55.5881C55.1378 24.6205 54.7728 24.9855 54.7728 25.4357V26.9186C54.7728 27.3688 55.1378 27.7338 55.5881 27.7338H55.5885C56.0388 27.7338 56.4037 27.3688 56.4037 26.9186V25.4357C56.4037 24.9855 56.0388 24.6205 55.5885 24.6205Z" fill="#003399"/>
<path d="M52.3024 10.5366H52.302C51.8517 10.5366 51.4868 10.9016 51.4868 11.3518V12.8347C51.4868 13.285 51.8517 13.65 52.302 13.65H52.3024C52.7527 13.65 53.1177 13.285 53.1177 12.8347V11.3518C53.1177 10.9016 52.7527 10.5366 52.3024 10.5366Z" fill="#003399"/>
<path d="M55.5885 10.5366H55.5881C55.1378 10.5366 54.7728 10.9016 54.7728 11.3518V12.8347C54.7728 13.285 55.1378 13.65 55.5881 13.65H55.5885C56.0388 13.65 56.4037 13.285 56.4037 12.8347V11.3518C56.4037 10.9016 56.0388 10.5366 55.5885 10.5366Z" fill="#003399"/>
<path opacity="0.2" d="M19.1353 56.7396C26.7688 56.7396 32.957 50.5515 32.957 42.9179C32.957 35.2844 26.7688 29.0962 19.1353 29.0962C11.5017 29.0962 5.31354 35.2844 5.31354 42.9179C5.31354 50.5515 11.5017 56.7396 19.1353 56.7396Z" fill="#003399"/>
<path d="M19.1357 48.6808H19.1352C18.685 48.6808 18.32 49.0458 18.32 49.4961V51.1664C18.32 51.6166 18.685 51.9816 19.1352 51.9816H19.1357C19.5859 51.9816 19.9509 51.6166 19.9509 51.1664V49.4961C19.9509 49.0458 19.5859 48.6808 19.1357 48.6808Z" fill="#003399"/>
<path d="M19.1357 33.7479H19.1352C18.685 33.7479 18.32 34.1129 18.32 34.5632V36.2335C18.32 36.6837 18.685 37.0487 19.1352 37.0487H19.1357C19.5859 37.0487 19.9509 36.6837 19.9509 36.2335V34.5632C19.9509 34.1129 19.5859 33.7479 19.1357 33.7479Z" fill="#003399"/>
<path d="M19.1352 61C29.151 61 37.2705 52.8806 37.2705 42.8648C37.2705 32.849 29.151 24.7296 19.1352 24.7296C9.11942 24.7296 1 32.849 1 42.8648C1 52.8806 9.11942 61 19.1352 61Z" stroke="#003399" stroke-width="2" stroke-miterlimit="10"/>
<path d="M7.43475 50.1276C9.86348 54.0341 14.1962 56.6347 19.1352 56.6347C19.3885 56.6347 19.6404 56.6278 19.8909 56.6141" stroke="#003399" stroke-width="2" stroke-miterlimit="10" stroke-linecap="round"/>
<path d="M5.36573 42.9496V42.8657C5.36375 40.8147 5.82087 38.7892 6.70357 36.9379C7.58627 35.0865 8.87217 33.4562 10.467 32.1665" stroke="#003399" stroke-width="2" stroke-miterlimit="10" stroke-linecap="round"/>
<path d="M18.4634 29.1104C18.6861 29.0994 18.9101 29.0939 19.1352 29.0939C26.7422 29.0939 32.9047 35.2588 32.9047 42.8634C32.9072 44.691 32.5446 46.5007 31.8382 48.1863C31.1318 49.8719 30.0958 51.3994 28.791 52.6791" stroke="#003399" stroke-width="2" stroke-miterlimit="10" stroke-linecap="round"/>
<path d="M13.6129 40.0978C13.6129 38.7258 14.0829 37.6693 15.0229 36.9281C15.9629 36.187 17.3044 35.8164 19.0473 35.8164C20.8445 35.8164 22.2029 36.2178 23.1225 37.0207C23.7582 37.5758 24.1807 38.2766 24.39 39.1231C24.4261 39.2681 24.4287 39.4194 24.3977 39.5655C24.3666 39.7116 24.3027 39.8488 24.2107 39.9665C24.1188 40.0843 24.0012 40.1795 23.867 40.2451C23.7327 40.3106 23.5853 40.3447 23.4359 40.3448H22.124C21.9154 40.3428 21.7128 40.2753 21.5446 40.152C21.3764 40.0287 21.2511 39.8557 21.1864 39.6575C21.0966 39.3942 20.942 39.1578 20.7368 38.9701C20.3663 38.627 19.7693 38.4555 18.946 38.4555C18.2739 38.4555 17.7524 38.5824 17.3815 38.8363C17.0107 39.0901 16.8254 39.4503 16.8257 39.9168C16.8257 40.2049 16.9013 40.4484 17.0525 40.6473C17.2161 40.8572 17.4232 41.0292 17.6597 41.1514C17.9401 41.2993 18.2372 41.4132 18.5446 41.4909C18.8806 41.5801 19.2339 41.666 19.6045 41.7485C20.181 41.8707 20.7779 42.0043 21.3953 42.1494C21.9877 42.2844 22.559 42.4991 23.0936 42.7878C23.6006 43.0622 24.0346 43.4539 24.3593 43.9302C24.6886 44.4104 24.8533 45.0485 24.8533 45.8443C24.8533 47.1072 24.3902 48.1193 23.4639 48.8806C22.5376 49.642 21.1134 50.0215 19.1912 50.0194C17.2283 50.0194 15.7566 49.6145 14.7759 48.8046C14.1214 48.2774 13.6562 47.5514 13.4507 46.7365C13.4137 46.5914 13.4104 46.4398 13.441 46.2932C13.4716 46.1467 13.5353 46.0091 13.6272 45.8909C13.7192 45.7727 13.8369 45.6771 13.9714 45.6114C14.1059 45.5456 14.2537 45.5115 14.4034 45.5116H15.7845C15.9842 45.5135 16.1786 45.5758 16.3422 45.6903C16.5058 45.8048 16.6309 45.9662 16.701 46.1531C17.0264 46.9869 17.8636 47.4036 19.2127 47.4032C19.9535 47.4032 20.5263 47.2797 20.9311 47.0325C21.3359 46.7854 21.5385 46.4425 21.5388 46.0038C21.5388 45.7016 21.4598 45.4545 21.3019 45.2623C21.1251 45.0567 20.9032 44.8947 20.6534 44.7889C20.3454 44.6546 20.0247 44.5513 19.6962 44.4805C19.3329 44.3981 18.9523 44.3217 18.5542 44.2514C17.9908 44.1417 17.4179 44.0183 16.8353 43.8811C16.2721 43.7523 15.7335 43.5333 15.2401 43.2327C14.7597 42.938 14.3572 42.532 14.0666 42.0491C13.7638 41.5578 13.6126 40.9074 13.6129 40.0978Z" fill="#003399"/>
<path d="M29.7263 51.8002C29.697 51.7897 29.6672 51.7787 29.6374 51.769" stroke="#003399" stroke-width="2" stroke-miterlimit="10"/>
<path d="M42.9706 11.7808L42.9202 11.7652" stroke="#003399" stroke-width="2" stroke-miterlimit="10"/>
<path d="M42.3135 55.161C42.061 55.161 41.8053 55.1546 41.5547 55.1418C41.4976 55.1437 41.4407 55.1338 41.3876 55.1126C41.3345 55.0915 41.2864 55.0595 41.2464 55.0188C41.2063 54.978 41.1751 54.9294 41.1548 54.876C41.1346 54.8225 41.1256 54.7655 41.1285 54.7084C41.1315 54.6513 41.1462 54.5955 41.1719 54.5444C41.1975 54.4934 41.2335 54.4482 41.2775 54.4118C41.3216 54.3754 41.3727 54.3485 41.4277 54.3329C41.4826 54.3172 41.5402 54.3132 41.5968 54.321C41.8333 54.3329 42.0748 54.3389 42.3135 54.3389C45.3998 54.3428 48.399 53.3162 50.8356 51.4219C53.2721 49.5276 55.0065 46.8741 55.7636 43.8821C55.7972 43.7841 55.8663 43.7023 55.9574 43.653C56.0485 43.6037 56.1548 43.5904 56.2552 43.6159C56.3556 43.6413 56.4428 43.7036 56.4993 43.7904C56.5559 43.8772 56.5777 43.9821 56.5605 44.0842C55.7586 47.2535 53.9215 50.0643 51.3406 52.0709C48.7597 54.0775 45.5827 55.165 42.3135 55.161Z" fill="#003399" stroke="#003399" stroke-width="2" stroke-miterlimit="10"/>
<path d="M44.5584 57.751C44.6332 57.6716 44.6735 57.5657 44.6704 57.4566C44.6673 57.3476 44.6211 57.2441 44.5419 57.1691L41.8942 54.6688L44.5813 52.2103C44.6617 52.1365 44.7095 52.0339 44.7143 51.9249C44.7191 51.8159 44.6805 51.7094 44.607 51.6288C44.5331 51.5487 44.4305 51.5011 44.3217 51.4964C44.2128 51.4916 44.1065 51.5302 44.0259 51.6036L41.0267 54.3485C40.9833 54.3883 40.9485 54.4366 40.9246 54.4903C40.9007 54.5441 40.8881 54.6022 40.8876 54.6611C40.8871 54.72 40.8988 54.7783 40.9218 54.8325C40.9449 54.8866 40.9789 54.9354 41.0217 54.9759L43.9769 57.7675C44.0563 57.8422 44.1621 57.8824 44.2711 57.8793C44.38 57.8762 44.4834 57.8301 44.5584 57.751Z" fill="#003399" stroke="#003399" stroke-width="2" stroke-miterlimit="10"/>
<path d="M32.3516 9.39009C32.6046 9.39009 32.8598 9.3965 33.1105 9.40934C33.1676 9.40731 33.2245 9.41717 33.2776 9.43831C33.3307 9.45944 33.3789 9.49139 33.419 9.53211C33.4591 9.57283 33.4903 9.62144 33.5106 9.67486C33.5309 9.72829 33.5399 9.78535 33.537 9.84243C33.5341 9.89951 33.5194 9.95536 33.4937 10.0064C33.4681 10.0575 33.4321 10.1027 33.3881 10.1392C33.3441 10.1756 33.293 10.2025 33.238 10.2182C33.183 10.2338 33.1254 10.2379 33.0688 10.2301C32.8319 10.2181 32.5908 10.2122 32.3516 10.2122C29.2654 10.2082 26.2662 11.2348 23.8297 13.1292C21.3932 15.0235 19.659 17.677 18.902 20.669C18.8925 20.7252 18.8715 20.7788 18.8403 20.8265C18.809 20.8741 18.7683 20.9148 18.7205 20.9459C18.6728 20.977 18.6191 20.9979 18.5629 21.0073C18.5067 21.0166 18.4492 21.0142 18.3939 21.0002C18.3387 20.9862 18.287 20.9609 18.242 20.9259C18.197 20.8909 18.1598 20.8469 18.1327 20.7968C18.1055 20.7467 18.0891 20.6915 18.0843 20.6348C18.0796 20.578 18.0867 20.5208 18.1051 20.4669C18.907 17.2976 20.744 14.4868 23.3248 12.4802C25.9056 10.4736 29.0825 9.38606 32.3516 9.39009Z" fill="#003399" stroke="#003399" stroke-width="2" stroke-miterlimit="10"/>
<path d="M30.1071 6.80006C30.0323 6.87951 29.9921 6.98537 29.9951 7.09446C29.9982 7.20354 30.0444 7.30695 30.1236 7.38204L32.7714 9.88179L30.0842 12.3408C30.004 12.4146 29.9563 12.5171 29.9515 12.626C29.9467 12.7349 29.9852 12.8412 30.0586 12.9218C30.1324 13.002 30.2349 13.0497 30.3438 13.0545C30.4527 13.0593 30.559 13.0208 30.6396 12.9475L33.6389 10.2026C33.6822 10.1628 33.7169 10.1145 33.7408 10.0607C33.7647 10.0069 33.7773 9.94883 33.7778 9.88999C33.7782 9.83114 33.7666 9.77283 33.7436 9.71868C33.7205 9.66453 33.6866 9.6157 33.6439 9.57522L30.6882 6.78356C30.6088 6.70904 30.5031 6.66895 30.3943 6.67204C30.2854 6.67513 30.1822 6.72115 30.1071 6.80006Z" fill="#003399" stroke="#003399" stroke-width="2" stroke-miterlimit="10"/>
</svg>
