<svg width="41" height="38" viewBox="0 0 41 38" fill="none" xmlns="http://www.w3.org/2000/svg">
<rect y="0.5" width="41" height="37" rx="4" fill="#1D4EFF" fill-opacity="0.08"/>
<path d="M23.7068 9.29145L27.7068 13.2874C27.8791 13.4595 27.9827 13.6885 27.9982 13.9316C28.0137 14.1746 27.9399 14.4149 27.7908 14.6074L27.7078 14.7014L23.7078 18.7074C23.5282 18.8887 23.2862 18.9945 23.0312 19.0031C22.7763 19.0118 22.5276 18.9227 22.3362 18.754C22.1448 18.5853 22.0251 18.3499 22.0016 18.0958C21.9781 17.8418 22.0526 17.5884 22.2098 17.3874L22.2928 17.2934L24.5828 15.0014H13.9998C13.7549 15.0014 13.5184 14.9115 13.3354 14.7487C13.1524 14.586 13.0354 14.3617 13.0068 14.1184L12.9998 14.0004C12.9998 13.7555 13.0897 13.5191 13.2525 13.3361C13.4153 13.153 13.6395 13.0361 13.8828 13.0074L13.9998 13.0004H24.5898L22.2938 10.7074C22.1215 10.5354 22.0178 10.3063 22.0024 10.0633C21.9869 9.82029 22.0607 9.57997 22.2098 9.38745L22.2928 9.29245C22.4649 9.12012 22.6939 9.01651 22.9369 9.00104C23.1799 8.98558 23.4203 9.05933 23.6128 9.20845L23.7068 9.29145ZM27.9908 23.8834L27.9968 24.0004C27.9968 24.2454 27.9068 24.4818 27.7441 24.6648C27.5813 24.8479 27.357 24.9648 27.1138 24.9934L26.9968 25.0004H16.4138L18.7068 27.2934C18.8791 27.4655 18.9827 27.6945 18.9982 27.9376C19.0137 28.1806 18.9399 28.4209 18.7908 28.6134L18.7078 28.7074C18.5357 28.8798 18.3067 28.9834 18.0637 28.9989C17.8206 29.0143 17.5803 28.9406 17.3878 28.7914L17.2938 28.7074L13.2938 24.7114C13.1215 24.5394 13.0178 24.3103 13.0024 24.0673C12.9869 23.8243 13.0607 23.584 13.2098 23.3914L13.2928 23.2974L17.2928 19.2934C17.4723 19.1122 17.7144 19.0064 17.9693 18.9978C18.2243 18.9891 18.473 19.0782 18.6644 19.2469C18.8558 19.4156 18.9755 19.651 18.999 19.9051C19.0225 20.1591 18.948 20.4125 18.7908 20.6134L18.7078 20.7074L16.4178 23.0004H26.9978C27.2427 23.0005 27.4791 23.0904 27.6622 23.2532C27.8452 23.4159 27.9621 23.6402 27.9908 23.8834Z" fill="#003399"/>
</svg>
