<svg width="13" height="7" viewBox="0 0 13 7" fill="none" xmlns="http://www.w3.org/2000/svg">
<path d="M6.49059 6.49797C6.29042 6.49836 6.09643 6.42865 5.9423 6.30093L0.8021 2.01743C0.627147 1.87202 0.517126 1.66306 0.49624 1.43652C0.475354 1.20999 0.545314 0.984437 0.690729 0.809485C0.836144 0.634532 1.0451 0.524511 1.27164 0.503625C1.49817 0.482739 1.72372 0.552698 1.89868 0.698113L6.49059 4.53613L11.0825 0.835186C11.1701 0.764023 11.271 0.710881 11.3792 0.678813C11.4874 0.646745 11.6009 0.636385 11.7132 0.648326C11.8254 0.660268 11.9342 0.694276 12.0333 0.748397C12.1324 0.802518 12.2198 0.875685 12.2904 0.963691C12.3689 1.05178 12.4283 1.15512 12.465 1.26724C12.5016 1.37936 12.5148 1.49784 12.5035 1.61526C12.4922 1.73268 12.4568 1.84652 12.3996 1.94963C12.3423 2.05273 12.2643 2.1429 12.1705 2.21447L7.03031 6.35233C6.87175 6.45986 6.68172 6.51114 6.49059 6.49797Z" fill="white"/>
</svg>
