<svg width="27" height="18" viewBox="0 0 27 18" fill="none" xmlns="http://www.w3.org/2000/svg">
<path d="M25.6153 0H1.38464C0.623055 0 0 0.623055 0 1.38459V16.6154C0 17.3768 0.623055 18 1.38464 18H25.6154C26.3768 18 27 17.3769 27 16.6154V1.38459C26.9999 0.623055 26.3769 0 25.6153 0ZM25.0957 1.03839L14.2965 9.13848C14.1023 9.28624 13.8043 9.37868 13.4999 9.37731C13.1956 9.37868 12.8976 9.28624 12.7034 9.13848L1.90418 1.03839H25.0957ZM19.3271 9.67294L25.2117 16.9422C25.2176 16.9495 25.2249 16.955 25.2311 16.9616H1.76881C1.77504 16.9547 1.78231 16.9495 1.78822 16.9422L7.67284 9.67294C7.85314 9.45003 7.81896 9.12324 7.59563 8.94252C7.37273 8.76222 7.04593 8.79639 6.86558 9.01935L1.03844 16.2176V1.68744L12.0807 9.96915C12.4958 10.2783 13.0007 10.4143 13.4999 10.4157C13.9983 10.4146 14.5037 10.2786 14.9191 9.96915L25.9613 1.68744V16.2175L20.1343 9.01935C19.954 8.79645 19.6269 8.76217 19.4043 8.94252C19.181 9.12282 19.1467 9.45003 19.3271 9.67294Z" fill="black"/>
</svg>
