<svg width="60" height="60" viewBox="0 0 60 60" fill="none" xmlns="http://www.w3.org/2000/svg">
<path d="M29.978 59.9999C24.0489 59.9999 18.253 58.2417 13.3231 54.9477C8.39327 51.6536 4.55092 46.9717 2.28195 41.494C0.0129913 36.0162 -0.580674 29.9887 0.576029 24.1735C1.73273 18.3584 4.58785 13.0168 8.78034 8.82432C11.562 6.03114 14.8672 3.81399 18.5068 2.2998C22.1464 0.785608 26.0489 0.00410021 29.9909 1.60908e-05C33.9329 -0.00406803 37.837 0.769351 41.4797 2.276C45.1224 3.78265 48.4322 5.99294 51.2196 8.78035C54.007 11.5678 56.2173 14.8775 57.724 18.5203C59.2306 22.163 60.0041 26.0671 60 30.009C59.9959 33.951 59.2144 37.8535 57.7002 41.4931C56.186 45.1327 53.9688 48.4379 51.1757 51.2195C48.3985 54.012 45.0949 56.2259 41.4564 57.733C37.8178 59.2402 33.9164 60.0107 29.978 59.9999Z" fill="#B0EF8F"/>
<path d="M25.3121 43.0435L13.3691 31.1025L18.224 26.2477L25.311 33.3347L41.6891 16.9565L46.544 21.8113L25.3121 43.0435Z" fill="#009045"/>
</svg>
