<svg width="293" height="494" viewBox="0 0 293 494" fill="none" xmlns="http://www.w3.org/2000/svg">
<g clip-path="url(#clip0_1907_2938)">
<mask id="mask0_1907_2938" style="mask-type:alpha" maskUnits="userSpaceOnUse" x="0" y="4" width="32" height="24">
<path d="M0 4H32V28H0V4Z" fill="white"/>
</mask>
<g mask="url(#mask0_1907_2938)">
<path fill-rule="evenodd" clip-rule="evenodd" d="M-1.97998 4H33.985V9.95H-1.97998V4Z" fill="#0000FF"/>
<path fill-rule="evenodd" clip-rule="evenodd" d="M-1.97998 21.98H33.985V28H-1.97998V21.98Z" fill="#FFFF00"/>
<path fill-rule="evenodd" clip-rule="evenodd" d="M-1.97998 15.965H33.985V21.98H-1.97998V15.965Z" fill="#009A00"/>
<path fill-rule="evenodd" clip-rule="evenodd" d="M-1.97998 9.94995H33.985V15.965H-1.97998V9.94995Z" fill="white"/>
<path fill-rule="evenodd" clip-rule="evenodd" d="M13.0049 4.02502H18.9999V28H13.0049V4.02502Z" fill="#FF0000"/>
<path fill-rule="evenodd" clip-rule="evenodd" d="M5.58484 9.28506L4.00984 8.19506L2.44484 9.29506L2.98984 7.45006L1.46484 6.30006L3.37484 6.25006L3.99984 4.43506L4.63484 6.25006L6.53984 6.28506L5.02984 7.45006" fill="#FFFF00"/>
</g>
</g>
<path d="M59.7109 25.2812C62.8047 25.2812 65.0078 24.0156 66.1211 21.7773C66.3086 21.4023 66.4023 21.0859 66.4023 20.7227C66.4023 20.1719 66.0039 19.7734 65.4414 19.7734C64.9727 19.7734 64.6797 19.9961 64.457 20.5117C63.6602 22.4102 61.9258 23.3359 59.7227 23.3359C56.3828 23.3359 54.2617 20.6875 54.2617 16.5391C54.2617 12.4258 56.4062 9.75391 59.7109 9.75391C61.7969 9.75391 63.6133 10.832 64.4102 12.8242C64.6445 13.4219 65.0078 13.7031 65.5234 13.7031C66.0977 13.7031 66.4727 13.3281 66.4727 12.7422C66.4727 12.4961 66.4141 12.2031 66.2969 11.9102C65.3008 9.39062 62.793 7.80859 59.7109 7.80859C55.082 7.80859 52.0938 11.2305 52.0938 16.5391C52.0938 21.8945 55.0469 25.2812 59.7109 25.2812ZM74.0195 25.2109C76.2461 25.2109 77.957 24.2734 78.7422 22.6211C78.8359 22.3984 78.8945 22.1875 78.8945 22.0234C78.8945 21.4844 78.5312 21.1328 77.9922 21.1328C77.6758 21.1328 77.4414 21.25 77.2305 21.543C76.2812 22.9258 75.3906 23.4414 73.9375 23.4414C71.7578 23.4414 70.4102 21.918 70.4102 19.457H78.0273C78.7305 19.457 79.1523 19.0117 79.1523 18.2734C79.1523 14.9336 76.9609 12.6016 73.8438 12.6016C70.4805 12.6016 68.3125 15.1094 68.3125 18.9531C68.3125 22.8906 70.4219 25.2109 74.0195 25.2109ZM70.4219 17.8633C70.5508 15.7656 71.9102 14.3711 73.8086 14.3711C75.6953 14.3711 76.9961 15.7539 77.043 17.8633H70.4219ZM82.2344 25.2109C82.832 25.2109 83.2539 24.7656 83.2539 24.1211V17.8281C83.2539 15.7656 84.5078 14.4062 86.4297 14.4062C88.3047 14.4062 89.2305 15.4844 89.2305 17.4531V24.1211C89.2305 24.7656 89.6523 25.2109 90.25 25.2109C90.8477 25.2109 91.2695 24.7656 91.2695 24.1211V17.0898C91.2695 14.3242 89.7227 12.6016 87.0508 12.6016C85.1641 12.6016 83.8633 13.4453 83.1836 14.7578H83.1367V13.6328C83.1367 13.0234 82.7383 12.6016 82.1758 12.6016C81.6133 12.6016 81.2148 13.0234 81.2148 13.6328V24.1211C81.2148 24.7656 81.6367 25.2109 82.2344 25.2109ZM94.5273 22.1875C94.5273 24.1328 95.5117 25.0938 97.4805 25.0938H97.6094C98.7461 25.0938 99.0977 24.7656 99.0977 24.1445C99.0977 23.6641 98.793 23.3945 98.125 23.3477L97.9492 23.3359C96.9297 23.2656 96.5664 22.7734 96.5664 21.7422V14.4883H98.1367C98.7227 14.4883 99.0508 14.1836 99.0508 13.6445C99.0508 13.1172 98.7227 12.8125 98.1367 12.8125H96.5664V10.7266C96.5664 10.082 96.1445 9.63672 95.5469 9.63672C94.9492 9.63672 94.5273 10.082 94.5273 10.7266V12.8125H93.5078C92.9219 12.8125 92.5938 13.1172 92.5938 13.6445C92.5938 14.1836 92.9219 14.4883 93.5078 14.4883H94.5273V22.1875ZM102.133 25.2109C102.73 25.2109 103.152 24.7656 103.152 24.1211V17.4297C103.152 15.8711 103.938 14.5469 105.777 14.5469C106.223 14.5469 106.539 14.4648 106.75 14.2891C106.961 14.125 107.066 13.8906 107.066 13.5742C107.066 13.293 106.984 13.0586 106.809 12.8945C106.609 12.707 106.293 12.6016 105.848 12.6016C104.629 12.6016 103.434 13.5391 103.082 14.8047H103.035V13.6328C103.035 13.0234 102.637 12.6016 102.074 12.6016C101.512 12.6016 101.113 13.0234 101.113 13.6328V24.1211C101.113 24.7656 101.535 25.2109 102.133 25.2109ZM111.836 25.2109C113.477 25.2109 115.035 24.2969 115.762 22.9023H115.809V24.1797C115.809 24.7891 116.207 25.2109 116.781 25.2109C117.344 25.2109 117.742 24.7891 117.742 24.1797V16.5742C117.742 14.1484 115.938 12.6016 113.078 12.6016C111.098 12.6016 109.316 13.4805 108.625 14.8164C108.461 15.1094 108.379 15.4023 108.379 15.6602C108.379 16.2109 108.754 16.5742 109.281 16.5742C109.668 16.5742 109.938 16.4219 110.125 16.082C110.805 14.875 111.707 14.3945 113.031 14.3945C114.719 14.3945 115.703 15.2852 115.703 16.7734V17.793L112.199 17.9922C109.387 18.1562 107.781 19.4688 107.781 21.5547C107.781 23.7461 109.41 25.2109 111.836 25.2109ZM112.293 23.4766C110.828 23.4766 109.855 22.7148 109.855 21.5547C109.855 20.4062 110.793 19.6797 112.434 19.5742L115.703 19.375V20.3711C115.703 22.1289 114.215 23.4766 112.293 23.4766ZM121.457 25.2109C122.055 25.2109 122.477 24.7656 122.477 24.1211V8.96875C122.477 8.32422 122.055 7.87891 121.457 7.87891C120.859 7.87891 120.438 8.32422 120.438 8.96875V24.1211C120.438 24.7656 120.859 25.2109 121.457 25.2109ZM130.527 25.1641C131.055 25.1641 131.359 24.918 131.559 24.3555L133.047 20.1602H139.738L141.238 24.3555C141.438 24.918 141.742 25.1641 142.27 25.1641C142.879 25.1641 143.324 24.7773 143.324 24.2383C143.324 24.0859 143.289 23.9102 143.195 23.6523L137.746 8.93359C137.488 8.24219 137.066 7.92578 136.422 7.92578C135.73 7.92578 135.297 8.25391 135.039 8.94531L129.602 23.6523C129.508 23.9102 129.473 24.0859 129.473 24.2383C129.473 24.7773 129.918 25.1641 130.527 25.1641ZM133.656 18.3672L136.363 10.6562H136.434L139.141 18.3672H133.656ZM146.969 25.2109C147.59 25.2109 147.988 24.7891 147.988 24.1328V14.4883H149.781C150.309 14.4883 150.648 14.1836 150.648 13.6562C150.648 13.1523 150.309 12.8125 149.781 12.8125H147.977V11.5234C147.977 10.2695 148.445 9.73047 149.523 9.73047C149.781 9.73047 149.98 9.70703 150.156 9.66016C150.531 9.55469 150.707 9.32031 150.707 8.94531C150.707 8.34766 150.133 7.99609 149.055 7.99609C147.062 7.99609 145.949 9.12109 145.949 11.4531V12.8125H144.941C144.414 12.8125 144.074 13.1523 144.074 13.6562C144.074 14.1836 144.414 14.4883 144.941 14.4883H145.949V24.1328C145.949 24.7891 146.348 25.2109 146.969 25.2109ZM153.602 25.2109C154.199 25.2109 154.621 24.7656 154.621 24.1211V17.4297C154.621 15.8711 155.406 14.5469 157.246 14.5469C157.691 14.5469 158.008 14.4648 158.219 14.2891C158.43 14.125 158.535 13.8906 158.535 13.5742C158.535 13.293 158.453 13.0586 158.277 12.8945C158.078 12.707 157.762 12.6016 157.316 12.6016C156.098 12.6016 154.902 13.5391 154.551 14.8047H154.504V13.6328C154.504 13.0234 154.105 12.6016 153.543 12.6016C152.98 12.6016 152.582 13.0234 152.582 13.6328V24.1211C152.582 24.7656 153.004 25.2109 153.602 25.2109ZM161.113 10.7617C161.816 10.7617 162.391 10.1875 162.391 9.49609C162.391 8.79297 161.816 8.23047 161.113 8.23047C160.422 8.23047 159.848 8.79297 159.848 9.49609C159.848 10.1875 160.422 10.7617 161.113 10.7617ZM161.113 25.2109C161.711 25.2109 162.133 24.7656 162.133 24.1211V13.6914C162.133 13.0469 161.711 12.6016 161.113 12.6016C160.516 12.6016 160.094 13.0469 160.094 13.6914V24.1211C160.094 24.7656 160.516 25.2109 161.113 25.2109ZM169.914 25.2109C172.129 25.2109 174.062 23.9922 174.648 22.3047C174.707 22.1172 174.742 21.9414 174.742 21.7891C174.742 21.2617 174.391 20.8984 173.863 20.8984C173.418 20.8984 173.195 21.0625 172.902 21.6133C172.27 22.7852 171.379 23.418 169.914 23.418C167.816 23.418 166.363 21.707 166.363 18.9062C166.363 16.1758 167.793 14.3945 169.914 14.3945C171.32 14.3945 172.246 14.9922 172.891 16.1992C173.172 16.7266 173.418 16.9141 173.863 16.9141C174.391 16.9141 174.73 16.5625 174.73 16.0234C174.73 15.8945 174.707 15.7422 174.66 15.5898C174.191 13.9023 172.188 12.6016 169.891 12.6016C166.516 12.6016 164.289 15.0977 164.289 18.9297C164.289 22.7852 166.539 25.2109 169.914 25.2109ZM180.461 25.2109C182.102 25.2109 183.66 24.2969 184.387 22.9023H184.434V24.1797C184.434 24.7891 184.832 25.2109 185.406 25.2109C185.969 25.2109 186.367 24.7891 186.367 24.1797V16.5742C186.367 14.1484 184.562 12.6016 181.703 12.6016C179.723 12.6016 177.941 13.4805 177.25 14.8164C177.086 15.1094 177.004 15.4023 177.004 15.6602C177.004 16.2109 177.379 16.5742 177.906 16.5742C178.293 16.5742 178.562 16.4219 178.75 16.082C179.43 14.875 180.332 14.3945 181.656 14.3945C183.344 14.3945 184.328 15.2852 184.328 16.7734V17.793L180.824 17.9922C178.012 18.1562 176.406 19.4688 176.406 21.5547C176.406 23.7461 178.035 25.2109 180.461 25.2109ZM180.918 23.4766C179.453 23.4766 178.48 22.7148 178.48 21.5547C178.48 20.4062 179.418 19.6797 181.059 19.5742L184.328 19.375V20.3711C184.328 22.1289 182.84 23.4766 180.918 23.4766ZM189.977 25.2109C190.574 25.2109 190.996 24.7656 190.996 24.1211V17.8281C190.996 15.7656 192.25 14.4062 194.172 14.4062C196.047 14.4062 196.973 15.4844 196.973 17.4531V24.1211C196.973 24.7656 197.395 25.2109 197.992 25.2109C198.59 25.2109 199.012 24.7656 199.012 24.1211V17.0898C199.012 14.3242 197.465 12.6016 194.793 12.6016C192.906 12.6016 191.605 13.4453 190.926 14.7578H190.879V13.6328C190.879 13.0234 190.48 12.6016 189.918 12.6016C189.355 12.6016 188.957 13.0234 188.957 13.6328V24.1211C188.957 24.7656 189.379 25.2109 189.977 25.2109ZM207.906 25.2109C208.539 25.2109 208.961 24.7773 208.961 24.1211V18.3086H213.004L216.391 24.5312C216.66 25.0352 216.941 25.2109 217.422 25.2109C218.031 25.2109 218.5 24.7891 218.5 24.2383C218.5 24.0039 218.441 23.793 218.277 23.5L215.184 17.9805C217.305 17.3125 218.582 15.4844 218.582 13.1289C218.582 10.082 216.449 8.08984 213.191 8.08984H207.906C207.262 8.08984 206.852 8.51172 206.852 9.17969V24.1211C206.852 24.7773 207.273 25.2109 207.906 25.2109ZM208.961 16.4453V9.96484H212.91C215.09 9.96484 216.402 11.1719 216.402 13.1992C216.402 15.2734 215.172 16.4453 213.004 16.4453H208.961ZM226.035 25.2109C228.262 25.2109 229.973 24.2734 230.758 22.6211C230.852 22.3984 230.91 22.1875 230.91 22.0234C230.91 21.4844 230.547 21.1328 230.008 21.1328C229.691 21.1328 229.457 21.25 229.246 21.543C228.297 22.9258 227.406 23.4414 225.953 23.4414C223.773 23.4414 222.426 21.918 222.426 19.457H230.043C230.746 19.457 231.168 19.0117 231.168 18.2734C231.168 14.9336 228.977 12.6016 225.859 12.6016C222.496 12.6016 220.328 15.1094 220.328 18.9531C220.328 22.8906 222.438 25.2109 226.035 25.2109ZM222.438 17.8633C222.566 15.7656 223.926 14.3711 225.824 14.3711C227.711 14.3711 229.012 15.7539 229.059 17.8633H222.438ZM234.25 29.3008C234.848 29.3008 235.27 28.8555 235.27 28.2109V23.0195H235.316C236.043 24.3555 237.449 25.2109 239.195 25.2109C242.266 25.2109 244.363 22.7266 244.363 18.9062C244.363 15.0859 242.254 12.6016 239.148 12.6016C237.379 12.6016 235.961 13.5039 235.211 14.875H235.164V13.6328C235.164 13.0234 234.766 12.6016 234.203 12.6016C233.629 12.6016 233.23 13.0234 233.23 13.6328V28.2109C233.23 28.8555 233.652 29.3008 234.25 29.3008ZM238.75 23.418C236.664 23.418 235.258 21.625 235.258 18.9062C235.258 16.1992 236.664 14.3945 238.75 14.3945C240.918 14.3945 242.277 16.1523 242.277 18.9062C242.277 21.6719 240.918 23.418 238.75 23.418ZM250.586 25.2109C252.461 25.2109 253.727 24.4258 254.453 23.0195H254.5V24.1797C254.5 24.7656 254.887 25.2109 255.473 25.2109C256.059 25.2109 256.434 24.7656 256.434 24.1797V13.6914C256.434 13.0469 256.012 12.6016 255.414 12.6016C254.816 12.6016 254.395 13.0469 254.395 13.6914V19.9727C254.395 22.0469 253.199 23.4062 251.219 23.4062C249.332 23.4062 248.406 22.3398 248.406 20.3594V13.6914C248.406 13.0469 247.984 12.6016 247.387 12.6016C246.789 12.6016 246.367 13.0469 246.367 13.6914V20.7227C246.367 23.4883 247.926 25.2109 250.586 25.2109ZM260.137 25.2109C260.723 25.2109 261.133 24.8008 261.133 24.2148V22.9375H261.18C261.977 24.3438 263.371 25.2109 265.152 25.2109C268.27 25.2109 270.332 22.7383 270.332 18.9062C270.332 15.0859 268.258 12.6016 265.188 12.6016C263.465 12.6016 262.047 13.457 261.273 14.8516H261.227V8.96875C261.227 8.32422 260.805 7.87891 260.207 7.87891C259.609 7.87891 259.188 8.32422 259.188 8.96875V24.2148C259.188 24.8125 259.562 25.2109 260.137 25.2109ZM264.754 23.418C262.691 23.418 261.215 21.625 261.215 18.9062C261.215 16.1992 262.691 14.3945 264.754 14.3945C266.91 14.3945 268.246 16.1406 268.246 18.9062C268.246 21.6953 266.91 23.418 264.754 23.418ZM273.52 25.2109C274.117 25.2109 274.539 24.7656 274.539 24.1211V8.96875C274.539 8.32422 274.117 7.87891 273.52 7.87891C272.922 7.87891 272.5 8.32422 272.5 8.96875V24.1211C272.5 24.7656 272.922 25.2109 273.52 25.2109ZM278.418 10.7617C279.121 10.7617 279.695 10.1875 279.695 9.49609C279.695 8.79297 279.121 8.23047 278.418 8.23047C277.727 8.23047 277.152 8.79297 277.152 9.49609C277.152 10.1875 277.727 10.7617 278.418 10.7617ZM278.418 25.2109C279.016 25.2109 279.438 24.7656 279.438 24.1211V13.6914C279.438 13.0469 279.016 12.6016 278.418 12.6016C277.82 12.6016 277.398 13.0469 277.398 13.6914V24.1211C277.398 24.7656 277.82 25.2109 278.418 25.2109ZM287.219 25.2109C289.434 25.2109 291.367 23.9922 291.953 22.3047C292.012 22.1172 292.047 21.9414 292.047 21.7891C292.047 21.2617 291.695 20.8984 291.168 20.8984C290.723 20.8984 290.5 21.0625 290.207 21.6133C289.574 22.7852 288.684 23.418 287.219 23.418C285.121 23.418 283.668 21.707 283.668 18.9062C283.668 16.1758 285.098 14.3945 287.219 14.3945C288.625 14.3945 289.551 14.9922 290.195 16.1992C290.477 16.7266 290.723 16.9141 291.168 16.9141C291.695 16.9141 292.035 16.5625 292.035 16.0234C292.035 15.8945 292.012 15.7422 291.965 15.5898C291.496 13.9023 289.492 12.6016 287.195 12.6016C283.82 12.6016 281.594 15.0977 281.594 18.9297C281.594 22.7852 283.844 25.2109 287.219 25.2109Z" fill="black"/>
<g clip-path="url(#clip1_1907_2938)">
<path d="M0 70H32V94H0V70Z" fill="#003399"/>
<path d="M15.9996 80.9298L15.644 82.115L16.2366 82.2335L15.9996 80.9298Z" fill="#FFCC00"/>
<path d="M15.9994 80.9298L16.355 82.115L15.7624 82.2335L15.9994 80.9298Z" fill="#FFCC00"/>
<path d="M17.127 81.7488L15.8899 81.7769L15.9603 82.3771L17.127 81.7488Z" fill="#FFCC00"/>
<path d="M17.1269 81.7488L16.1096 82.4532L15.8138 81.9262L17.1269 81.7488Z" fill="#FFCC00"/>
<path d="M16.6967 83.0739L16.2877 81.906L15.7387 82.1585L16.6967 83.0739Z" fill="#FFCC00"/>
<path d="M16.6968 83.0738L15.7125 82.324L16.1223 81.8798L16.6968 83.0738Z" fill="#FFCC00"/>
<path d="M14.8725 81.7488L16.1096 81.7769L16.0392 82.3771L14.8725 81.7488Z" fill="#FFCC00"/>
<path d="M14.8726 81.7488L15.8899 82.4532L16.1857 81.9262L14.8726 81.7488Z" fill="#FFCC00"/>
<path d="M15.3028 83.0739L15.7118 81.906L16.2609 82.1585L15.3028 83.0739Z" fill="#FFCC00"/>
<path d="M15.3027 83.0738L16.287 82.324L15.8772 81.8798L15.3027 83.0738Z" fill="#FFCC00"/>
<path d="M15.9996 80.9298L15.644 82.115L16.2366 82.2335L15.9996 80.9298Z" fill="#FFCC00"/>
<path d="M15.9994 80.9298L16.355 82.115L15.7624 82.2335L15.9994 80.9298Z" fill="#FFCC00"/>
<path d="M17.127 81.7488L15.8899 81.7769L15.9603 82.3771L17.127 81.7488Z" fill="#FFCC00"/>
<path d="M17.1269 81.7488L16.1096 82.4532L15.8138 81.9262L17.1269 81.7488Z" fill="#FFCC00"/>
<path d="M16.6967 83.0739L16.2877 81.906L15.7387 82.1585L16.6967 83.0739Z" fill="#FFCC00"/>
<path d="M16.6968 83.0738L15.7125 82.324L16.1223 81.8798L16.6968 83.0738Z" fill="#FFCC00"/>
<path d="M14.8725 81.7488L16.1096 81.7769L16.0392 82.3771L14.8725 81.7488Z" fill="#FFCC00"/>
<path d="M14.8726 81.7488L15.8899 82.4532L16.1857 81.9262L14.8726 81.7488Z" fill="#FFCC00"/>
<path d="M15.3028 83.0739L15.7118 81.906L16.2609 82.1585L15.3028 83.0739Z" fill="#FFCC00"/>
<path d="M15.3027 83.0738L16.287 82.324L15.8772 81.8798L15.3027 83.0738Z" fill="#FFCC00"/>
<path d="M15.9996 80.9298L15.644 82.115L16.2366 82.2335L15.9996 80.9298Z" fill="#FFCC00"/>
<path d="M15.9994 80.9298L16.355 82.115L15.7624 82.2335L15.9994 80.9298Z" fill="#FFCC00"/>
<path d="M17.127 81.7488L15.8899 81.7769L15.9603 82.3771L17.127 81.7488Z" fill="#FFCC00"/>
<path d="M17.1269 81.7488L16.1096 82.4532L15.8138 81.9262L17.1269 81.7488Z" fill="#FFCC00"/>
<path d="M16.6967 83.0739L16.2877 81.906L15.7387 82.1585L16.6967 83.0739Z" fill="#FFCC00"/>
<path d="M16.6968 83.0738L15.7125 82.324L16.1223 81.8798L16.6968 83.0738Z" fill="#FFCC00"/>
<path d="M14.8725 81.7488L16.1096 81.7769L16.0392 82.3771L14.8725 81.7488Z" fill="#FFCC00"/>
<path d="M14.8726 81.7488L15.8899 82.4532L16.1857 81.9262L14.8726 81.7488Z" fill="#FFCC00"/>
<path d="M15.3028 83.0739L15.7118 81.906L16.2609 82.1585L15.3028 83.0739Z" fill="#FFCC00"/>
<path d="M15.3027 83.0738L16.287 82.324L15.8772 81.8798L15.3027 83.0738Z" fill="#FFCC00"/>
<path d="M11.8349 76.9691L12.8192 76.2193L12.4094 75.7751L11.8349 76.9691Z" fill="#FFCC00"/>
<path d="M11.835 76.9691L12.244 75.8013L12.7931 76.0537L11.835 76.9691Z" fill="#FFCC00"/>
<path d="M11.4043 75.6441L12.4216 76.3485L12.7175 75.8216L11.4043 75.6441Z" fill="#FFCC00"/>
<path d="M11.4043 75.6442L12.6413 75.6723L12.5709 76.2725L11.4043 75.6442Z" fill="#FFCC00"/>
<path d="M12.5318 74.8252L12.1763 76.0104L12.7689 76.1289L12.5318 74.8252Z" fill="#FFCC00"/>
<path d="M12.5317 74.8252L12.8872 76.0104L12.2946 76.1289L12.5317 74.8252Z" fill="#FFCC00"/>
<path d="M13.2286 76.9691L12.2443 76.2193L12.654 75.7751L13.2286 76.9691Z" fill="#FFCC00"/>
<path d="M13.2285 76.9691L12.8195 75.8013L12.2704 76.0537L13.2285 76.9691Z" fill="#FFCC00"/>
<path d="M13.6587 75.644L12.6414 76.3484L12.3455 75.8215L13.6587 75.644Z" fill="#FFCC00"/>
<path d="M13.6587 75.6441L12.4217 75.6722L12.4921 76.2724L13.6587 75.6441Z" fill="#FFCC00"/>
<path d="M10.5917 79.6056L10.1828 78.4378L9.63368 78.6902L10.5917 79.6056Z" fill="#FFCC00"/>
<path d="M10.5918 79.6056L9.60756 78.8557L10.0173 78.4115L10.5918 79.6056Z" fill="#FFCC00"/>
<path d="M9.19868 79.6056L10.183 78.8557L9.77321 78.4115L9.19868 79.6056Z" fill="#FFCC00"/>
<path d="M9.19878 79.6056L9.60777 78.4378L10.1568 78.6902L9.19878 79.6056Z" fill="#FFCC00"/>
<path d="M8.76856 78.2805L9.78587 78.9849L10.0817 78.4579L8.76856 78.2805Z" fill="#FFCC00"/>
<path d="M8.76855 78.2805L10.0056 78.3086L9.93519 78.9088L8.76855 78.2805Z" fill="#FFCC00"/>
<path d="M11.0229 78.2805L10.0056 78.9849L9.7098 78.4579L11.0229 78.2805Z" fill="#FFCC00"/>
<path d="M11.023 78.2805L9.78591 78.3086L9.85631 78.9088L11.023 78.2805Z" fill="#FFCC00"/>
<path d="M9.89542 77.4615L10.251 78.6467L9.65838 78.7653L9.89542 77.4615Z" fill="#FFCC00"/>
<path d="M9.89559 77.4615L9.54004 78.6467L10.1326 78.7653L9.89559 77.4615Z" fill="#FFCC00"/>
<path d="M11.0239 85.4086L9.78688 85.4367L9.85729 86.0369L11.0239 85.4086Z" fill="#FFCC00"/>
<path d="M11.0239 85.4086L10.0066 86.1129L9.71077 85.586L11.0239 85.4086Z" fill="#FFCC00"/>
<path d="M10.5932 86.7336L10.1842 85.5658L9.63514 85.8183L10.5932 86.7336Z" fill="#FFCC00"/>
<path d="M10.5933 86.7336L9.60903 85.9838L10.0188 85.5396L10.5933 86.7336Z" fill="#FFCC00"/>
<path d="M9.20014 86.7336L10.1844 85.9838L9.77467 85.5396L9.20014 86.7336Z" fill="#FFCC00"/>
<path d="M9.20025 86.7336L9.60923 85.5658L10.1583 85.8183L9.20025 86.7336Z" fill="#FFCC00"/>
<path d="M9.89689 84.5896L10.2524 85.7748L9.65985 85.8933L9.89689 84.5896Z" fill="#FFCC00"/>
<path d="M9.89706 84.5896L9.5415 85.7748L10.1341 85.8933L9.89706 84.5896Z" fill="#FFCC00"/>
<path d="M8.76952 85.4086L10.0066 85.4367L9.93617 86.0369L8.76952 85.4086Z" fill="#FFCC00"/>
<path d="M8.76954 85.4086L9.78685 86.1129L10.0827 85.586L8.76954 85.4086Z" fill="#FFCC00"/>
<path d="M13.5962 87.7941L12.3592 87.8222L12.4296 88.4224L13.5962 87.7941Z" fill="#FFCC00"/>
<path d="M13.5962 87.794L12.5789 88.4984L12.283 87.9715L13.5962 87.794Z" fill="#FFCC00"/>
<path d="M13.1655 89.1191L12.7565 87.9513L12.2074 88.2038L13.1655 89.1191Z" fill="#FFCC00"/>
<path d="M13.1656 89.1191L12.1813 88.3693L12.591 87.9251L13.1656 89.1191Z" fill="#FFCC00"/>
<path d="M11.7724 89.1191L12.7567 88.3693L12.3469 87.9251L11.7724 89.1191Z" fill="#FFCC00"/>
<path d="M11.7725 89.1191L12.1815 87.9513L12.7306 88.2038L11.7725 89.1191Z" fill="#FFCC00"/>
<path d="M12.4692 86.9751L12.8247 88.1603L12.2321 88.2788L12.4692 86.9751Z" fill="#FFCC00"/>
<path d="M12.4693 86.9751L12.1138 88.1603L12.7064 88.2788L12.4693 86.9751Z" fill="#FFCC00"/>
<path d="M11.3418 87.7941L12.5788 87.8222L12.5084 88.4224L11.3418 87.7941Z" fill="#FFCC00"/>
<path d="M11.3418 87.794L12.3591 88.4984L12.655 87.9715L11.3418 87.794Z" fill="#FFCC00"/>
<path d="M16.0004 80.9298L16.356 82.115L15.7634 82.2335L16.0004 80.9298Z" fill="#FFCC00"/>
<path d="M16.0006 80.9298L15.645 82.115L16.2376 82.2335L16.0006 80.9298Z" fill="#FFCC00"/>
<path d="M14.873 81.7488L16.1101 81.7769L16.0397 82.3771L14.873 81.7488Z" fill="#FFCC00"/>
<path d="M14.8731 81.7488L15.8904 82.4532L16.1862 81.9262L14.8731 81.7488Z" fill="#FFCC00"/>
<path d="M15.3033 83.0739L15.7123 81.906L16.2613 82.1585L15.3033 83.0739Z" fill="#FFCC00"/>
<path d="M15.3032 83.0738L16.2875 82.324L15.8777 81.8798L15.3032 83.0738Z" fill="#FFCC00"/>
<path d="M17.1275 81.7488L15.8904 81.7769L15.9608 82.3771L17.1275 81.7488Z" fill="#FFCC00"/>
<path d="M17.1274 81.7488L16.1101 82.4532L15.8143 81.9262L17.1274 81.7488Z" fill="#FFCC00"/>
<path d="M16.6972 83.0739L16.2882 81.906L15.7391 82.1585L16.6972 83.0739Z" fill="#FFCC00"/>
<path d="M16.6973 83.0738L15.713 82.324L16.1228 81.8798L16.6973 83.0738Z" fill="#FFCC00"/>
<path d="M20.1651 76.9691L19.1808 76.2193L19.5906 75.7751L20.1651 76.9691Z" fill="#FFCC00"/>
<path d="M20.165 76.9691L19.756 75.8013L19.2069 76.0537L20.165 76.9691Z" fill="#FFCC00"/>
<path d="M20.5957 75.6441L19.5784 76.3485L19.2825 75.8216L20.5957 75.6441Z" fill="#FFCC00"/>
<path d="M20.5957 75.6442L19.3587 75.6723L19.4291 76.2725L20.5957 75.6442Z" fill="#FFCC00"/>
<path d="M19.4682 74.8252L19.8237 76.0104L19.2311 76.1289L19.4682 74.8252Z" fill="#FFCC00"/>
<path d="M19.4683 74.8252L19.1128 76.0104L19.7054 76.1289L19.4683 74.8252Z" fill="#FFCC00"/>
<path d="M18.7714 76.9692L19.7557 76.2194L19.346 75.7752L18.7714 76.9692Z" fill="#FFCC00"/>
<path d="M18.7715 76.9692L19.1805 75.8014L19.7296 76.0539L18.7715 76.9692Z" fill="#FFCC00"/>
<path d="M18.3413 75.6441L19.3586 76.3485L19.6545 75.8216L18.3413 75.6441Z" fill="#FFCC00"/>
<path d="M18.3413 75.6442L19.5783 75.6723L19.5079 76.2725L18.3413 75.6442Z" fill="#FFCC00"/>
<path d="M21.4083 79.6056L21.8172 78.4378L22.3663 78.6902L21.4083 79.6056Z" fill="#FFCC00"/>
<path d="M21.4082 79.6056L22.3924 78.8557L21.9827 78.4115L21.4082 79.6056Z" fill="#FFCC00"/>
<path d="M22.8013 79.6056L21.817 78.8557L22.2268 78.4115L22.8013 79.6056Z" fill="#FFCC00"/>
<path d="M22.8012 79.6056L22.3922 78.4378L21.8432 78.6902L22.8012 79.6056Z" fill="#FFCC00"/>
<path d="M23.2314 78.2805L22.2141 78.9849L21.9183 78.4579L23.2314 78.2805Z" fill="#FFCC00"/>
<path d="M23.2315 78.2805L21.9944 78.3086L22.0648 78.9088L23.2315 78.2805Z" fill="#FFCC00"/>
<path d="M20.9771 78.2805L21.9944 78.9849L22.2902 78.4579L20.9771 78.2805Z" fill="#FFCC00"/>
<path d="M20.977 78.2805L22.2141 78.3086L22.1437 78.9088L20.977 78.2805Z" fill="#FFCC00"/>
<path d="M22.1046 77.4615L21.749 78.6467L22.3416 78.7653L22.1046 77.4615Z" fill="#FFCC00"/>
<path d="M22.1044 77.4615L22.46 78.6467L21.8674 78.7653L22.1044 77.4615Z" fill="#FFCC00"/>
<path d="M20.9761 85.4086L22.2131 85.4367L22.1427 86.0369L20.9761 85.4086Z" fill="#FFCC00"/>
<path d="M20.9761 85.4086L21.9934 86.1129L22.2892 85.586L20.9761 85.4086Z" fill="#FFCC00"/>
<path d="M21.4068 86.7336L21.8158 85.5658L22.3649 85.8183L21.4068 86.7336Z" fill="#FFCC00"/>
<path d="M21.4067 86.7336L22.391 85.9838L21.9812 85.5396L21.4067 86.7336Z" fill="#FFCC00"/>
<path d="M22.7999 86.7336L21.8156 85.9838L22.2253 85.5396L22.7999 86.7336Z" fill="#FFCC00"/>
<path d="M22.7998 86.7336L22.3908 85.5658L21.8417 85.8183L22.7998 86.7336Z" fill="#FFCC00"/>
<path d="M22.1031 84.5896L21.7476 85.7748L22.3402 85.8933L22.1031 84.5896Z" fill="#FFCC00"/>
<path d="M22.1029 84.5896L22.4585 85.7748L21.8659 85.8933L22.1029 84.5896Z" fill="#FFCC00"/>
<path d="M23.2305 85.4086L21.9934 85.4367L22.0638 86.0369L23.2305 85.4086Z" fill="#FFCC00"/>
<path d="M23.2305 85.4086L22.2132 86.1129L21.9173 85.586L23.2305 85.4086Z" fill="#FFCC00"/>
<path d="M18.4038 87.7941L19.6408 87.8222L19.5704 88.4224L18.4038 87.7941Z" fill="#FFCC00"/>
<path d="M18.4038 87.794L19.4211 88.4984L19.717 87.9715L18.4038 87.794Z" fill="#FFCC00"/>
<path d="M18.8345 89.1191L19.2435 87.9513L19.7926 88.2038L18.8345 89.1191Z" fill="#FFCC00"/>
<path d="M18.8344 89.1191L19.8187 88.3693L19.409 87.9251L18.8344 89.1191Z" fill="#FFCC00"/>
<path d="M20.2276 89.1191L19.2433 88.3693L19.6531 87.9251L20.2276 89.1191Z" fill="#FFCC00"/>
<path d="M20.2275 89.1191L19.8185 87.9513L19.2694 88.2038L20.2275 89.1191Z" fill="#FFCC00"/>
<path d="M19.5308 86.9751L19.1753 88.1603L19.7679 88.2788L19.5308 86.9751Z" fill="#FFCC00"/>
<path d="M19.5307 86.9751L19.8862 88.1603L19.2936 88.2788L19.5307 86.9751Z" fill="#FFCC00"/>
<path d="M20.6582 87.7941L19.4212 87.8222L19.4916 88.4224L20.6582 87.7941Z" fill="#FFCC00"/>
<path d="M20.6582 87.794L19.6409 88.4984L19.345 87.9715L20.6582 87.794Z" fill="#FFCC00"/>
</g>
<path d="M54.0508 91H62.6406C63.2383 91 63.6484 90.6133 63.6484 90.0508C63.6484 89.4883 63.2383 89.1016 62.6406 89.1016H55.1055V83.2891H62.2188C62.8047 83.2891 63.2148 82.9023 63.2148 82.3516C63.2148 81.7891 62.8047 81.4141 62.2188 81.4141H55.1055V75.9883H62.6406C63.2383 75.9883 63.6484 75.6016 63.6484 75.0391C63.6484 74.4766 63.2383 74.0898 62.6406 74.0898H54.0508C53.4062 74.0898 52.9961 74.5117 52.9961 75.1797V89.9102C52.9961 90.5781 53.4062 91 54.0508 91ZM70.1055 91.2109C71.9805 91.2109 73.2461 90.4258 73.9727 89.0195H74.0195V90.1797C74.0195 90.7656 74.4062 91.2109 74.9922 91.2109C75.5781 91.2109 75.9531 90.7656 75.9531 90.1797V79.6914C75.9531 79.0469 75.5312 78.6016 74.9336 78.6016C74.3359 78.6016 73.9141 79.0469 73.9141 79.6914V85.9727C73.9141 88.0469 72.7188 89.4062 70.7383 89.4062C68.8516 89.4062 67.9258 88.3398 67.9258 86.3594V79.6914C67.9258 79.0469 67.5039 78.6016 66.9062 78.6016C66.3086 78.6016 65.8867 79.0469 65.8867 79.6914V86.7227C65.8867 89.4883 67.4453 91.2109 70.1055 91.2109ZM79.6211 91.2109C80.2188 91.2109 80.6406 90.7656 80.6406 90.1211V83.4297C80.6406 81.8711 81.4258 80.5469 83.2656 80.5469C83.7109 80.5469 84.0273 80.4648 84.2383 80.2891C84.4492 80.125 84.5547 79.8906 84.5547 79.5742C84.5547 79.293 84.4727 79.0586 84.2969 78.8945C84.0977 78.707 83.7812 78.6016 83.3359 78.6016C82.1172 78.6016 80.9219 79.5391 80.5703 80.8047H80.5234V79.6328C80.5234 79.0234 80.125 78.6016 79.5625 78.6016C79 78.6016 78.6016 79.0234 78.6016 79.6328V90.1211C78.6016 90.7656 79.0234 91.2109 79.6211 91.2109ZM90.4727 91.2109C93.8359 91.2109 96.1094 88.7852 96.1094 84.9062C96.1094 81.0156 93.8359 78.6016 90.4727 78.6016C87.0977 78.6016 84.8242 81.0156 84.8242 84.9062C84.8242 88.7852 87.0977 91.2109 90.4727 91.2109ZM90.4727 89.418C88.3164 89.418 86.8984 87.7773 86.8984 84.9062C86.8984 82.0352 88.3164 80.3945 90.4727 80.3945C92.6289 80.3945 94.0352 82.0352 94.0352 84.9062C94.0352 87.7773 92.6289 89.418 90.4727 89.418ZM99.1914 95.3008C99.7891 95.3008 100.211 94.8555 100.211 94.2109V89.0195H100.258C100.984 90.3555 102.391 91.2109 104.137 91.2109C107.207 91.2109 109.305 88.7266 109.305 84.9062C109.305 81.0859 107.195 78.6016 104.09 78.6016C102.32 78.6016 100.902 79.5039 100.152 80.875H100.105V79.6328C100.105 79.0234 99.707 78.6016 99.1445 78.6016C98.5703 78.6016 98.1719 79.0234 98.1719 79.6328V94.2109C98.1719 94.8555 98.5938 95.3008 99.1914 95.3008ZM103.691 89.418C101.605 89.418 100.199 87.625 100.199 84.9062C100.199 82.1992 101.605 80.3945 103.691 80.3945C105.859 80.3945 107.219 82.1523 107.219 84.9062C107.219 87.6719 105.859 89.418 103.691 89.418ZM116.477 91.2109C118.703 91.2109 120.414 90.2734 121.199 88.6211C121.293 88.3984 121.352 88.1875 121.352 88.0234C121.352 87.4844 120.988 87.1328 120.449 87.1328C120.133 87.1328 119.898 87.25 119.688 87.543C118.738 88.9258 117.848 89.4414 116.395 89.4414C114.215 89.4414 112.867 87.918 112.867 85.457H120.484C121.188 85.457 121.609 85.0117 121.609 84.2734C121.609 80.9336 119.418 78.6016 116.301 78.6016C112.938 78.6016 110.77 81.1094 110.77 84.9531C110.77 88.8906 112.879 91.2109 116.477 91.2109ZM112.879 83.8633C113.008 81.7656 114.367 80.3711 116.266 80.3711C118.152 80.3711 119.453 81.7539 119.5 83.8633H112.879ZM127.223 91.2109C128.863 91.2109 130.422 90.2969 131.148 88.9023H131.195V90.1797C131.195 90.7891 131.594 91.2109 132.168 91.2109C132.73 91.2109 133.129 90.7891 133.129 90.1797V82.5742C133.129 80.1484 131.324 78.6016 128.465 78.6016C126.484 78.6016 124.703 79.4805 124.012 80.8164C123.848 81.1094 123.766 81.4023 123.766 81.6602C123.766 82.2109 124.141 82.5742 124.668 82.5742C125.055 82.5742 125.324 82.4219 125.512 82.082C126.191 80.875 127.094 80.3945 128.418 80.3945C130.105 80.3945 131.09 81.2852 131.09 82.7734V83.793L127.586 83.9922C124.773 84.1562 123.168 85.4688 123.168 87.5547C123.168 89.7461 124.797 91.2109 127.223 91.2109ZM127.68 89.4766C126.215 89.4766 125.242 88.7148 125.242 87.5547C125.242 86.4062 126.18 85.6797 127.82 85.5742L131.09 85.375V86.3711C131.09 88.1289 129.602 89.4766 127.68 89.4766ZM136.738 91.2109C137.336 91.2109 137.758 90.7656 137.758 90.1211V83.8281C137.758 81.7656 139.012 80.4062 140.934 80.4062C142.809 80.4062 143.734 81.4844 143.734 83.4531V90.1211C143.734 90.7656 144.156 91.2109 144.754 91.2109C145.352 91.2109 145.773 90.7656 145.773 90.1211V83.0898C145.773 80.3242 144.227 78.6016 141.555 78.6016C139.668 78.6016 138.367 79.4453 137.688 80.7578H137.641V79.6328C137.641 79.0234 137.242 78.6016 136.68 78.6016C136.117 78.6016 135.719 79.0234 135.719 79.6328V90.1211C135.719 90.7656 136.141 91.2109 136.738 91.2109ZM160.328 91.2812C164.523 91.2812 167.043 88.6797 167.043 85.0703V75.0156C167.043 74.3477 166.633 73.9258 165.988 73.9258C165.344 73.9258 164.934 74.3477 164.934 75.0156V84.9297C164.934 87.4844 163.258 89.3359 160.328 89.3359C157.398 89.3359 155.723 87.4844 155.723 84.9297V75.0156C155.723 74.3477 155.312 73.9258 154.668 73.9258C154.023 73.9258 153.613 74.3477 153.613 75.0156V85.0703C153.613 88.6797 156.133 91.2812 160.328 91.2812ZM171.027 91.2109C171.625 91.2109 172.047 90.7656 172.047 90.1211V83.8281C172.047 81.7656 173.301 80.4062 175.223 80.4062C177.098 80.4062 178.023 81.4844 178.023 83.4531V90.1211C178.023 90.7656 178.445 91.2109 179.043 91.2109C179.641 91.2109 180.062 90.7656 180.062 90.1211V83.0898C180.062 80.3242 178.516 78.6016 175.844 78.6016C173.957 78.6016 172.656 79.4453 171.977 80.7578H171.93V79.6328C171.93 79.0234 171.531 78.6016 170.969 78.6016C170.406 78.6016 170.008 79.0234 170.008 79.6328V90.1211C170.008 90.7656 170.43 91.2109 171.027 91.2109ZM183.789 76.7617C184.492 76.7617 185.066 76.1875 185.066 75.4961C185.066 74.793 184.492 74.2305 183.789 74.2305C183.098 74.2305 182.523 74.793 182.523 75.4961C182.523 76.1875 183.098 76.7617 183.789 76.7617ZM183.789 91.2109C184.387 91.2109 184.809 90.7656 184.809 90.1211V79.6914C184.809 79.0469 184.387 78.6016 183.789 78.6016C183.191 78.6016 182.77 79.0469 182.77 79.6914V90.1211C182.77 90.7656 183.191 91.2109 183.789 91.2109ZM192.613 91.2109C195.977 91.2109 198.25 88.7852 198.25 84.9062C198.25 81.0156 195.977 78.6016 192.613 78.6016C189.238 78.6016 186.965 81.0156 186.965 84.9062C186.965 88.7852 189.238 91.2109 192.613 91.2109ZM192.613 89.418C190.457 89.418 189.039 87.7773 189.039 84.9062C189.039 82.0352 190.457 80.3945 192.613 80.3945C194.77 80.3945 196.176 82.0352 196.176 84.9062C196.176 87.7773 194.77 89.418 192.613 89.418ZM201.332 91.2109C201.93 91.2109 202.352 90.7656 202.352 90.1211V83.8281C202.352 81.7656 203.605 80.4062 205.527 80.4062C207.402 80.4062 208.328 81.4844 208.328 83.4531V90.1211C208.328 90.7656 208.75 91.2109 209.348 91.2109C209.945 91.2109 210.367 90.7656 210.367 90.1211V83.0898C210.367 80.3242 208.82 78.6016 206.148 78.6016C204.262 78.6016 202.961 79.4453 202.281 80.7578H202.234V79.6328C202.234 79.0234 201.836 78.6016 201.273 78.6016C200.711 78.6016 200.312 79.0234 200.312 79.6328V90.1211C200.312 90.7656 200.734 91.2109 201.332 91.2109Z" fill="black"/>
<g clip-path="url(#clip2_1907_2938)">
<path fill-rule="evenodd" clip-rule="evenodd" d="M0 136H32V148.45H0V136Z" fill="#E70011"/>
<path fill-rule="evenodd" clip-rule="evenodd" d="M0 148H32V160H0V148Z" fill="white"/>
</g>
<path d="M54.1094 157.164C54.7539 157.164 55.1641 156.742 55.1641 156.074V141.016C55.1641 140.348 54.7539 139.926 54.1094 139.926C53.4648 139.926 53.0547 140.348 53.0547 141.016V156.074C53.0547 156.742 53.4648 157.164 54.1094 157.164ZM59.1484 157.211C59.7461 157.211 60.168 156.766 60.168 156.121V149.828C60.168 147.766 61.4219 146.406 63.3438 146.406C65.2188 146.406 66.1445 147.484 66.1445 149.453V156.121C66.1445 156.766 66.5664 157.211 67.1641 157.211C67.7617 157.211 68.1836 156.766 68.1836 156.121V149.09C68.1836 146.324 66.6367 144.602 63.9648 144.602C62.0781 144.602 60.7773 145.445 60.0977 146.758H60.0508V145.633C60.0508 145.023 59.6523 144.602 59.0898 144.602C58.5273 144.602 58.1289 145.023 58.1289 145.633V156.121C58.1289 156.766 58.5508 157.211 59.1484 157.211ZM75.4023 157.211C77.3125 157.211 78.5781 156.273 79.2461 154.82H79.2812V156.215C79.2812 156.812 79.75 157.211 80.3242 157.211C80.9102 157.211 81.3203 156.801 81.3203 156.215V140.969C81.3203 140.324 80.8984 139.879 80.3008 139.879C79.7031 139.879 79.2812 140.324 79.2812 140.969V146.793H79.2344C78.5078 145.457 77.1016 144.602 75.3555 144.602C72.2852 144.602 70.1875 147.086 70.1875 150.906C70.1875 154.727 72.2969 157.211 75.4023 157.211ZM75.7891 155.418C73.6328 155.418 72.2734 153.672 72.2734 150.906C72.2734 148.152 73.6328 146.395 75.7891 146.395C77.8867 146.395 79.293 148.188 79.293 150.906C79.293 153.637 77.8867 155.418 75.7891 155.418ZM89.125 157.211C92.4883 157.211 94.7617 154.785 94.7617 150.906C94.7617 147.016 92.4883 144.602 89.125 144.602C85.75 144.602 83.4766 147.016 83.4766 150.906C83.4766 154.785 85.75 157.211 89.125 157.211ZM89.125 155.418C86.9688 155.418 85.5508 153.777 85.5508 150.906C85.5508 148.035 86.9688 146.395 89.125 146.395C91.2812 146.395 92.6875 148.035 92.6875 150.906C92.6875 153.777 91.2812 155.418 89.125 155.418ZM97.8438 157.211C98.4414 157.211 98.8633 156.766 98.8633 156.121V149.828C98.8633 147.766 100.117 146.406 102.039 146.406C103.914 146.406 104.84 147.484 104.84 149.453V156.121C104.84 156.766 105.262 157.211 105.859 157.211C106.457 157.211 106.879 156.766 106.879 156.121V149.09C106.879 146.324 105.332 144.602 102.66 144.602C100.773 144.602 99.4727 145.445 98.793 146.758H98.7461V145.633C98.7461 145.023 98.3477 144.602 97.7852 144.602C97.2227 144.602 96.8242 145.023 96.8242 145.633V156.121C96.8242 156.766 97.2461 157.211 97.8438 157.211ZM114.59 157.211C116.816 157.211 118.527 156.273 119.312 154.621C119.406 154.398 119.465 154.188 119.465 154.023C119.465 153.484 119.102 153.133 118.562 153.133C118.246 153.133 118.012 153.25 117.801 153.543C116.852 154.926 115.961 155.441 114.508 155.441C112.328 155.441 110.98 153.918 110.98 151.457H118.598C119.301 151.457 119.723 151.012 119.723 150.273C119.723 146.934 117.531 144.602 114.414 144.602C111.051 144.602 108.883 147.109 108.883 150.953C108.883 154.891 110.992 157.211 114.59 157.211ZM110.992 149.863C111.121 147.766 112.48 146.371 114.379 146.371C116.266 146.371 117.566 147.754 117.613 149.863H110.992ZM126.016 157.211C128.91 157.211 130.867 155.746 130.867 153.566C130.867 151.773 129.93 150.883 127.387 150.262L125.57 149.816C124.234 149.488 123.578 148.902 123.578 148.059C123.578 147.016 124.598 146.277 126.062 146.277C127.305 146.277 128.09 146.723 128.617 147.742C128.84 148.164 129.121 148.293 129.52 148.293C130.012 148.293 130.316 147.977 130.316 147.496C130.316 147.402 130.305 147.309 130.281 147.191C129.965 145.727 128.184 144.602 126.18 144.602C123.426 144.602 121.562 146.043 121.562 148.164C121.562 149.875 122.699 150.988 125.055 151.574L126.918 152.043C128.289 152.383 128.793 152.852 128.793 153.73C128.793 154.867 127.738 155.547 126.18 155.547C124.621 155.547 123.895 155.066 123.285 154C123.051 153.578 122.758 153.391 122.395 153.391C121.867 153.391 121.469 153.695 121.469 154.234C121.469 154.387 121.492 154.539 121.562 154.715C122.148 156.238 123.848 157.211 126.016 157.211ZM134.09 142.762C134.793 142.762 135.367 142.188 135.367 141.496C135.367 140.793 134.793 140.23 134.09 140.23C133.398 140.23 132.824 140.793 132.824 141.496C132.824 142.188 133.398 142.762 134.09 142.762ZM134.09 157.211C134.688 157.211 135.109 156.766 135.109 156.121V145.691C135.109 145.047 134.688 144.602 134.09 144.602C133.492 144.602 133.07 145.047 133.07 145.691V156.121C133.07 156.766 133.492 157.211 134.09 157.211ZM141.414 157.211C143.055 157.211 144.613 156.297 145.34 154.902H145.387V156.18C145.387 156.789 145.785 157.211 146.359 157.211C146.922 157.211 147.32 156.789 147.32 156.18V148.574C147.32 146.148 145.516 144.602 142.656 144.602C140.676 144.602 138.895 145.48 138.203 146.816C138.039 147.109 137.957 147.402 137.957 147.66C137.957 148.211 138.332 148.574 138.859 148.574C139.246 148.574 139.516 148.422 139.703 148.082C140.383 146.875 141.285 146.395 142.609 146.395C144.297 146.395 145.281 147.285 145.281 148.773V149.793L141.777 149.992C138.965 150.156 137.359 151.469 137.359 153.555C137.359 155.746 138.988 157.211 141.414 157.211ZM141.871 155.477C140.406 155.477 139.434 154.715 139.434 153.555C139.434 152.406 140.371 151.68 142.012 151.574L145.281 151.375V152.371C145.281 154.129 143.793 155.477 141.871 155.477Z" fill="black"/>
<g clip-path="url(#clip3_1907_2938)">
<path d="M0 202H32V226H0V202Z" fill="#CC0000"/>
<path d="M0.0249023 203.995H31.9749V205.915H0.0249023V203.995ZM0.0249023 207.93H31.9749V209.85H0.0249023V207.93ZM0.0249023 211.87H31.9749V213.79H0.0249023V211.87Z" fill="white"/>
<path d="M0 202.025H16V216.025H0V202.025Z" fill="#000066"/>
<path d="M10.3748 205.69L10.6748 207.725L11.8248 206.025L11.2048 207.985L12.9798 206.945L11.5748 208.445L13.6248 208.285L11.7098 209.025L13.6248 209.765L11.5748 209.605L12.9798 211.105L11.2048 210.065L11.8198 212.03L10.6698 210.325L10.3698 212.36L10.0748 210.325L8.92477 212.025L9.54477 210.065L7.76977 211.105L9.16977 209.605L7.11977 209.765L9.03977 209.025L7.12477 208.285L9.17477 208.445L7.76977 206.945L9.54477 207.985L8.92477 206.02L10.0748 207.725L10.3748 205.69ZM8.70977 205.775C8.16856 205.535 7.57599 205.434 6.98586 205.481C6.39574 205.528 5.82673 205.722 5.33049 206.045C4.83425 206.368 4.42649 206.81 4.14422 207.33C3.86195 207.85 3.71411 208.433 3.71411 209.025C3.71411 209.617 3.86195 210.2 4.14422 210.72C4.42649 211.24 4.83425 211.682 5.33049 212.005C5.82673 212.328 6.39574 212.522 6.98586 212.569C7.57599 212.616 8.16856 212.515 8.70977 212.275C8.11204 212.704 7.40762 212.96 6.67397 213.014C5.94032 213.069 5.20586 212.92 4.55137 212.584C3.89688 212.248 3.34772 211.738 2.96426 211.11C2.58081 210.482 2.37793 209.761 2.37793 209.025C2.37793 208.289 2.58081 207.568 2.96426 206.94C3.34772 206.312 3.89688 205.802 4.55137 205.466C5.20586 205.13 5.94032 204.982 6.67397 205.036C7.40762 205.09 8.11204 205.346 8.70977 205.775Z" fill="#FFCC00"/>
<path d="M0.025 215.81H31.975V217.73H0.025V215.81ZM0.025 219.72H31.975V221.64H0.025V219.72ZM0 224.08H31.95V226H0V224.08Z" fill="white"/>
</g>
<path d="M53.9336 223.164C54.543 223.164 54.918 222.777 54.918 222.145V209.969H55L60.0156 221.992C60.2734 222.602 60.6719 222.883 61.2812 222.883C61.8906 222.883 62.2773 222.602 62.5469 221.969L67.5625 209.969H67.6445V222.145C67.6445 222.777 68.0195 223.164 68.6289 223.164C69.2383 223.164 69.6133 222.777 69.6133 222.145V207.238C69.6133 206.441 69.0859 205.926 68.2891 205.926C67.5625 205.926 67.1055 206.277 66.7773 207.051L61.3281 220.199H61.2344L55.7734 207.051C55.4453 206.266 55.0117 205.926 54.2969 205.926C53.4883 205.926 52.9492 206.453 52.9492 207.238V222.145C52.9492 222.777 53.3242 223.164 53.9336 223.164ZM75.7773 223.211C77.418 223.211 78.9766 222.297 79.7031 220.902H79.75V222.18C79.75 222.789 80.1484 223.211 80.7227 223.211C81.2852 223.211 81.6836 222.789 81.6836 222.18V214.574C81.6836 212.148 79.8789 210.602 77.0195 210.602C75.0391 210.602 73.2578 211.48 72.5664 212.816C72.4023 213.109 72.3203 213.402 72.3203 213.66C72.3203 214.211 72.6953 214.574 73.2227 214.574C73.6094 214.574 73.8789 214.422 74.0664 214.082C74.7461 212.875 75.6484 212.395 76.9727 212.395C78.6602 212.395 79.6445 213.285 79.6445 214.773V215.793L76.1406 215.992C73.3281 216.156 71.7227 217.469 71.7227 219.555C71.7227 221.746 73.3516 223.211 75.7773 223.211ZM76.2344 221.477C74.7695 221.477 73.7969 220.715 73.7969 219.555C73.7969 218.406 74.7344 217.68 76.375 217.574L79.6445 217.375V218.371C79.6445 220.129 78.1562 221.477 76.2344 221.477ZM85.3984 223.211C85.9961 223.211 86.418 222.766 86.418 222.121V206.969C86.418 206.324 85.9961 205.879 85.3984 205.879C84.8008 205.879 84.3789 206.324 84.3789 206.969V222.121C84.3789 222.766 84.8008 223.211 85.3984 223.211ZM92.7227 223.211C94.3633 223.211 95.9219 222.297 96.6484 220.902H96.6953V222.18C96.6953 222.789 97.0938 223.211 97.668 223.211C98.2305 223.211 98.6289 222.789 98.6289 222.18V214.574C98.6289 212.148 96.8242 210.602 93.9648 210.602C91.9844 210.602 90.2031 211.48 89.5117 212.816C89.3477 213.109 89.2656 213.402 89.2656 213.66C89.2656 214.211 89.6406 214.574 90.168 214.574C90.5547 214.574 90.8242 214.422 91.0117 214.082C91.6914 212.875 92.5938 212.395 93.918 212.395C95.6055 212.395 96.5898 213.285 96.5898 214.773V215.793L93.0859 215.992C90.2734 216.156 88.668 217.469 88.668 219.555C88.668 221.746 90.2969 223.211 92.7227 223.211ZM93.1797 221.477C91.7148 221.477 90.7422 220.715 90.7422 219.555C90.7422 218.406 91.6797 217.68 93.3203 217.574L96.5898 217.375V218.371C96.5898 220.129 95.1016 221.477 93.1797 221.477ZM102.414 227.559C104.43 227.559 105.426 226.656 106.48 223.855L110.98 212.078C111.051 211.879 111.086 211.691 111.086 211.539C111.086 210.988 110.676 210.602 110.09 210.602C109.586 210.602 109.316 210.812 109.129 211.352L105.754 220.961H105.719L102.355 211.352C102.168 210.812 101.863 210.602 101.383 210.602C100.797 210.602 100.363 210.977 100.363 211.539C100.363 211.691 100.398 211.879 100.469 212.078L104.664 223.012L104.383 223.867C103.902 225.344 103.164 225.812 102.391 225.812C102.074 225.812 101.992 225.801 101.699 225.801C101.184 225.801 100.879 226.105 100.879 226.551C100.879 227.195 101.43 227.559 102.414 227.559ZM117.121 223.211C120.016 223.211 121.973 221.746 121.973 219.566C121.973 217.773 121.035 216.883 118.492 216.262L116.676 215.816C115.34 215.488 114.684 214.902 114.684 214.059C114.684 213.016 115.703 212.277 117.168 212.277C118.41 212.277 119.195 212.723 119.723 213.742C119.945 214.164 120.227 214.293 120.625 214.293C121.117 214.293 121.422 213.977 121.422 213.496C121.422 213.402 121.41 213.309 121.387 213.191C121.07 211.727 119.289 210.602 117.285 210.602C114.531 210.602 112.668 212.043 112.668 214.164C112.668 215.875 113.805 216.988 116.16 217.574L118.023 218.043C119.395 218.383 119.898 218.852 119.898 219.73C119.898 220.867 118.844 221.547 117.285 221.547C115.727 221.547 115 221.066 114.391 220C114.156 219.578 113.863 219.391 113.5 219.391C112.973 219.391 112.574 219.695 112.574 220.234C112.574 220.387 112.598 220.539 112.668 220.715C113.254 222.238 114.953 223.211 117.121 223.211ZM125.195 208.762C125.898 208.762 126.473 208.188 126.473 207.496C126.473 206.793 125.898 206.23 125.195 206.23C124.504 206.23 123.93 206.793 123.93 207.496C123.93 208.188 124.504 208.762 125.195 208.762ZM125.195 223.211C125.793 223.211 126.215 222.766 126.215 222.121V211.691C126.215 211.047 125.793 210.602 125.195 210.602C124.598 210.602 124.176 211.047 124.176 211.691V222.121C124.176 222.766 124.598 223.211 125.195 223.211ZM132.52 223.211C134.16 223.211 135.719 222.297 136.445 220.902H136.492V222.18C136.492 222.789 136.891 223.211 137.465 223.211C138.027 223.211 138.426 222.789 138.426 222.18V214.574C138.426 212.148 136.621 210.602 133.762 210.602C131.781 210.602 130 211.48 129.309 212.816C129.145 213.109 129.062 213.402 129.062 213.66C129.062 214.211 129.438 214.574 129.965 214.574C130.352 214.574 130.621 214.422 130.809 214.082C131.488 212.875 132.391 212.395 133.715 212.395C135.402 212.395 136.387 213.285 136.387 214.773V215.793L132.883 215.992C130.07 216.156 128.465 217.469 128.465 219.555C128.465 221.746 130.094 223.211 132.52 223.211ZM132.977 221.477C131.512 221.477 130.539 220.715 130.539 219.555C130.539 218.406 131.477 217.68 133.117 217.574L136.387 217.375V218.371C136.387 220.129 134.898 221.477 132.977 221.477Z" fill="black"/>
<g clip-path="url(#clip4_1907_2938)">
<path d="M0 268H32V292H0V268Z" fill="#20603D"/>
<path d="M0 268H32V286H0V268Z" fill="#FAD201"/>
<path d="M0 268H32V280H0V268Z" fill="#00A1DE"/>
<path d="M29.4204 274.27L26.7404 274.427L29.2871 275.273L26.6604 274.73L28.9038 276.203L26.5038 274.997L28.2838 277.007L26.2804 275.223L27.4871 277.623L26.0104 275.38L26.5504 278.003L25.7071 275.46L25.5504 278.14L25.5171 274.237L29.4204 274.27Z" fill="#E5BE01"/>
<path d="M29.4204 274.27L26.7404 274.113L29.2871 273.267L26.6604 273.81L28.9038 272.337L26.5038 273.543L28.2838 271.533L26.2804 273.317L27.4871 270.917L26.0104 273.16L26.5504 270.537L25.7071 273.08L25.5504 270.4L25.5171 274.303L29.4204 274.27Z" fill="#E5BE01"/>
<path d="M21.6801 274.27L24.3602 274.427L21.8135 275.273L24.4402 274.73L22.1968 276.203L24.5968 274.997L22.8168 277.007L24.8202 275.223L23.6135 277.623L25.0902 275.38L24.5502 278.003L25.3935 275.46L25.5502 278.14L25.5835 274.237L21.6801 274.27Z" fill="#E5BE01"/>
<path d="M21.6801 274.27L24.3602 274.113L21.8135 273.267L24.4402 273.81L22.1968 272.337L24.5968 273.543L22.8168 271.533L24.8202 273.317L23.6135 270.917L25.0902 273.16L24.5502 270.537L25.3935 273.08L25.5502 270.4L25.5835 274.303L21.6801 274.27Z" fill="#E5BE01"/>
<path d="M25.5501 275.413C26.1815 275.413 26.6934 274.901 26.6934 274.27C26.6934 273.639 26.1815 273.127 25.5501 273.127C24.9186 273.127 24.4067 273.639 24.4067 274.27C24.4067 274.901 24.9186 275.413 25.5501 275.413Z" fill="#E5BE01" stroke="#00A1DE" stroke-width="0.283335"/>
</g>
<path d="M54.0078 289.211C54.6406 289.211 55.0625 288.777 55.0625 288.121V282.309H59.1055L62.4922 288.531C62.7617 289.035 63.043 289.211 63.5234 289.211C64.1328 289.211 64.6016 288.789 64.6016 288.238C64.6016 288.004 64.543 287.793 64.3789 287.5L61.2852 281.98C63.4062 281.312 64.6836 279.484 64.6836 277.129C64.6836 274.082 62.5508 272.09 59.293 272.09H54.0078C53.3633 272.09 52.9531 272.512 52.9531 273.18V288.121C52.9531 288.777 53.375 289.211 54.0078 289.211ZM55.0625 280.445V273.965H59.0117C61.1914 273.965 62.5039 275.172 62.5039 277.199C62.5039 279.273 61.2734 280.445 59.1055 280.445H55.0625ZM70.4609 289.211C71.1055 289.211 71.5508 288.871 71.7383 288.227L74.2578 279.566H74.3047L76.8359 288.227C77.0352 288.918 77.4219 289.211 78.1016 289.211C78.7344 289.211 79.1562 288.883 79.3438 288.227L82.3203 278.008C82.3789 277.809 82.4023 277.633 82.4023 277.48C82.4023 276.941 82.0156 276.602 81.4062 276.602C80.9023 276.602 80.6328 276.836 80.4805 277.434L78.0781 286.727H78.0312L75.4531 277.504C75.2891 276.906 74.9023 276.602 74.293 276.602C73.6719 276.602 73.2617 276.918 73.0977 277.516L70.543 286.727H70.4961L68.0938 277.434C67.9414 276.836 67.6719 276.602 67.168 276.602C66.5586 276.602 66.1719 276.941 66.1719 277.48C66.1719 277.633 66.1953 277.809 66.2539 278.008L69.2305 288.227C69.4297 288.906 69.8164 289.211 70.4609 289.211ZM87.5234 289.211C89.1641 289.211 90.7227 288.297 91.4492 286.902H91.4961V288.18C91.4961 288.789 91.8945 289.211 92.4688 289.211C93.0312 289.211 93.4297 288.789 93.4297 288.18V280.574C93.4297 278.148 91.625 276.602 88.7656 276.602C86.7852 276.602 85.0039 277.48 84.3125 278.816C84.1484 279.109 84.0664 279.402 84.0664 279.66C84.0664 280.211 84.4414 280.574 84.9688 280.574C85.3555 280.574 85.625 280.422 85.8125 280.082C86.4922 278.875 87.3945 278.395 88.7188 278.395C90.4062 278.395 91.3906 279.285 91.3906 280.773V281.793L87.8867 281.992C85.0742 282.156 83.4688 283.469 83.4688 285.555C83.4688 287.746 85.0977 289.211 87.5234 289.211ZM87.9805 287.477C86.5156 287.477 85.543 286.715 85.543 285.555C85.543 284.406 86.4805 283.68 88.1211 283.574L91.3906 283.375V284.371C91.3906 286.129 89.9023 287.477 87.9805 287.477ZM97.0391 289.211C97.6367 289.211 98.0586 288.766 98.0586 288.121V281.828C98.0586 279.766 99.3125 278.406 101.234 278.406C103.109 278.406 104.035 279.484 104.035 281.453V288.121C104.035 288.766 104.457 289.211 105.055 289.211C105.652 289.211 106.074 288.766 106.074 288.121V281.09C106.074 278.324 104.527 276.602 101.855 276.602C99.9688 276.602 98.668 277.445 97.9883 278.758H97.9414V277.633C97.9414 277.023 97.543 276.602 96.9805 276.602C96.418 276.602 96.0195 277.023 96.0195 277.633V288.121C96.0195 288.766 96.4414 289.211 97.0391 289.211ZM113.293 289.211C115.203 289.211 116.469 288.273 117.137 286.82H117.172V288.215C117.172 288.812 117.641 289.211 118.215 289.211C118.801 289.211 119.211 288.801 119.211 288.215V272.969C119.211 272.324 118.789 271.879 118.191 271.879C117.594 271.879 117.172 272.324 117.172 272.969V278.793H117.125C116.398 277.457 114.992 276.602 113.246 276.602C110.176 276.602 108.078 279.086 108.078 282.906C108.078 286.727 110.188 289.211 113.293 289.211ZM113.68 287.418C111.523 287.418 110.164 285.672 110.164 282.906C110.164 280.152 111.523 278.395 113.68 278.395C115.777 278.395 117.184 280.188 117.184 282.906C117.184 285.637 115.777 287.418 113.68 287.418ZM125.516 289.211C127.156 289.211 128.715 288.297 129.441 286.902H129.488V288.18C129.488 288.789 129.887 289.211 130.461 289.211C131.023 289.211 131.422 288.789 131.422 288.18V280.574C131.422 278.148 129.617 276.602 126.758 276.602C124.777 276.602 122.996 277.48 122.305 278.816C122.141 279.109 122.059 279.402 122.059 279.66C122.059 280.211 122.434 280.574 122.961 280.574C123.348 280.574 123.617 280.422 123.805 280.082C124.484 278.875 125.387 278.395 126.711 278.395C128.398 278.395 129.383 279.285 129.383 280.773V281.793L125.879 281.992C123.066 282.156 121.461 283.469 121.461 285.555C121.461 287.746 123.09 289.211 125.516 289.211ZM125.973 287.477C124.508 287.477 123.535 286.715 123.535 285.555C123.535 284.406 124.473 283.68 126.113 283.574L129.383 283.375V284.371C129.383 286.129 127.895 287.477 125.973 287.477Z" fill="black"/>
<g clip-path="url(#clip5_1907_2938)">
<path fill-rule="evenodd" clip-rule="evenodd" d="M0 334H32V358H0V334Z" fill="#D52B1E"/>
<path fill-rule="evenodd" clip-rule="evenodd" d="M8.5 343.75H23.5V348.25H8.5V343.75Z" fill="white"/>
<path fill-rule="evenodd" clip-rule="evenodd" d="M13.75 338.5H18.25V353.5H13.75V338.5Z" fill="white"/>
</g>
<path d="M58.2188 355.281C62.0039 355.281 64.4648 353.324 64.4648 350.195C64.4648 347.805 63.0703 346.398 59.543 345.625L57.668 345.215C55.3594 344.711 54.457 343.797 54.457 342.461C54.457 340.738 56.0859 339.707 58.1953 339.707C60.0234 339.707 61.418 340.457 62.0039 342.168C62.1914 342.707 62.5195 342.988 63.0586 342.988C63.6211 342.988 64.0195 342.613 64.0195 342.039C64.0195 341.816 63.9961 341.641 63.9609 341.512C63.3516 339.227 61.0781 337.809 58.2539 337.809C54.75 337.809 52.2891 339.766 52.2891 342.555C52.2891 344.957 53.7539 346.492 57.1406 347.23L59.0156 347.641C61.3594 348.156 62.2969 349.094 62.2969 350.512C62.2969 352.176 60.6328 353.383 58.3359 353.383C56.2031 353.383 54.5391 352.562 54.0234 350.816C53.8594 350.254 53.5312 349.984 53.0039 349.984C52.4062 349.984 52.0312 350.406 52.0312 351.074C52.0312 351.32 52.0781 351.578 52.1484 351.812C52.7812 353.852 55.043 355.281 58.2188 355.281ZM70.043 355.211C70.6875 355.211 71.1328 354.871 71.3203 354.227L73.8398 345.566H73.8867L76.418 354.227C76.6172 354.918 77.0039 355.211 77.6836 355.211C78.3164 355.211 78.7383 354.883 78.9258 354.227L81.9023 344.008C81.9609 343.809 81.9844 343.633 81.9844 343.48C81.9844 342.941 81.5977 342.602 80.9883 342.602C80.4844 342.602 80.2148 342.836 80.0625 343.434L77.6602 352.727H77.6133L75.0352 343.504C74.8711 342.906 74.4844 342.602 73.875 342.602C73.2539 342.602 72.8438 342.918 72.6797 343.516L70.125 352.727H70.0781L67.6758 343.434C67.5234 342.836 67.2539 342.602 66.75 342.602C66.1406 342.602 65.7539 342.941 65.7539 343.48C65.7539 343.633 65.7773 343.809 65.8359 344.008L68.8125 354.227C69.0117 354.906 69.3984 355.211 70.043 355.211ZM84.9141 340.762C85.6172 340.762 86.1914 340.188 86.1914 339.496C86.1914 338.793 85.6172 338.23 84.9141 338.23C84.2227 338.23 83.6484 338.793 83.6484 339.496C83.6484 340.188 84.2227 340.762 84.9141 340.762ZM84.9141 355.211C85.5117 355.211 85.9336 354.766 85.9336 354.121V343.691C85.9336 343.047 85.5117 342.602 84.9141 342.602C84.3164 342.602 83.8945 343.047 83.8945 343.691V354.121C83.8945 354.766 84.3164 355.211 84.9141 355.211ZM89.3438 352.188C89.3438 354.133 90.3281 355.094 92.2969 355.094H92.4258C93.5625 355.094 93.9141 354.766 93.9141 354.145C93.9141 353.664 93.6094 353.395 92.9414 353.348L92.7656 353.336C91.7461 353.266 91.3828 352.773 91.3828 351.742V344.488H92.9531C93.5391 344.488 93.8672 344.184 93.8672 343.645C93.8672 343.117 93.5391 342.812 92.9531 342.812H91.3828V340.727C91.3828 340.082 90.9609 339.637 90.3633 339.637C89.7656 339.637 89.3438 340.082 89.3438 340.727V342.812H88.3242C87.7383 342.812 87.4102 343.117 87.4102 343.645C87.4102 344.184 87.7383 344.488 88.3242 344.488H89.3438V352.188ZM96.75 355H103.98C104.566 355 104.895 354.695 104.895 354.156C104.895 353.629 104.566 353.324 103.98 353.324H98.0273V353.289L104.273 344.945C104.625 344.477 104.754 344.207 104.754 343.855C104.754 343.199 104.309 342.812 103.535 342.812H96.4805C95.8945 342.812 95.5664 343.117 95.5664 343.645C95.5664 344.184 95.8945 344.488 96.4805 344.488H102.422V344.523L96 353.09C95.7422 353.43 95.6602 353.641 95.6602 353.992C95.6602 354.602 96.0938 355 96.75 355ZM111.797 355.211C114.023 355.211 115.734 354.273 116.52 352.621C116.613 352.398 116.672 352.188 116.672 352.023C116.672 351.484 116.309 351.133 115.77 351.133C115.453 351.133 115.219 351.25 115.008 351.543C114.059 352.926 113.168 353.441 111.715 353.441C109.535 353.441 108.188 351.918 108.188 349.457H115.805C116.508 349.457 116.93 349.012 116.93 348.273C116.93 344.934 114.738 342.602 111.621 342.602C108.258 342.602 106.09 345.109 106.09 348.953C106.09 352.891 108.199 355.211 111.797 355.211ZM108.199 347.863C108.328 345.766 109.688 344.371 111.586 344.371C113.473 344.371 114.773 345.754 114.82 347.863H108.199ZM120.012 355.211C120.609 355.211 121.031 354.766 121.031 354.121V347.43C121.031 345.871 121.816 344.547 123.656 344.547C124.102 344.547 124.418 344.465 124.629 344.289C124.84 344.125 124.945 343.891 124.945 343.574C124.945 343.293 124.863 343.059 124.688 342.895C124.488 342.707 124.172 342.602 123.727 342.602C122.508 342.602 121.312 343.539 120.961 344.805H120.914V343.633C120.914 343.023 120.516 342.602 119.953 342.602C119.391 342.602 118.992 343.023 118.992 343.633V354.121C118.992 354.766 119.414 355.211 120.012 355.211ZM127.523 355.211C128.121 355.211 128.543 354.766 128.543 354.121V338.969C128.543 338.324 128.121 337.879 127.523 337.879C126.926 337.879 126.504 338.324 126.504 338.969V354.121C126.504 354.766 126.926 355.211 127.523 355.211ZM134.848 355.211C136.488 355.211 138.047 354.297 138.773 352.902H138.82V354.18C138.82 354.789 139.219 355.211 139.793 355.211C140.355 355.211 140.754 354.789 140.754 354.18V346.574C140.754 344.148 138.949 342.602 136.09 342.602C134.109 342.602 132.328 343.48 131.637 344.816C131.473 345.109 131.391 345.402 131.391 345.66C131.391 346.211 131.766 346.574 132.293 346.574C132.68 346.574 132.949 346.422 133.137 346.082C133.816 344.875 134.719 344.395 136.043 344.395C137.73 344.395 138.715 345.285 138.715 346.773V347.793L135.211 347.992C132.398 348.156 130.793 349.469 130.793 351.555C130.793 353.746 132.422 355.211 134.848 355.211ZM135.305 353.477C133.84 353.477 132.867 352.715 132.867 351.555C132.867 350.406 133.805 349.68 135.445 349.574L138.715 349.375V350.371C138.715 352.129 137.227 353.477 135.305 353.477ZM144.363 355.211C144.961 355.211 145.383 354.766 145.383 354.121V347.828C145.383 345.766 146.637 344.406 148.559 344.406C150.434 344.406 151.359 345.484 151.359 347.453V354.121C151.359 354.766 151.781 355.211 152.379 355.211C152.977 355.211 153.398 354.766 153.398 354.121V347.09C153.398 344.324 151.852 342.602 149.18 342.602C147.293 342.602 145.992 343.445 145.312 344.758H145.266V343.633C145.266 343.023 144.867 342.602 144.305 342.602C143.742 342.602 143.344 343.023 143.344 343.633V354.121C143.344 354.766 143.766 355.211 144.363 355.211ZM160.617 355.211C162.527 355.211 163.793 354.273 164.461 352.82H164.496V354.215C164.496 354.812 164.965 355.211 165.539 355.211C166.125 355.211 166.535 354.801 166.535 354.215V338.969C166.535 338.324 166.113 337.879 165.516 337.879C164.918 337.879 164.496 338.324 164.496 338.969V344.793H164.449C163.723 343.457 162.316 342.602 160.57 342.602C157.5 342.602 155.402 345.086 155.402 348.906C155.402 352.727 157.512 355.211 160.617 355.211ZM161.004 353.418C158.848 353.418 157.488 351.672 157.488 348.906C157.488 346.152 158.848 344.395 161.004 344.395C163.102 344.395 164.508 346.188 164.508 348.906C164.508 351.637 163.102 353.418 161.004 353.418Z" fill="black"/>
<g clip-path="url(#clip6_1907_2938)">
<path d="M0 400H32V424H0V400Z" fill="#012169"/>
<path d="M3.75 400L15.95 409.05L28.1 400H32V403.1L20 412.05L32 420.95V424H28L16 415.05L4.05 424H0V421L11.95 412.1L0 403.2V400H3.75Z" fill="white"/>
<path d="M21.2 414.05L32 422V424L18.45 414.05H21.2ZM12 415.05L12.3 416.8L2.7 424H0L12 415.05ZM32 400V400.15L19.55 409.55L19.65 407.35L29.5 400H32ZM0 400L11.95 408.8H8.95L0 402.1V400Z" fill="#C8102E"/>
<path d="M12.05 400V424H20.05V400H12.05ZM0 408V416H32V408H0Z" fill="white"/>
<path d="M0 409.65V414.45H32V409.65H0ZM13.65 400V424H18.45V400H13.65Z" fill="#C8102E"/>
</g>
<path d="M59.5977 421.281C63.793 421.281 66.3125 418.68 66.3125 415.07V405.016C66.3125 404.348 65.9023 403.926 65.2578 403.926C64.6133 403.926 64.2031 404.348 64.2031 405.016V414.93C64.2031 417.484 62.5273 419.336 59.5977 419.336C56.668 419.336 54.9922 417.484 54.9922 414.93V405.016C54.9922 404.348 54.582 403.926 53.9375 403.926C53.293 403.926 52.8828 404.348 52.8828 405.016V415.07C52.8828 418.68 55.4023 421.281 59.5977 421.281ZM70.2969 421.211C70.8945 421.211 71.3164 420.766 71.3164 420.121V413.828C71.3164 411.766 72.5703 410.406 74.4922 410.406C76.3672 410.406 77.293 411.484 77.293 413.453V420.121C77.293 420.766 77.7148 421.211 78.3125 421.211C78.9102 421.211 79.332 420.766 79.332 420.121V413.09C79.332 410.324 77.7852 408.602 75.1133 408.602C73.2266 408.602 71.9258 409.445 71.2461 410.758H71.1992V409.633C71.1992 409.023 70.8008 408.602 70.2383 408.602C69.6758 408.602 69.2773 409.023 69.2773 409.633V420.121C69.2773 420.766 69.6992 421.211 70.2969 421.211ZM83.0586 406.762C83.7617 406.762 84.3359 406.188 84.3359 405.496C84.3359 404.793 83.7617 404.23 83.0586 404.23C82.3672 404.23 81.793 404.793 81.793 405.496C81.793 406.188 82.3672 406.762 83.0586 406.762ZM83.0586 421.211C83.6562 421.211 84.0781 420.766 84.0781 420.121V409.691C84.0781 409.047 83.6562 408.602 83.0586 408.602C82.4609 408.602 82.0391 409.047 82.0391 409.691V420.121C82.0391 420.766 82.4609 421.211 83.0586 421.211ZM87.4883 418.188C87.4883 420.133 88.4727 421.094 90.4414 421.094H90.5703C91.707 421.094 92.0586 420.766 92.0586 420.145C92.0586 419.664 91.7539 419.395 91.0859 419.348L90.9102 419.336C89.8906 419.266 89.5273 418.773 89.5273 417.742V410.488H91.0977C91.6836 410.488 92.0117 410.184 92.0117 409.645C92.0117 409.117 91.6836 408.812 91.0977 408.812H89.5273V406.727C89.5273 406.082 89.1055 405.637 88.5078 405.637C87.9102 405.637 87.4883 406.082 87.4883 406.727V408.812H86.4688C85.8828 408.812 85.5547 409.117 85.5547 409.645C85.5547 410.184 85.8828 410.488 86.4688 410.488H87.4883V418.188ZM98.832 421.211C101.059 421.211 102.77 420.273 103.555 418.621C103.648 418.398 103.707 418.188 103.707 418.023C103.707 417.484 103.344 417.133 102.805 417.133C102.488 417.133 102.254 417.25 102.043 417.543C101.094 418.926 100.203 419.441 98.75 419.441C96.5703 419.441 95.2227 417.918 95.2227 415.457H102.84C103.543 415.457 103.965 415.012 103.965 414.273C103.965 410.934 101.773 408.602 98.6562 408.602C95.293 408.602 93.125 411.109 93.125 414.953C93.125 418.891 95.2344 421.211 98.832 421.211ZM95.2344 413.863C95.3633 411.766 96.7227 410.371 98.6211 410.371C100.508 410.371 101.809 411.754 101.855 413.863H95.2344ZM110.645 421.211C112.555 421.211 113.82 420.273 114.488 418.82H114.523V420.215C114.523 420.812 114.992 421.211 115.566 421.211C116.152 421.211 116.562 420.801 116.562 420.215V404.969C116.562 404.324 116.141 403.879 115.543 403.879C114.945 403.879 114.523 404.324 114.523 404.969V410.793H114.477C113.75 409.457 112.344 408.602 110.598 408.602C107.527 408.602 105.43 411.086 105.43 414.906C105.43 418.727 107.539 421.211 110.645 421.211ZM111.031 419.418C108.875 419.418 107.516 417.672 107.516 414.906C107.516 412.152 108.875 410.395 111.031 410.395C113.129 410.395 114.535 412.188 114.535 414.906C114.535 417.637 113.129 419.418 111.031 419.418ZM125.609 421.164C126.254 421.164 126.664 420.742 126.664 420.074V415.094L128.551 413.078L134.832 420.66C135.137 421.035 135.395 421.176 135.781 421.176C136.355 421.176 136.801 420.73 136.801 420.168C136.801 419.91 136.707 419.641 136.496 419.383L130.016 411.578L135.84 405.543C136.027 405.344 136.121 405.121 136.121 404.875C136.121 404.336 135.723 403.914 135.148 403.914C134.82 403.914 134.586 404.031 134.316 404.324L126.781 412.34H126.664V405.016C126.664 404.348 126.254 403.926 125.609 403.926C124.965 403.926 124.555 404.348 124.555 405.016V420.074C124.555 420.742 124.965 421.164 125.609 421.164ZM140.129 406.762C140.832 406.762 141.406 406.188 141.406 405.496C141.406 404.793 140.832 404.23 140.129 404.23C139.438 404.23 138.863 404.793 138.863 405.496C138.863 406.188 139.438 406.762 140.129 406.762ZM140.129 421.211C140.727 421.211 141.148 420.766 141.148 420.121V409.691C141.148 409.047 140.727 408.602 140.129 408.602C139.531 408.602 139.109 409.047 139.109 409.691V420.121C139.109 420.766 139.531 421.211 140.129 421.211ZM144.922 421.211C145.52 421.211 145.941 420.766 145.941 420.121V413.828C145.941 411.766 147.195 410.406 149.117 410.406C150.992 410.406 151.918 411.484 151.918 413.453V420.121C151.918 420.766 152.34 421.211 152.938 421.211C153.535 421.211 153.957 420.766 153.957 420.121V413.09C153.957 410.324 152.41 408.602 149.738 408.602C147.852 408.602 146.551 409.445 145.871 410.758H145.824V409.633C145.824 409.023 145.426 408.602 144.863 408.602C144.301 408.602 143.902 409.023 143.902 409.633V420.121C143.902 420.766 144.324 421.211 144.922 421.211ZM161.48 425.594C164.949 425.629 167.105 423.66 167.105 420.754V409.656C167.105 409.023 166.672 408.602 166.086 408.602C165.5 408.602 165.066 409.023 165.066 409.656V410.816H165.031C164.223 409.445 162.875 408.602 161.152 408.602C158 408.602 155.961 411.039 155.961 414.859C155.961 418.645 158 421.094 161.105 421.094C162.816 421.094 164.27 420.227 165.02 418.902H165.066V420.824C165.066 422.641 163.742 423.895 161.562 423.859C160.32 423.836 159.465 423.391 158.422 422.242C158.105 421.891 157.906 421.773 157.566 421.773C157.027 421.773 156.652 422.137 156.652 422.652C156.652 422.922 156.723 423.156 156.887 423.414C157.742 424.762 159.441 425.57 161.48 425.594ZM161.516 419.301C159.418 419.301 158.047 417.59 158.047 414.859C158.047 412.129 159.418 410.395 161.516 410.395C163.637 410.395 165.066 412.176 165.066 414.859C165.066 417.543 163.637 419.301 161.516 419.301ZM174.371 421.211C176.281 421.211 177.547 420.273 178.215 418.82H178.25V420.215C178.25 420.812 178.719 421.211 179.293 421.211C179.879 421.211 180.289 420.801 180.289 420.215V404.969C180.289 404.324 179.867 403.879 179.27 403.879C178.672 403.879 178.25 404.324 178.25 404.969V410.793H178.203C177.477 409.457 176.07 408.602 174.324 408.602C171.254 408.602 169.156 411.086 169.156 414.906C169.156 418.727 171.266 421.211 174.371 421.211ZM174.758 419.418C172.602 419.418 171.242 417.672 171.242 414.906C171.242 412.152 172.602 410.395 174.758 410.395C176.855 410.395 178.262 412.188 178.262 414.906C178.262 417.637 176.855 419.418 174.758 419.418ZM188.094 421.211C191.457 421.211 193.73 418.785 193.73 414.906C193.73 411.016 191.457 408.602 188.094 408.602C184.719 408.602 182.445 411.016 182.445 414.906C182.445 418.785 184.719 421.211 188.094 421.211ZM188.094 419.418C185.938 419.418 184.52 417.777 184.52 414.906C184.52 412.035 185.938 410.395 188.094 410.395C190.25 410.395 191.656 412.035 191.656 414.906C191.656 417.777 190.25 419.418 188.094 419.418ZM196.812 421.211C197.434 421.211 197.832 420.742 197.832 420.121V413.359C197.832 411.672 199.004 410.406 200.621 410.406C202.133 410.406 203.117 411.367 203.117 412.832V420.121C203.117 420.742 203.516 421.211 204.137 421.211C204.758 421.211 205.156 420.742 205.156 420.121V413.254C205.156 411.602 206.293 410.406 207.91 410.406C209.516 410.406 210.441 411.391 210.441 413.055V420.121C210.441 420.742 210.84 421.211 211.461 421.211C212.082 421.211 212.48 420.742 212.48 420.121V412.586C212.48 410.172 210.922 408.602 208.508 408.602C206.797 408.602 205.367 409.469 204.688 410.922H204.641C204.113 409.445 202.883 408.602 201.219 408.602C199.578 408.602 198.336 409.469 197.762 410.758H197.715V409.633C197.715 409.023 197.316 408.602 196.754 408.602C196.191 408.602 195.793 409.023 195.793 409.633V420.121C195.793 420.742 196.191 421.211 196.812 421.211Z" fill="black"/>
<g clip-path="url(#clip7_1907_2938)">
<mask id="mask1_1907_2938" style="mask-type:alpha" maskUnits="userSpaceOnUse" x="-1" y="466" width="33" height="24">
<path d="M-0.00146484 466H32.0001V490H-0.00146484V466Z" fill="white"/>
</mask>
<g mask="url(#mask1_1907_2938)">
<path fill-rule="evenodd" clip-rule="evenodd" d="M-4 466H32V490H-4V466Z" fill="#198A00"/>
<path fill-rule="evenodd" clip-rule="evenodd" d="M27.7764 474.625H31.9998V490H27.7764V474.625Z" fill="#EF7D00"/>
<path fill-rule="evenodd" clip-rule="evenodd" d="M23.5576 474.616H27.7764V489.991H23.5576V474.616Z" fill="black"/>
<path fill-rule="evenodd" clip-rule="evenodd" d="M19.2498 474.625H23.5576V490H19.2451L19.2498 474.625Z" fill="#DE2010"/>
<path fill-rule="evenodd" clip-rule="evenodd" d="M29.1691 469.075C29.1691 469.075 30.7629 468.396 30.9129 468.255C30.9832 468.339 30.2754 469.192 28.902 469.506C30.1488 469.216 31.2129 468.288 31.4332 468.316C31.4941 468.33 31.4801 469.221 28.6207 469.994C30.5988 469.478 31.7473 468.522 31.7332 468.625C31.7473 468.649 31.5363 469.375 29.8066 469.942C30.2895 469.83 31.602 469.033 31.5879 469.188C31.6301 469.249 30.3223 470.931 27.9504 470.383C29.8441 470.875 31.0676 469.689 31.241 469.713C31.2785 469.717 30.8941 470.744 28.5129 470.81C29.652 470.692 29.3238 470.805 29.3238 470.805C29.3238 470.805 28.6535 471.33 27.8379 470.974C28.4754 471.147 28.5457 471.156 28.5598 471.208C28.5176 471.283 27.9973 471.386 27.4863 471.114C27.8941 471.283 28.2598 471.311 28.2645 471.372C28.2598 471.391 28.002 471.541 27.7676 471.433C27.5379 471.33 25.4098 470.022 25.4098 470.022L29.0379 469.024L29.1691 469.071V469.075ZM24.9035 472.619C24.5848 472.619 24.5754 472.9 24.5754 472.9C24.5754 472.9 24.552 472.924 24.566 473.06L24.6457 472.938C24.6832 472.942 24.8285 472.985 25.0582 472.806C24.8473 473.027 24.9738 473.106 24.9738 473.106C24.9738 473.106 24.927 473.28 25.0863 473.313C25.0395 473.242 25.0676 473.181 25.0676 473.181C25.0676 473.181 25.2926 473.158 25.2785 472.886C25.2832 473.135 25.4191 473.196 25.4191 473.196C25.4191 473.196 25.4191 473.331 25.5645 473.346C25.4895 473.275 25.5035 473.167 25.5035 473.167C25.5035 473.167 25.691 473.027 25.5363 472.792C25.6301 472.736 25.7098 472.581 25.7098 472.581C25.7098 472.581 25.5785 472.525 25.5176 472.478C25.4895 472.417 25.5176 472.08 25.5176 472.08L25.4332 471.644L25.2082 472.324C25.2176 472.23 25.2223 472.619 24.9035 472.619Z" fill="#EF7D00" stroke="black" stroke-width="0.117188" stroke-linejoin="round"/>
<path fill-rule="evenodd" clip-rule="evenodd" d="M26.4781 471.639C26.4875 471.644 26.7172 471.902 26.9422 471.887C27.0266 471.817 26.7687 471.667 26.7687 471.63C26.8625 471.714 27.2422 472.042 27.4906 471.925C27.5844 471.784 27.3125 471.808 27.0125 471.428C27.2234 471.569 27.7484 471.873 27.9969 471.756C28.0953 471.644 27.4484 471.292 27.2281 471.02L26.6656 470.734L25.9062 471.358L26.4828 471.639H26.4781Z" fill="#EF7D00" stroke="black" stroke-width="0.117188" stroke-linejoin="round"/>
<path fill-rule="evenodd" clip-rule="evenodd" d="M25.6206 469.506C25.6206 469.506 25.8784 469.356 26.9144 469.431C27.0269 469.445 27.6175 469.23 27.8097 469.164C28.1097 469.108 29.0753 468.902 29.3284 468.705C29.5159 468.681 29.2815 469.038 29.0472 469.127C28.8034 469.234 27.9175 469.544 27.5987 469.502C27.9784 469.506 27.7675 469.816 27.1394 469.67C27.4394 469.839 27.3269 469.867 27.3269 469.867C27.3269 469.867 26.7972 469.895 26.6565 469.773C27.0128 469.909 26.8628 469.961 26.8628 469.961C26.8628 469.961 26.5019 469.994 26.3331 469.914C26.5909 469.994 26.4597 470.041 26.4597 470.041C26.4597 470.041 26.2487 470.078 26.0753 470.013C25.8972 469.952 25.6347 469.511 25.6206 469.511V469.506Z" fill="#EF7D00" stroke="black" stroke-width="0.117188" stroke-linecap="round" stroke-linejoin="round"/>
<path fill-rule="evenodd" clip-rule="evenodd" d="M26.0328 471.784L26.0703 472.469L26.0328 472.525C26.0187 472.544 25.55 472.45 25.6109 472.806C25.6109 472.956 25.6109 472.994 25.7141 473.073C25.6906 472.98 25.6953 472.909 25.6953 472.909C25.6953 472.909 25.8312 472.989 25.9578 472.769C25.8687 472.984 25.9297 473.064 25.9531 473.069C25.9719 473.106 25.9156 473.28 26.0937 473.275C26.0234 473.209 26.0562 473.116 26.0562 473.116C26.0562 473.116 26.2437 473.088 26.1781 472.755C26.2437 472.689 26.2719 472.755 26.2719 472.755C26.2719 472.755 26.2906 472.952 26.4547 472.909C26.525 472.952 26.4406 473.059 26.4406 473.059C26.4406 473.059 26.5578 473.059 26.5953 472.966C26.6281 472.863 26.6703 472.684 26.4781 472.609C26.4547 472.539 26.5531 472.534 26.5531 472.534C26.5531 472.534 26.675 472.577 26.7125 472.638C26.75 472.698 26.7359 472.478 26.5812 472.45C26.3937 472.45 26.3844 472.408 26.3844 472.403L26.3375 471.761L26.0328 471.784Z" fill="#EF7D00" stroke="black" stroke-width="0.117188" stroke-linejoin="round"/>
<path fill-rule="evenodd" clip-rule="evenodd" d="M26.6846 472.366C26.6846 472.333 26.3658 471.902 26.4502 471.85C26.5299 471.864 26.6611 472.061 26.7736 471.995C26.7408 471.92 26.6424 471.963 26.5346 471.766C26.4221 471.541 26.408 471.208 26.0189 470.847C26.2721 471.231 26.8346 471.456 26.8627 471.344C26.8908 471.231 26.3611 470.809 26.3892 470.706C26.4924 470.913 27.0174 471.381 27.4017 471.344C27.4299 471.25 27.0877 471.072 26.9986 470.903C26.7502 470.734 26.0892 470.167 26.0799 470.036C25.9636 469.838 25.8051 469.669 25.6158 469.539C25.5984 469.515 25.5857 469.488 25.5783 469.459C25.4283 469.108 25.6252 468.991 25.7424 468.977C25.8361 468.963 25.8642 468.977 25.9299 468.944L25.6908 468.85C25.7986 468.93 26.0658 468.859 26.0096 469.084C26.1267 469.038 26.3799 468.738 25.7236 468.672C25.508 468.428 24.6314 468.288 24.4111 469.356C24.4299 469.37 24.4392 469.384 24.4955 469.422C24.2142 469.291 23.4689 469.188 23.2017 469.141C22.4705 468.934 21.7158 468.428 21.6455 468.489C21.5517 468.536 22.0861 469.033 22.058 469.042C21.6411 468.805 21.2107 468.592 20.7689 468.405C20.4877 468.302 20.2111 468.058 20.183 468.105C20.0799 468.316 20.6283 468.85 20.7314 468.911C20.8346 468.972 21.6361 469.347 21.6221 469.352C20.4127 468.803 20.2158 468.7 20.1502 468.639C20.0424 468.616 19.7846 468.264 19.7142 468.288C19.6721 468.325 19.7517 468.878 20.3283 469.131C20.4221 469.197 21.5658 469.605 21.5564 469.638C21.5564 469.647 20.2439 469.099 20.1971 469.075C19.9439 468.981 19.6346 468.634 19.5783 468.672C19.5221 468.709 19.7189 469.084 19.9721 469.202C20.108 469.258 20.6189 469.511 21.0783 469.67C21.1064 469.684 20.2486 469.347 19.8361 469.178C19.6486 469.075 19.5642 468.944 19.5361 468.972C19.4892 469 19.6017 469.553 20.9283 469.863C20.9611 469.881 21.3971 469.764 21.3736 469.778C21.1302 469.839 20.8827 469.883 20.633 469.909C20.6189 469.947 20.7174 470.144 21.4017 470.106C21.4861 470.102 21.9642 469.933 21.9221 469.966C21.6943 470.053 21.4629 470.129 21.2283 470.195C21.1861 470.195 20.9658 470.224 20.9564 470.242C20.9471 470.28 21.1205 470.42 21.4861 470.439C21.8142 470.458 22.433 470.242 22.4236 470.256C22.4049 470.27 21.8236 470.472 21.8096 470.481C21.7861 470.495 21.5752 470.505 21.5658 470.524C21.5471 470.566 21.8752 470.87 22.8361 470.542C22.7424 470.674 22.2736 470.763 22.2736 470.786C22.2736 470.805 22.3767 470.903 22.5408 470.941C22.6205 470.959 22.733 470.955 22.8361 470.941C23.0236 470.903 23.2111 470.833 23.4596 470.603C23.4877 470.674 22.8455 471.002 22.8736 471.03C23.0142 471.161 23.4783 471.016 23.5064 470.997C23.5392 470.983 24.3971 470.495 24.3971 470.434C24.4111 470.509 23.2861 471.124 23.3002 471.147C23.3705 471.259 23.7549 471.142 23.7689 471.128L24.2752 470.856C24.2892 470.852 23.7221 471.184 23.7689 471.241C23.7455 471.461 24.6596 471.091 24.7299 471.044C24.7627 471.02 24.2892 471.25 24.2892 471.358C24.4439 471.616 24.9314 471.536 25.0064 471.48C25.0439 471.452 24.9596 471.667 24.9877 471.649C25.0453 471.59 25.0928 471.521 25.1283 471.447C25.1189 471.522 25.0627 471.634 25.0346 471.766C25.0017 471.892 24.9924 472.042 24.9502 472.197C24.9408 472.263 25.2502 472.061 25.2033 471.578C25.2314 471.831 25.1096 472.3 25.1424 472.328C25.2033 472.375 25.3861 472.094 25.4049 471.902C25.4564 471.995 25.5689 472.197 25.6674 472.244C25.658 472.099 25.6674 472.103 25.6205 471.963C25.6486 471.77 25.6533 471.508 25.658 471.208C25.9205 471.709 26.0283 471.925 25.9533 472.309C26.033 472.342 26.1549 472.038 26.1455 471.888C26.1748 472.013 26.2424 472.127 26.339 472.212C26.4355 472.298 26.5563 472.352 26.6846 472.366Z" fill="#EF7D00" stroke="black" stroke-width="0.128906" stroke-linecap="round" stroke-linejoin="round"/>
<path fill-rule="evenodd" clip-rule="evenodd" d="M22.3157 469.174C22.3157 469.174 22.1329 469.31 21.9126 469.3C21.9688 469.525 22.4282 469.352 22.4282 469.352C22.4282 469.352 22.2079 469.6 22.0485 469.638C22.1423 469.717 22.5454 469.689 22.611 469.652C22.6767 469.61 22.7985 469.455 22.7985 469.455C22.7985 469.455 22.386 469.933 22.3298 469.928C22.3157 469.985 22.7563 469.966 22.8454 469.881C22.9392 469.797 23.1735 469.675 23.1735 469.675C23.1735 469.675 22.5642 470.097 22.5407 470.097C22.7657 470.153 23.2204 470.022 23.511 469.844C23.0798 470.13 23.0423 470.181 22.822 470.28C23.0188 470.322 23.1173 470.453 23.7735 470.167C24.1485 469.989 24.3642 469.661 24.3642 469.661C24.078 469.999 23.7354 470.284 23.3517 470.505C23.3282 470.552 23.7923 470.749 24.3782 470.135" fill="#EF7D00"/>
<path d="M22.3157 469.174C22.3157 469.174 22.1329 469.31 21.9126 469.3C21.9688 469.525 22.4282 469.352 22.4282 469.352C22.4282 469.352 22.2079 469.6 22.0485 469.638C22.1423 469.717 22.5454 469.689 22.611 469.652C22.6767 469.61 22.7985 469.455 22.7985 469.455C22.7985 469.455 22.386 469.933 22.3298 469.928C22.3157 469.985 22.7563 469.966 22.8454 469.881C22.9392 469.797 23.1735 469.675 23.1735 469.675C23.1735 469.675 22.5642 470.097 22.5407 470.097C22.7657 470.153 23.2204 470.022 23.511 469.844C23.0798 470.13 23.0423 470.181 22.822 470.28C23.0188 470.322 23.1173 470.453 23.7735 470.167C24.1485 469.989 24.3642 469.661 24.3642 469.661C24.078 469.999 23.7354 470.284 23.3517 470.505C23.3282 470.552 23.7923 470.749 24.3782 470.135" stroke="black" stroke-width="0.128906" stroke-linecap="round" stroke-linejoin="round"/>
<path fill-rule="evenodd" clip-rule="evenodd" d="M25.5032 470.5C25.5032 470.5 25.5454 470.688 25.7048 470.828C25.8642 470.969 25.8735 471.109 25.8735 471.109M25.4282 469.281C25.4282 469.281 25.4798 469.455 25.6438 469.562C25.8126 469.666 26.0657 470.003 26.0798 470.064C26.0985 470.134 26.197 470.655 26.1876 470.711M24.4157 469.539C24.4251 469.609 24.1813 469.928 24.5188 470.308C24.2095 470.683 24.2095 470.73 24.2095 470.73C24.2095 470.73 24.3829 470.823 24.6876 470.561C25.1938 471.18 25.0251 471.461 25.0251 471.461" fill="#EF7D00"/>
<path d="M25.5032 470.5C25.5032 470.5 25.5454 470.688 25.7048 470.828C25.8642 470.969 25.8735 471.109 25.8735 471.109M25.4282 469.281C25.4282 469.281 25.4798 469.455 25.6438 469.562C25.8126 469.666 26.0657 470.003 26.0798 470.064C26.0985 470.134 26.197 470.655 26.1876 470.711M24.4157 469.539C24.4251 469.609 24.1813 469.928 24.5188 470.308C24.2095 470.683 24.2095 470.73 24.2095 470.73C24.2095 470.73 24.3829 470.823 24.6876 470.561C25.1938 471.18 25.0251 471.461 25.0251 471.461" stroke="black" stroke-width="0.128906" stroke-linecap="round"/>
<path fill-rule="evenodd" clip-rule="evenodd" d="M24.9832 471.025C24.9832 471.025 24.9363 470.959 25.0207 470.711C25.0957 470.805 25.1801 470.819 25.2129 470.852C25.2504 470.894 25.6348 470.945 25.6535 471.203" fill="#EF7D00"/>
<path d="M24.9832 471.025C24.9832 471.025 24.9363 470.959 25.0207 470.711C25.0957 470.805 25.1801 470.819 25.2129 470.852C25.2504 470.894 25.6348 470.945 25.6535 471.203" stroke="black" stroke-width="0.128906" stroke-linecap="round" stroke-linejoin="round"/>
<path fill-rule="evenodd" clip-rule="evenodd" d="M25.433 468.695C25.433 468.677 25.3533 468.508 25.0674 468.714C25.2221 468.723 25.3721 468.813 25.433 468.695Z" fill="#EF7D00" stroke="black" stroke-width="0.128906"/>
<path fill-rule="evenodd" clip-rule="evenodd" d="M28.1613 469.445C28.1754 469.455 29.0145 469.633 29.2957 469.544C28.9395 470.022 28.2223 469.698 28.2223 469.698C28.5738 469.802 28.5879 469.792 28.7004 469.895C28.7379 469.989 28.0535 469.942 27.8332 469.816C28.4566 470.013 28.4707 470.003 28.4895 470.073C28.5176 470.181 27.4676 470.045 27.3785 469.909C27.6598 470.125 27.8098 470.167 27.9645 470.266C27.777 470.35 27.4254 470.434 26.7832 469.98C27.627 470.748 28.391 470.702 28.5129 470.837C28.2176 471.273 27.0738 470.58 26.5488 470.228C26.0238 469.877 27.6973 471.077 27.852 471.058C27.777 471.175 27.2238 471.072 27.1863 471.011" fill="#EF7D00"/>
<path d="M28.1613 469.445C28.1754 469.455 29.0145 469.633 29.2957 469.544C28.9395 470.022 28.2223 469.698 28.2223 469.698C28.5738 469.802 28.5879 469.792 28.7004 469.895C28.7379 469.989 28.0535 469.942 27.8332 469.816C28.4566 470.013 28.4707 470.003 28.4895 470.073C28.5176 470.181 27.4676 470.045 27.3785 469.909C27.6598 470.125 27.8098 470.167 27.9645 470.266C27.777 470.35 27.4254 470.434 26.7832 469.98C27.627 470.748 28.391 470.702 28.5129 470.837C28.2176 471.273 27.0738 470.58 26.5488 470.228C26.0238 469.877 27.6973 471.077 27.852 471.058C27.777 471.175 27.2238 471.072 27.1863 471.011" stroke="black" stroke-width="0.128906" stroke-linejoin="round"/>
<path fill-rule="evenodd" clip-rule="evenodd" d="M28.3766 470.252C28.2828 470.266 27.9875 470.266 27.9453 470.256L28.3766 470.252Z" fill="#EF7D00"/>
<path d="M28.3766 470.252C28.2828 470.266 27.9875 470.266 27.9453 470.256" stroke="black" stroke-width="0.128906" stroke-linecap="round"/>
<path fill-rule="evenodd" clip-rule="evenodd" d="M22.0674 469.047C22.0674 469.047 22.7049 469.384 22.9768 469.361C22.9249 469.405 22.8641 469.437 22.7986 469.455C22.8643 469.483 23.0518 469.581 23.333 469.52L23.1783 469.661C23.1783 469.661 23.4221 469.755 23.6939 469.614C23.6473 469.67 23.6035 469.728 23.5627 469.788L23.7549 469.802" fill="#EF7D00"/>
<path d="M22.0674 469.047C22.0674 469.047 22.7049 469.384 22.9768 469.361C22.9249 469.405 22.8641 469.437 22.7986 469.455C22.8643 469.483 23.0518 469.581 23.333 469.52L23.1783 469.661C23.1783 469.661 23.4221 469.755 23.6939 469.614C23.6473 469.67 23.6035 469.728 23.5627 469.788L23.7549 469.802" stroke="black" stroke-width="0.128906" stroke-linecap="round" stroke-linejoin="round"/>
</g>
</g>
<path d="M53.5586 487H64.1172C64.7148 487 65.125 486.613 65.125 486.051C65.125 485.488 64.7148 485.102 64.1172 485.102H55.1523V485.02L64.375 472.117C64.668 471.695 64.75 471.496 64.75 471.168C64.75 470.523 64.293 470.09 63.6016 470.09H53.6055C53.0078 470.09 52.5977 470.477 52.5977 471.039C52.5977 471.602 53.0078 471.988 53.6055 471.988H62.0898V472.07L52.8203 484.973C52.5508 485.359 52.4453 485.617 52.4453 485.934C52.4453 486.578 52.8906 487 53.5586 487ZM70.9844 487.211C72.625 487.211 74.1836 486.297 74.9102 484.902H74.957V486.18C74.957 486.789 75.3555 487.211 75.9297 487.211C76.4922 487.211 76.8906 486.789 76.8906 486.18V478.574C76.8906 476.148 75.0859 474.602 72.2266 474.602C70.2461 474.602 68.4648 475.48 67.7734 476.816C67.6094 477.109 67.5273 477.402 67.5273 477.66C67.5273 478.211 67.9023 478.574 68.4297 478.574C68.8164 478.574 69.0859 478.422 69.2734 478.082C69.9531 476.875 70.8555 476.395 72.1797 476.395C73.8672 476.395 74.8516 477.285 74.8516 478.773V479.793L71.3477 479.992C68.5352 480.156 66.9297 481.469 66.9297 483.555C66.9297 485.746 68.5586 487.211 70.9844 487.211ZM71.4414 485.477C69.9766 485.477 69.0039 484.715 69.0039 483.555C69.0039 482.406 69.9414 481.68 71.582 481.574L74.8516 481.375V482.371C74.8516 484.129 73.3633 485.477 71.4414 485.477ZM80.5 487.211C81.1211 487.211 81.5195 486.742 81.5195 486.121V479.359C81.5195 477.672 82.6914 476.406 84.3086 476.406C85.8203 476.406 86.8047 477.367 86.8047 478.832V486.121C86.8047 486.742 87.2031 487.211 87.8242 487.211C88.4453 487.211 88.8438 486.742 88.8438 486.121V479.254C88.8438 477.602 89.9805 476.406 91.5977 476.406C93.2031 476.406 94.1289 477.391 94.1289 479.055V486.121C94.1289 486.742 94.5273 487.211 95.1484 487.211C95.7695 487.211 96.168 486.742 96.168 486.121V478.586C96.168 476.172 94.6094 474.602 92.1953 474.602C90.4844 474.602 89.0547 475.469 88.375 476.922H88.3281C87.8008 475.445 86.5703 474.602 84.9062 474.602C83.2656 474.602 82.0234 475.469 81.4492 476.758H81.4023V475.633C81.4023 475.023 81.0039 474.602 80.4414 474.602C79.8789 474.602 79.4805 475.023 79.4805 475.633V486.121C79.4805 486.742 79.8789 487.211 80.5 487.211ZM99.8242 487.211C100.41 487.211 100.82 486.801 100.82 486.215V484.938H100.867C101.664 486.344 103.059 487.211 104.84 487.211C107.957 487.211 110.02 484.738 110.02 480.906C110.02 477.086 107.945 474.602 104.875 474.602C103.152 474.602 101.734 475.457 100.961 476.852H100.914V470.969C100.914 470.324 100.492 469.879 99.8945 469.879C99.2969 469.879 98.875 470.324 98.875 470.969V486.215C98.875 486.812 99.25 487.211 99.8242 487.211ZM104.441 485.418C102.379 485.418 100.902 483.625 100.902 480.906C100.902 478.199 102.379 476.395 104.441 476.395C106.598 476.395 107.934 478.141 107.934 480.906C107.934 483.695 106.598 485.418 104.441 485.418ZM113.207 472.762C113.91 472.762 114.484 472.188 114.484 471.496C114.484 470.793 113.91 470.23 113.207 470.23C112.516 470.23 111.941 470.793 111.941 471.496C111.941 472.188 112.516 472.762 113.207 472.762ZM113.207 487.211C113.805 487.211 114.227 486.766 114.227 486.121V475.691C114.227 475.047 113.805 474.602 113.207 474.602C112.609 474.602 112.188 475.047 112.188 475.691V486.121C112.188 486.766 112.609 487.211 113.207 487.211ZM120.531 487.211C122.172 487.211 123.73 486.297 124.457 484.902H124.504V486.18C124.504 486.789 124.902 487.211 125.477 487.211C126.039 487.211 126.438 486.789 126.438 486.18V478.574C126.438 476.148 124.633 474.602 121.773 474.602C119.793 474.602 118.012 475.48 117.32 476.816C117.156 477.109 117.074 477.402 117.074 477.66C117.074 478.211 117.449 478.574 117.977 478.574C118.363 478.574 118.633 478.422 118.82 478.082C119.5 476.875 120.402 476.395 121.727 476.395C123.414 476.395 124.398 477.285 124.398 478.773V479.793L120.895 479.992C118.082 480.156 116.477 481.469 116.477 483.555C116.477 485.746 118.105 487.211 120.531 487.211ZM120.988 485.477C119.523 485.477 118.551 484.715 118.551 483.555C118.551 482.406 119.488 481.68 121.129 481.574L124.398 481.375V482.371C124.398 484.129 122.91 485.477 120.988 485.477Z" fill="black"/>
<defs>
<clipPath id="clip0_1907_2938">
<rect width="32" height="24" fill="white" transform="translate(0 4)"/>
</clipPath>
<clipPath id="clip1_1907_2938">
<rect width="32" height="24" fill="white" transform="translate(0 70)"/>
</clipPath>
<clipPath id="clip2_1907_2938">
<rect width="32" height="24" fill="white" transform="translate(0 136)"/>
</clipPath>
<clipPath id="clip3_1907_2938">
<rect width="32" height="24" fill="white" transform="translate(0 202)"/>
</clipPath>
<clipPath id="clip4_1907_2938">
<rect width="32" height="24" fill="white" transform="translate(0 268)"/>
</clipPath>
<clipPath id="clip5_1907_2938">
<rect width="32" height="24" fill="white" transform="translate(0 334)"/>
</clipPath>
<clipPath id="clip6_1907_2938">
<rect width="32" height="24" fill="white" transform="translate(0 400)"/>
</clipPath>
<clipPath id="clip7_1907_2938">
<rect width="32" height="24" fill="white" transform="translate(0 466)"/>
</clipPath>
</defs>
</svg>
