<svg width="263" height="494" viewBox="0 0 263 494" fill="none" xmlns="http://www.w3.org/2000/svg">
<path fill-rule="evenodd" clip-rule="evenodd" d="M0 202H32V226H0V202Z" fill="#F41408"/>
<path fill-rule="evenodd" clip-rule="evenodd" d="M0 218H32V226H0V218Z" fill="#21873B"/>
<path fill-rule="evenodd" clip-rule="evenodd" d="M0 202H32V210H0V202Z" fill="black"/>
<path fill-rule="evenodd" clip-rule="evenodd" d="M11.025 209.05C12.14 206.59 15.25 205.41 17.965 206.425C18.6022 206.641 19.1883 206.985 19.6871 207.437C20.1859 207.888 20.5868 208.437 20.865 209.05H11.025ZM9.72502 209.37C8.8427 209.31 7.96659 209.179 7.10502 208.98C6.90002 208.915 6.89002 208.8 6.91502 208.715C6.94002 208.63 7.07002 208.535 7.22502 208.565C7.50502 208.635 8.66502 208.915 9.72502 209.37ZM15.955 205.075C15.745 204.025 15.695 202.875 15.715 202.675C15.735 202.48 15.85 202.45 15.95 202.45C16.05 202.45 16.185 202.54 16.185 202.685C16.185 202.95 16.18 204.035 15.955 205.085V205.075ZM16.535 205.1C16.4521 204.299 16.4471 203.492 16.52 202.69C16.56 202.495 16.68 202.47 16.775 202.48C16.875 202.485 17 202.585 16.985 202.73C16.96 202.995 16.855 204.075 16.535 205.1ZM17.055 205.165C17.045 204.1 17.205 202.95 17.26 202.765C17.315 202.57 17.44 202.555 17.535 202.57C17.635 202.585 17.75 202.695 17.725 202.835C17.675 203.1 17.465 204.165 17.055 205.165ZM17.605 205.275C17.695 204.215 17.97 203.085 18.045 202.9C18.12 202.715 18.245 202.71 18.335 202.73C18.435 202.755 18.535 202.87 18.5 203.01C18.42 203.265 18.115 204.31 17.61 205.275H17.605ZM18.15 205.435C18.345 204.385 18.725 203.28 18.815 203.1C18.91 202.925 19.03 202.925 19.125 202.955C19.215 202.985 19.31 203.115 19.26 203.245C18.9589 204.008 18.5873 204.741 18.15 205.435ZM18.655 205.625C18.945 204.59 19.43 203.525 19.54 203.35C19.65 203.18 19.77 203.195 19.86 203.235C19.95 203.27 20.03 203.405 19.965 203.535C19.84 203.775 19.34 204.755 18.655 205.625ZM19.155 205.86C19.4524 205.096 19.8207 204.361 20.255 203.665C20.375 203.505 20.5 203.53 20.585 203.575C20.6102 203.59 20.6321 203.61 20.6496 203.633C20.667 203.657 20.6796 203.683 20.6865 203.712C20.6935 203.74 20.6948 203.77 20.6902 203.799C20.6857 203.827 20.6754 203.855 20.66 203.88C20.51 204.11 19.915 205.05 19.155 205.86ZM19.625 206.135C20.11 205.165 20.79 204.185 20.93 204.035C21.07 203.885 21.19 203.92 21.27 203.97C21.2939 203.987 21.3141 204.008 21.3296 204.033C21.3451 204.058 21.3554 204.086 21.3601 204.114C21.3647 204.143 21.3636 204.173 21.3567 204.201C21.3498 204.23 21.3374 204.256 21.32 204.28C21.145 204.5 20.46 205.385 19.62 206.13L19.625 206.135ZM20.065 206.445C20.645 205.515 21.415 204.595 21.57 204.46C21.72 204.32 21.84 204.36 21.915 204.42C21.9369 204.439 21.9547 204.462 21.9673 204.488C21.98 204.514 21.9872 204.543 21.9886 204.572C21.99 204.601 21.9856 204.63 21.9755 204.657C21.9654 204.684 21.95 204.709 21.93 204.73C21.74 204.935 20.975 205.765 20.065 206.445ZM20.48 206.79C20.9873 206.121 21.5528 205.499 22.17 204.93C22.335 204.805 22.445 204.855 22.515 204.915C22.5358 204.936 22.5519 204.961 22.5624 204.989C22.573 205.017 22.5777 205.046 22.5763 205.076C22.5749 205.105 22.5674 205.134 22.5543 205.161C22.5411 205.187 22.5227 205.211 22.5 205.23C22.295 205.42 21.45 206.185 20.48 206.79ZM20.86 207.165C21.4267 206.538 22.0493 205.964 22.72 205.45C22.9 205.335 23.005 205.395 23.07 205.465C23.13 205.53 23.145 205.685 23.02 205.775C22.3403 206.298 21.6177 206.763 20.86 207.165ZM21.185 207.555C21.8102 206.973 22.4843 206.446 23.2 205.98C23.385 205.88 23.485 205.95 23.54 206.025C23.6 206.095 23.595 206.25 23.47 206.33C23.23 206.48 22.255 207.11 21.185 207.555ZM21.48 207.97C22.1562 207.442 22.8754 206.972 23.63 206.565C23.83 206.48 23.925 206.555 23.975 206.63C24.025 206.71 24.005 206.86 23.875 206.93C23.1047 207.341 22.302 207.689 21.475 207.97H21.48ZM21.75 208.45C22.4783 207.981 23.2443 207.573 24.04 207.23C24.245 207.16 24.33 207.245 24.37 207.325C24.415 207.405 24.385 207.555 24.24 207.615C23.975 207.725 22.89 208.185 21.75 208.45ZM21.96 208.91C22.7303 208.498 23.533 208.151 24.36 207.87C24.57 207.82 24.645 207.91 24.68 207.995C24.71 208.075 24.665 208.225 24.52 208.27C24.245 208.365 23.12 208.735 21.96 208.91ZM22.13 209.4C22.9358 209.051 23.7685 208.769 24.62 208.555C24.83 208.525 24.9 208.615 24.925 208.705C24.95 208.79 24.89 208.93 24.74 208.97C24.455 209.035 23.3 209.32 22.13 209.4ZM15.39 205.1C15.1528 204.327 14.9904 203.534 14.905 202.73C14.905 202.535 15.02 202.49 15.115 202.48C15.215 202.475 15.365 202.555 15.375 202.695C15.4 202.96 15.505 204.04 15.395 205.1H15.39ZM14.84 205.165C14.5273 204.417 14.2878 203.64 14.125 202.845C14.105 202.645 14.215 202.595 14.31 202.58C14.41 202.565 14.56 202.63 14.59 202.77C14.7464 203.559 14.8301 204.361 14.84 205.165ZM14.29 205.275C13.906 204.553 13.5913 203.796 13.35 203.015C13.31 202.82 13.415 202.76 13.51 202.735C13.605 202.715 13.76 202.765 13.805 202.905C13.88 203.16 14.19 204.205 14.285 205.27L14.29 205.275ZM13.765 205.425C13.3183 204.737 12.9366 204.009 12.625 203.25C12.57 203.06 12.665 202.99 12.755 202.96C12.85 202.93 13.01 202.97 13.065 203.1C13.165 203.35 13.575 204.37 13.765 205.42V205.425ZM13.26 205.6C12.7475 204.951 12.2956 204.256 11.91 203.525C11.84 203.34 11.93 203.26 12.02 203.225C12.11 203.185 12.27 203.215 12.34 203.345C12.465 203.585 12.965 204.57 13.26 205.6ZM12.745 205.85C12.1701 205.245 11.6513 204.589 11.195 203.89C11.11 203.715 11.19 203.63 11.275 203.585C11.36 203.54 11.525 203.555 11.605 203.68C11.755 203.91 12.355 204.845 12.745 205.85ZM12.275 206.12C11.647 205.56 11.0698 204.946 10.55 204.285C10.445 204.115 10.515 204.025 10.6 203.97C10.675 203.92 10.85 203.92 10.935 204.04C11.105 204.255 11.79 205.14 12.275 206.115V206.12ZM11.84 206.42C11.1603 205.911 10.5262 205.344 9.94502 204.725C9.82502 204.565 9.89002 204.475 9.96502 204.415C10.0179 204.382 10.0803 204.368 10.142 204.376C10.2038 204.383 10.2612 204.411 10.305 204.455C10.495 204.655 11.265 205.49 11.84 206.42ZM11.415 206.77C10.689 206.318 10.0032 205.804 9.36502 205.235C9.22502 205.085 9.28002 204.985 9.35002 204.92C9.40059 204.883 9.4624 204.864 9.52517 204.867C9.58794 204.869 9.64788 204.893 9.69502 204.935C9.90502 205.12 10.745 205.885 11.415 206.765V206.77ZM11.045 207.12C10.2795 206.725 9.54858 206.267 8.86002 205.75C8.71002 205.61 8.75502 205.51 8.82002 205.44C8.88002 205.37 9.04502 205.335 9.16502 205.425C9.83979 205.936 10.4688 206.505 11.045 207.125V207.12ZM10.695 207.53C9.89337 207.198 9.1207 206.8 8.38502 206.34C8.22002 206.215 8.25502 206.105 8.31002 206.035C8.36502 205.96 8.52502 205.91 8.65502 205.99C8.89502 206.145 9.87002 206.765 10.695 207.53ZM10.38 207.97C9.27002 207.62 8.13502 207.09 7.96002 206.975C7.78002 206.865 7.81002 206.755 7.85502 206.675C7.90002 206.595 8.05502 206.535 8.19502 206.605C8.44502 206.74 9.48502 207.28 10.38 207.97ZM10.115 208.42C8.97502 208.155 7.80002 207.72 7.61002 207.62C7.42502 207.52 7.43502 207.41 7.48002 207.33C7.52002 207.25 7.66502 207.175 7.81002 207.23C8.07502 207.345 9.16002 207.8 10.115 208.42ZM9.90502 208.87C9.03337 208.736 8.17393 208.532 7.33502 208.26C7.13502 208.18 7.14502 208.065 7.17502 207.985C7.21002 207.9 7.35002 207.815 7.49502 207.86C7.77502 207.955 8.89502 208.325 9.90502 208.87Z" fill="#F31509"/>
<path fill-rule="evenodd" clip-rule="evenodd" d="M9.72502 209.37C8.84271 209.31 7.96659 209.179 7.10502 208.98C6.90002 208.915 6.89002 208.8 6.91502 208.715C6.94002 208.63 7.07002 208.535 7.22502 208.565C7.50502 208.635 8.66502 208.915 9.72502 209.37Z" fill="#F31509"/>
<path fill-rule="evenodd" clip-rule="evenodd" d="M6.47021 209.075H25.5302V209.705H6.47021V209.075Z" fill="black"/>
<path d="M53.793 223.164C54.4023 223.164 54.7773 222.777 54.7773 222.145V209.969H54.8594L59.875 221.992C60.1328 222.602 60.5312 222.883 61.1406 222.883C61.75 222.883 62.1367 222.602 62.4062 221.969L67.4219 209.969H67.5039V222.145C67.5039 222.777 67.8789 223.164 68.4883 223.164C69.0977 223.164 69.4727 222.777 69.4727 222.145V207.238C69.4727 206.441 68.9453 205.926 68.1484 205.926C67.4219 205.926 66.9648 206.277 66.6367 207.051L61.1875 220.199H61.0938L55.6328 207.051C55.3047 206.266 54.8711 205.926 54.1562 205.926C53.3477 205.926 52.8086 206.453 52.8086 207.238V222.145C52.8086 222.777 53.1836 223.164 53.793 223.164ZM75.6367 223.211C77.2773 223.211 78.8359 222.297 79.5625 220.902H79.6094V222.18C79.6094 222.789 80.0078 223.211 80.582 223.211C81.1445 223.211 81.543 222.789 81.543 222.18V214.574C81.543 212.148 79.7383 210.602 76.8789 210.602C74.8984 210.602 73.1172 211.48 72.4258 212.816C72.2617 213.109 72.1797 213.402 72.1797 213.66C72.1797 214.211 72.5547 214.574 73.082 214.574C73.4688 214.574 73.7383 214.422 73.9258 214.082C74.6055 212.875 75.5078 212.395 76.832 212.395C78.5195 212.395 79.5039 213.285 79.5039 214.773V215.793L76 215.992C73.1875 216.156 71.582 217.469 71.582 219.555C71.582 221.746 73.2109 223.211 75.6367 223.211ZM76.0938 221.477C74.6289 221.477 73.6562 220.715 73.6562 219.555C73.6562 218.406 74.5938 217.68 76.2344 217.574L79.5039 217.375V218.371C79.5039 220.129 78.0156 221.477 76.0938 221.477ZM85.2578 223.211C85.8555 223.211 86.2773 222.766 86.2773 222.121V206.969C86.2773 206.324 85.8555 205.879 85.2578 205.879C84.6602 205.879 84.2383 206.324 84.2383 206.969V222.121C84.2383 222.766 84.6602 223.211 85.2578 223.211ZM92.582 223.211C94.2227 223.211 95.7812 222.297 96.5078 220.902H96.5547V222.18C96.5547 222.789 96.9531 223.211 97.5273 223.211C98.0898 223.211 98.4883 222.789 98.4883 222.18V214.574C98.4883 212.148 96.6836 210.602 93.8242 210.602C91.8438 210.602 90.0625 211.48 89.3711 212.816C89.207 213.109 89.125 213.402 89.125 213.66C89.125 214.211 89.5 214.574 90.0273 214.574C90.4141 214.574 90.6836 214.422 90.8711 214.082C91.5508 212.875 92.4531 212.395 93.7773 212.395C95.4648 212.395 96.4492 213.285 96.4492 214.773V215.793L92.9453 215.992C90.1328 216.156 88.5273 217.469 88.5273 219.555C88.5273 221.746 90.1562 223.211 92.582 223.211ZM93.0391 221.477C91.5742 221.477 90.6016 220.715 90.6016 219.555C90.6016 218.406 91.5391 217.68 93.1797 217.574L96.4492 217.375V218.371C96.4492 220.129 94.9609 221.477 93.0391 221.477ZM104.512 223.211C105.156 223.211 105.602 222.871 105.789 222.227L108.309 213.566H108.355L110.887 222.227C111.086 222.918 111.473 223.211 112.152 223.211C112.785 223.211 113.207 222.883 113.395 222.227L116.371 212.008C116.43 211.809 116.453 211.633 116.453 211.48C116.453 210.941 116.066 210.602 115.457 210.602C114.953 210.602 114.684 210.836 114.531 211.434L112.129 220.727H112.082L109.504 211.504C109.34 210.906 108.953 210.602 108.344 210.602C107.723 210.602 107.312 210.918 107.148 211.516L104.594 220.727H104.547L102.145 211.434C101.992 210.836 101.723 210.602 101.219 210.602C100.609 210.602 100.223 210.941 100.223 211.48C100.223 211.633 100.246 211.809 100.305 212.008L103.281 222.227C103.48 222.906 103.867 223.211 104.512 223.211ZM119.383 208.762C120.086 208.762 120.66 208.188 120.66 207.496C120.66 206.793 120.086 206.23 119.383 206.23C118.691 206.23 118.117 206.793 118.117 207.496C118.117 208.188 118.691 208.762 119.383 208.762ZM119.383 223.211C119.98 223.211 120.402 222.766 120.402 222.121V211.691C120.402 211.047 119.98 210.602 119.383 210.602C118.785 210.602 118.363 211.047 118.363 211.691V222.121C118.363 222.766 118.785 223.211 119.383 223.211Z" fill="black"/>
<mask id="mask0_1907_2937" style="mask-type:alpha" maskUnits="userSpaceOnUse" x="0" y="334" width="33" height="24">
<path d="M0 334H32.0016V358H0V334Z" fill="white"/>
</mask>
<g mask="url(#mask0_1907_2937)">
<path fill-rule="evenodd" clip-rule="evenodd" d="M0 334H32.0062V358H0V334Z" fill="white"/>
<path fill-rule="evenodd" clip-rule="evenodd" d="M3.50781 341.289L6.83688 336.297L7.66883 336.852L4.33977 341.844L3.50781 341.289ZM4.75574 342.121L8.08481 337.129L8.91677 337.684L5.5877 342.676L4.75574 342.121ZM6.00368 342.953L9.33274 337.962L10.1647 338.516L6.83563 343.508L6.00368 342.953Z" fill="black"/>
<path fill-rule="evenodd" clip-rule="evenodd" d="M3.50781 341.289L6.83688 336.297L7.66883 336.852L4.33977 341.844L3.50781 341.289ZM4.75574 342.121L8.08481 337.129L8.91677 337.684L5.5877 342.676L4.75574 342.121ZM6.00368 342.953L9.33274 337.962L10.1647 338.516L6.83563 343.508L6.00368 342.953Z" fill="black"/>
<path fill-rule="evenodd" clip-rule="evenodd" d="M23.0596 350.722L27.2193 353.496L23.0596 350.722Z" fill="black"/>
<path d="M23.0596 350.722L27.2193 353.496" stroke="white" stroke-width="1.25"/>
<path fill-rule="evenodd" clip-rule="evenodd" d="M10.9961 342.677C11.879 341.353 13.2517 340.434 14.8121 340.122C16.3726 339.81 17.993 340.131 19.3169 341.014C20.6408 341.897 21.5597 343.27 21.8715 344.83C22.1833 346.391 21.8625 348.011 20.9795 349.335L10.9961 342.677Z" fill="#CD2E3A"/>
<path fill-rule="evenodd" clip-rule="evenodd" d="M10.9961 342.677C10.1131 344.001 9.79229 345.621 10.1041 347.181C10.4159 348.742 11.3348 350.115 12.6587 350.998C13.9826 351.88 15.603 352.201 17.1635 351.889C18.7239 351.578 20.0966 350.659 20.9795 349.335C21.421 348.673 21.5814 347.863 21.4255 347.082C21.2696 346.302 20.8101 345.616 20.1482 345.174C19.4862 344.733 18.676 344.573 17.8958 344.728C17.1156 344.884 16.4292 345.344 15.9878 346.006L10.9961 342.677Z" fill="#0047A0"/>
<path d="M15.9878 346.006C16.9071 344.627 16.5349 342.765 15.1565 341.845C13.778 340.926 11.9154 341.298 10.9961 342.677C10.0768 344.055 10.449 345.918 11.8274 346.837C13.2058 347.756 15.0685 347.384 15.9878 346.006Z" fill="#CD2E3A"/>
<path fill-rule="evenodd" clip-rule="evenodd" d="M6.84912 355.718L3.52005 350.727L4.35201 350.172L7.68108 355.163L6.84912 355.718ZM8.09705 354.886L4.76798 349.894L5.59994 349.339L8.92901 354.331L8.09705 354.886ZM9.34498 354.054L6.01592 349.062L6.84787 348.507L10.1769 353.499L9.34498 354.054Z" fill="black"/>
<path fill-rule="evenodd" clip-rule="evenodd" d="M6.84912 355.718L3.52005 350.727L4.35201 350.172L7.68108 355.163L6.84912 355.718ZM8.09705 354.886L4.76798 349.894L5.59994 349.339L8.92901 354.331L8.09705 354.886ZM9.34498 354.054L6.01592 349.062L6.84787 348.507L10.1769 353.499L9.34498 354.054Z" fill="black"/>
<path fill-rule="evenodd" clip-rule="evenodd" d="M6.22461 352.529L7.47254 351.697L6.22461 352.529ZM23.0717 341.293L24.5276 340.322L23.0717 341.293ZM25.7755 339.49L27.0235 338.658L25.7755 339.49Z" fill="black"/>
<path d="M6.22461 352.529L7.47254 351.697M23.0717 341.293L24.5276 340.322M25.7755 339.49L27.0235 338.658" stroke="white" stroke-width="1.25"/>
</g>
<path d="M58.314 355.281C62.0991 355.281 64.5601 353.324 64.5601 350.195C64.5601 347.805 63.1655 346.398 59.6382 345.625L57.7632 345.215C55.4546 344.711 54.5522 343.797 54.5522 342.461C54.5522 340.738 56.1812 339.707 58.2905 339.707C60.1187 339.707 61.5132 340.457 62.0991 342.168C62.2866 342.707 62.6147 342.988 63.1538 342.988C63.7163 342.988 64.1147 342.613 64.1147 342.039C64.1147 341.816 64.0913 341.641 64.0562 341.512C63.4468 339.227 61.1733 337.809 58.3491 337.809C54.8452 337.809 52.3843 339.766 52.3843 342.555C52.3843 344.957 53.8491 346.492 57.2358 347.23L59.1108 347.641C61.4546 348.156 62.3921 349.094 62.3921 350.512C62.3921 352.176 60.728 353.383 58.4312 353.383C56.2983 353.383 54.6343 352.562 54.1187 350.816C53.9546 350.254 53.6265 349.984 53.0991 349.984C52.5015 349.984 52.1265 350.406 52.1265 351.074C52.1265 351.32 52.1733 351.578 52.2437 351.812C52.8765 353.852 55.1382 355.281 58.314 355.281ZM71.7554 355.211C75.1187 355.211 77.3921 352.785 77.3921 348.906C77.3921 345.016 75.1187 342.602 71.7554 342.602C68.3804 342.602 66.1069 345.016 66.1069 348.906C66.1069 352.785 68.3804 355.211 71.7554 355.211ZM71.7554 353.418C69.5991 353.418 68.1812 351.777 68.1812 348.906C68.1812 346.035 69.5991 344.395 71.7554 344.395C73.9116 344.395 75.3179 346.035 75.3179 348.906C75.3179 351.777 73.9116 353.418 71.7554 353.418ZM83.6147 355.211C85.4897 355.211 86.7554 354.426 87.4819 353.02H87.5288V354.18C87.5288 354.766 87.9155 355.211 88.5015 355.211C89.0874 355.211 89.4624 354.766 89.4624 354.18V343.691C89.4624 343.047 89.0405 342.602 88.4429 342.602C87.8452 342.602 87.4233 343.047 87.4233 343.691V349.973C87.4233 352.047 86.228 353.406 84.2476 353.406C82.3608 353.406 81.4351 352.34 81.4351 350.359V343.691C81.4351 343.047 81.0132 342.602 80.4155 342.602C79.8179 342.602 79.396 343.047 79.396 343.691V350.723C79.396 353.488 80.9546 355.211 83.6147 355.211ZM92.7671 352.188C92.7671 354.133 93.7515 355.094 95.7202 355.094H95.8491C96.9858 355.094 97.3374 354.766 97.3374 354.145C97.3374 353.664 97.0327 353.395 96.3647 353.348L96.189 353.336C95.1694 353.266 94.8062 352.773 94.8062 351.742V344.488H96.3765C96.9624 344.488 97.2905 344.184 97.2905 343.645C97.2905 343.117 96.9624 342.812 96.3765 342.812H94.8062V340.727C94.8062 340.082 94.3843 339.637 93.7866 339.637C93.189 339.637 92.7671 340.082 92.7671 340.727V342.812H91.7476C91.1616 342.812 90.8335 343.117 90.8335 343.645C90.8335 344.184 91.1616 344.488 91.7476 344.488H92.7671V352.188ZM100.478 355.211C101.076 355.211 101.498 354.766 101.498 354.121V347.898C101.498 345.789 102.751 344.406 104.779 344.406C106.689 344.406 107.662 345.566 107.662 347.5V354.121C107.662 354.766 108.083 355.211 108.681 355.211C109.279 355.211 109.701 354.766 109.701 354.121V347.125C109.701 344.406 108.083 342.602 105.412 342.602C103.56 342.602 102.224 343.398 101.544 344.758H101.498V338.945C101.498 338.312 101.099 337.879 100.478 337.879C99.8687 337.879 99.4585 338.312 99.4585 338.945V354.121C99.4585 354.766 99.8804 355.211 100.478 355.211ZM118.583 355.164C119.228 355.164 119.638 354.742 119.638 354.074V349.094L121.525 347.078L127.806 354.66C128.111 355.035 128.369 355.176 128.755 355.176C129.33 355.176 129.775 354.73 129.775 354.168C129.775 353.91 129.681 353.641 129.47 353.383L122.99 345.578L128.814 339.543C129.001 339.344 129.095 339.121 129.095 338.875C129.095 338.336 128.697 337.914 128.123 337.914C127.794 337.914 127.56 338.031 127.291 338.324L119.755 346.34H119.638V339.016C119.638 338.348 119.228 337.926 118.583 337.926C117.939 337.926 117.529 338.348 117.529 339.016V354.074C117.529 354.742 117.939 355.164 118.583 355.164ZM136.326 355.211C139.689 355.211 141.962 352.785 141.962 348.906C141.962 345.016 139.689 342.602 136.326 342.602C132.951 342.602 130.677 345.016 130.677 348.906C130.677 352.785 132.951 355.211 136.326 355.211ZM136.326 353.418C134.169 353.418 132.751 351.777 132.751 348.906C132.751 346.035 134.169 344.395 136.326 344.395C138.482 344.395 139.888 346.035 139.888 348.906C139.888 351.777 138.482 353.418 136.326 353.418ZM145.044 355.211C145.642 355.211 146.064 354.766 146.064 354.121V347.43C146.064 345.871 146.849 344.547 148.689 344.547C149.134 344.547 149.451 344.465 149.662 344.289C149.873 344.125 149.978 343.891 149.978 343.574C149.978 343.293 149.896 343.059 149.72 342.895C149.521 342.707 149.205 342.602 148.759 342.602C147.541 342.602 146.345 343.539 145.994 344.805H145.947V343.633C145.947 343.023 145.548 342.602 144.986 342.602C144.423 342.602 144.025 343.023 144.025 343.633V354.121C144.025 354.766 144.447 355.211 145.044 355.211ZM155.955 355.211C158.181 355.211 159.892 354.273 160.677 352.621C160.771 352.398 160.83 352.188 160.83 352.023C160.83 351.484 160.466 351.133 159.927 351.133C159.611 351.133 159.376 351.25 159.166 351.543C158.216 352.926 157.326 353.441 155.873 353.441C153.693 353.441 152.345 351.918 152.345 349.457H159.962C160.666 349.457 161.087 349.012 161.087 348.273C161.087 344.934 158.896 342.602 155.779 342.602C152.416 342.602 150.248 345.109 150.248 348.953C150.248 352.891 152.357 355.211 155.955 355.211ZM152.357 347.863C152.486 345.766 153.845 344.371 155.744 344.371C157.63 344.371 158.931 345.754 158.978 347.863H152.357ZM166.701 355.211C168.341 355.211 169.9 354.297 170.626 352.902H170.673V354.18C170.673 354.789 171.072 355.211 171.646 355.211C172.208 355.211 172.607 354.789 172.607 354.18V346.574C172.607 344.148 170.802 342.602 167.943 342.602C165.962 342.602 164.181 343.48 163.49 344.816C163.326 345.109 163.244 345.402 163.244 345.66C163.244 346.211 163.619 346.574 164.146 346.574C164.533 346.574 164.802 346.422 164.99 346.082C165.669 344.875 166.572 344.395 167.896 344.395C169.583 344.395 170.568 345.285 170.568 346.773V347.793L167.064 347.992C164.251 348.156 162.646 349.469 162.646 351.555C162.646 353.746 164.275 355.211 166.701 355.211ZM167.158 353.477C165.693 353.477 164.72 352.715 164.72 351.555C164.72 350.406 165.658 349.68 167.298 349.574L170.568 349.375V350.371C170.568 352.129 169.08 353.477 167.158 353.477Z" fill="black"/>
<g clip-path="url(#clip0_1907_2937)">
<path fill-rule="evenodd" clip-rule="evenodd" d="M0 400H32V424H0V400Z" fill="#F4F5F8"/>
<path fill-rule="evenodd" clip-rule="evenodd" d="M0 408.125H32V416.125H0V408.125Z" fill="#2D2A4A"/>
<path fill-rule="evenodd" clip-rule="evenodd" d="M0 400H32V404.125H0V400ZM0 420H32V424H0V420Z" fill="#A51931"/>
</g>
<path d="M58.1133 421.164C58.7578 421.164 59.168 420.742 59.168 420.074V405.988H63.668C64.2656 405.988 64.6758 405.602 64.6758 405.039C64.6758 404.477 64.2656 404.09 63.668 404.09H52.5586C51.9609 404.09 51.5508 404.477 51.5508 405.039C51.5508 405.602 51.9609 405.988 52.5586 405.988H57.0586V420.074C57.0586 420.742 57.4688 421.164 58.1133 421.164ZM67.5352 421.211C68.1328 421.211 68.5547 420.766 68.5547 420.121V413.898C68.5547 411.789 69.8086 410.406 71.8359 410.406C73.7461 410.406 74.7188 411.566 74.7188 413.5V420.121C74.7188 420.766 75.1406 421.211 75.7383 421.211C76.3359 421.211 76.7578 420.766 76.7578 420.121V413.125C76.7578 410.406 75.1406 408.602 72.4688 408.602C70.6172 408.602 69.2812 409.398 68.6016 410.758H68.5547V404.945C68.5547 404.312 68.1562 403.879 67.5352 403.879C66.9258 403.879 66.5156 404.312 66.5156 404.945V420.121C66.5156 420.766 66.9375 421.211 67.5352 421.211ZM82.8984 421.211C84.5391 421.211 86.0977 420.297 86.8242 418.902H86.8711V420.18C86.8711 420.789 87.2695 421.211 87.8438 421.211C88.4062 421.211 88.8047 420.789 88.8047 420.18V412.574C88.8047 410.148 87 408.602 84.1406 408.602C82.1602 408.602 80.3789 409.48 79.6875 410.816C79.5234 411.109 79.4414 411.402 79.4414 411.66C79.4414 412.211 79.8164 412.574 80.3438 412.574C80.7305 412.574 81 412.422 81.1875 412.082C81.8672 410.875 82.7695 410.395 84.0938 410.395C85.7812 410.395 86.7656 411.285 86.7656 412.773V413.793L83.2617 413.992C80.4492 414.156 78.8438 415.469 78.8438 417.555C78.8438 419.746 80.4727 421.211 82.8984 421.211ZM83.3555 419.477C81.8906 419.477 80.918 418.715 80.918 417.555C80.918 416.406 81.8555 415.68 83.4961 415.574L86.7656 415.375V416.371C86.7656 418.129 85.2773 419.477 83.3555 419.477ZM92.5195 406.762C93.2227 406.762 93.7969 406.188 93.7969 405.496C93.7969 404.793 93.2227 404.23 92.5195 404.23C91.8281 404.23 91.2539 404.793 91.2539 405.496C91.2539 406.188 91.8281 406.762 92.5195 406.762ZM92.5195 421.211C93.1172 421.211 93.5391 420.766 93.5391 420.121V409.691C93.5391 409.047 93.1172 408.602 92.5195 408.602C91.9219 408.602 91.5 409.047 91.5 409.691V420.121C91.5 420.766 91.9219 421.211 92.5195 421.211ZM97.418 421.211C98.0156 421.211 98.4375 420.766 98.4375 420.121V404.969C98.4375 404.324 98.0156 403.879 97.418 403.879C96.8203 403.879 96.3984 404.324 96.3984 404.969V420.121C96.3984 420.766 96.8203 421.211 97.418 421.211ZM104.742 421.211C106.383 421.211 107.941 420.297 108.668 418.902H108.715V420.18C108.715 420.789 109.113 421.211 109.688 421.211C110.25 421.211 110.648 420.789 110.648 420.18V412.574C110.648 410.148 108.844 408.602 105.984 408.602C104.004 408.602 102.223 409.48 101.531 410.816C101.367 411.109 101.285 411.402 101.285 411.66C101.285 412.211 101.66 412.574 102.188 412.574C102.574 412.574 102.844 412.422 103.031 412.082C103.711 410.875 104.613 410.395 105.938 410.395C107.625 410.395 108.609 411.285 108.609 412.773V413.793L105.105 413.992C102.293 414.156 100.688 415.469 100.688 417.555C100.688 419.746 102.316 421.211 104.742 421.211ZM105.199 419.477C103.734 419.477 102.762 418.715 102.762 417.555C102.762 416.406 103.699 415.68 105.34 415.574L108.609 415.375V416.371C108.609 418.129 107.121 419.477 105.199 419.477ZM114.258 421.211C114.855 421.211 115.277 420.766 115.277 420.121V413.828C115.277 411.766 116.531 410.406 118.453 410.406C120.328 410.406 121.254 411.484 121.254 413.453V420.121C121.254 420.766 121.676 421.211 122.273 421.211C122.871 421.211 123.293 420.766 123.293 420.121V413.09C123.293 410.324 121.746 408.602 119.074 408.602C117.188 408.602 115.887 409.445 115.207 410.758H115.16V409.633C115.16 409.023 114.762 408.602 114.199 408.602C113.637 408.602 113.238 409.023 113.238 409.633V420.121C113.238 420.766 113.66 421.211 114.258 421.211ZM130.512 421.211C132.422 421.211 133.688 420.273 134.355 418.82H134.391V420.215C134.391 420.812 134.859 421.211 135.434 421.211C136.02 421.211 136.43 420.801 136.43 420.215V404.969C136.43 404.324 136.008 403.879 135.41 403.879C134.812 403.879 134.391 404.324 134.391 404.969V410.793H134.344C133.617 409.457 132.211 408.602 130.465 408.602C127.395 408.602 125.297 411.086 125.297 414.906C125.297 418.727 127.406 421.211 130.512 421.211ZM130.898 419.418C128.742 419.418 127.383 417.672 127.383 414.906C127.383 412.152 128.742 410.395 130.898 410.395C132.996 410.395 134.402 412.188 134.402 414.906C134.402 417.637 132.996 419.418 130.898 419.418Z" fill="black"/>
<g clip-path="url(#clip1_1907_2937)">
<path d="M7.50635 4H24.4891V28H7.5064L7.50635 4Z" fill="white"/>
<path d="M-0.982422 4H7.50663V28H-0.982422V4ZM24.4895 4H32.9785V28H24.4942L24.4895 4ZM10.052 15.5969L9.38633 15.8219L12.4566 18.5172C12.691 19.2063 12.377 19.4078 12.1754 19.7734L15.5035 19.3516L15.4238 22.7031L16.1176 22.6844L15.9629 19.3562L19.3004 19.7547C19.0941 19.3188 18.9113 19.0891 19.0988 18.3953L22.1645 15.8406L21.6301 15.6438C21.1894 15.3063 21.8176 14.0172 21.9113 13.2016C21.9113 13.2016 20.1254 13.8156 20.0082 13.4922L19.5488 12.6157L17.9223 14.4062C17.7441 14.4485 17.6691 14.3781 17.627 14.2281L18.377 10.4875L17.1863 11.1578C17.0879 11.2047 16.9894 11.1672 16.9238 11.05L15.7754 8.7531L14.5941 11.1391C14.5051 11.2235 14.416 11.2328 14.341 11.1766L13.2066 10.5391L13.891 14.2469C13.8348 14.3968 13.7035 14.4344 13.5535 14.3547L11.9926 12.5875C11.791 12.9157 11.6551 13.4453 11.3832 13.5672C11.116 13.6797 10.2113 13.3422 9.60663 13.2109C9.81288 13.9563 10.4598 15.1938 10.052 15.6016V15.5969Z" fill="#D52B1E"/>
</g>
<path d="M59.8203 25.2812C62.9141 25.2812 65.1172 24.0156 66.2305 21.7773C66.418 21.4023 66.5117 21.0859 66.5117 20.7227C66.5117 20.1719 66.1133 19.7734 65.5508 19.7734C65.082 19.7734 64.7891 19.9961 64.5664 20.5117C63.7695 22.4102 62.0352 23.3359 59.832 23.3359C56.4922 23.3359 54.3711 20.6875 54.3711 16.5391C54.3711 12.4258 56.5156 9.75391 59.8203 9.75391C61.9062 9.75391 63.7227 10.832 64.5195 12.8242C64.7539 13.4219 65.1172 13.7031 65.6328 13.7031C66.207 13.7031 66.582 13.3281 66.582 12.7422C66.582 12.4961 66.5234 12.2031 66.4062 11.9102C65.4102 9.39062 62.9023 7.80859 59.8203 7.80859C55.1914 7.80859 52.2031 11.2305 52.2031 16.5391C52.2031 21.8945 55.1562 25.2812 59.8203 25.2812ZM72.5703 25.2109C74.2109 25.2109 75.7695 24.2969 76.4961 22.9023H76.543V24.1797C76.543 24.7891 76.9414 25.2109 77.5156 25.2109C78.0781 25.2109 78.4766 24.7891 78.4766 24.1797V16.5742C78.4766 14.1484 76.6719 12.6016 73.8125 12.6016C71.832 12.6016 70.0508 13.4805 69.3594 14.8164C69.1953 15.1094 69.1133 15.4023 69.1133 15.6602C69.1133 16.2109 69.4883 16.5742 70.0156 16.5742C70.4023 16.5742 70.6719 16.4219 70.8594 16.082C71.5391 14.875 72.4414 14.3945 73.7656 14.3945C75.4531 14.3945 76.4375 15.2852 76.4375 16.7734V17.793L72.9336 17.9922C70.1211 18.1562 68.5156 19.4688 68.5156 21.5547C68.5156 23.7461 70.1445 25.2109 72.5703 25.2109ZM73.0273 23.4766C71.5625 23.4766 70.5898 22.7148 70.5898 21.5547C70.5898 20.4062 71.5273 19.6797 73.168 19.5742L76.4375 19.375V20.3711C76.4375 22.1289 74.9492 23.4766 73.0273 23.4766ZM82.0859 25.2109C82.6836 25.2109 83.1055 24.7656 83.1055 24.1211V17.8281C83.1055 15.7656 84.3594 14.4062 86.2812 14.4062C88.1562 14.4062 89.082 15.4844 89.082 17.4531V24.1211C89.082 24.7656 89.5039 25.2109 90.1016 25.2109C90.6992 25.2109 91.1211 24.7656 91.1211 24.1211V17.0898C91.1211 14.3242 89.5742 12.6016 86.9023 12.6016C85.0156 12.6016 83.7148 13.4453 83.0352 14.7578H82.9883V13.6328C82.9883 13.0234 82.5898 12.6016 82.0273 12.6016C81.4648 12.6016 81.0664 13.0234 81.0664 13.6328V24.1211C81.0664 24.7656 81.4883 25.2109 82.0859 25.2109ZM97.2734 25.2109C98.9141 25.2109 100.473 24.2969 101.199 22.9023H101.246V24.1797C101.246 24.7891 101.645 25.2109 102.219 25.2109C102.781 25.2109 103.18 24.7891 103.18 24.1797V16.5742C103.18 14.1484 101.375 12.6016 98.5156 12.6016C96.5352 12.6016 94.7539 13.4805 94.0625 14.8164C93.8984 15.1094 93.8164 15.4023 93.8164 15.6602C93.8164 16.2109 94.1914 16.5742 94.7188 16.5742C95.1055 16.5742 95.375 16.4219 95.5625 16.082C96.2422 14.875 97.1445 14.3945 98.4688 14.3945C100.156 14.3945 101.141 15.2852 101.141 16.7734V17.793L97.6367 17.9922C94.8242 18.1562 93.2188 19.4688 93.2188 21.5547C93.2188 23.7461 94.8477 25.2109 97.2734 25.2109ZM97.7305 23.4766C96.2656 23.4766 95.293 22.7148 95.293 21.5547C95.293 20.4062 96.2305 19.6797 97.8711 19.5742L101.141 19.375V20.3711C101.141 22.1289 99.6523 23.4766 97.7305 23.4766ZM110.387 25.2109C112.297 25.2109 113.562 24.2734 114.23 22.8203H114.266V24.2148C114.266 24.8125 114.734 25.2109 115.309 25.2109C115.895 25.2109 116.305 24.8008 116.305 24.2148V8.96875C116.305 8.32422 115.883 7.87891 115.285 7.87891C114.688 7.87891 114.266 8.32422 114.266 8.96875V14.793H114.219C113.492 13.457 112.086 12.6016 110.34 12.6016C107.27 12.6016 105.172 15.0859 105.172 18.9062C105.172 22.7266 107.281 25.2109 110.387 25.2109ZM110.773 23.418C108.617 23.418 107.258 21.6719 107.258 18.9062C107.258 16.1523 108.617 14.3945 110.773 14.3945C112.871 14.3945 114.277 16.1875 114.277 18.9062C114.277 21.6367 112.871 23.418 110.773 23.418ZM122.609 25.2109C124.25 25.2109 125.809 24.2969 126.535 22.9023H126.582V24.1797C126.582 24.7891 126.98 25.2109 127.555 25.2109C128.117 25.2109 128.516 24.7891 128.516 24.1797V16.5742C128.516 14.1484 126.711 12.6016 123.852 12.6016C121.871 12.6016 120.09 13.4805 119.398 14.8164C119.234 15.1094 119.152 15.4023 119.152 15.6602C119.152 16.2109 119.527 16.5742 120.055 16.5742C120.441 16.5742 120.711 16.4219 120.898 16.082C121.578 14.875 122.48 14.3945 123.805 14.3945C125.492 14.3945 126.477 15.2852 126.477 16.7734V17.793L122.973 17.9922C120.16 18.1562 118.555 19.4688 118.555 21.5547C118.555 23.7461 120.184 25.2109 122.609 25.2109ZM123.066 23.4766C121.602 23.4766 120.629 22.7148 120.629 21.5547C120.629 20.4062 121.566 19.6797 123.207 19.5742L126.477 19.375V20.3711C126.477 22.1289 124.988 23.4766 123.066 23.4766Z" fill="black"/>
<g clip-path="url(#clip2_1907_2937)">
<path d="M0 70H32V78H0V70Z" fill="#00732F"/>
<path d="M0 78H32V86H0V78Z" fill="white"/>
<path d="M0 86H32V94H0V86Z" fill="black"/>
<path d="M0 70H11V94H0V70Z" fill="#FF0000"/>
</g>
<path d="M59.6992 91.2812C63.8945 91.2812 66.4141 88.6797 66.4141 85.0703V75.0156C66.4141 74.3477 66.0039 73.9258 65.3594 73.9258C64.7148 73.9258 64.3047 74.3477 64.3047 75.0156V84.9297C64.3047 87.4844 62.6289 89.3359 59.6992 89.3359C56.7695 89.3359 55.0938 87.4844 55.0938 84.9297V75.0156C55.0938 74.3477 54.6836 73.9258 54.0391 73.9258C53.3945 73.9258 52.9844 74.3477 52.9844 75.0156V85.0703C52.9844 88.6797 55.5039 91.2812 59.6992 91.2812ZM70.3984 91.2109C70.9961 91.2109 71.418 90.7656 71.418 90.1211V83.8281C71.418 81.7656 72.6719 80.4062 74.5938 80.4062C76.4688 80.4062 77.3945 81.4844 77.3945 83.4531V90.1211C77.3945 90.7656 77.8164 91.2109 78.4141 91.2109C79.0117 91.2109 79.4336 90.7656 79.4336 90.1211V83.0898C79.4336 80.3242 77.8867 78.6016 75.2148 78.6016C73.3281 78.6016 72.0273 79.4453 71.3477 80.7578H71.3008V79.6328C71.3008 79.0234 70.9023 78.6016 70.3398 78.6016C69.7773 78.6016 69.3789 79.0234 69.3789 79.6328V90.1211C69.3789 90.7656 69.8008 91.2109 70.3984 91.2109ZM83.1602 76.7617C83.8633 76.7617 84.4375 76.1875 84.4375 75.4961C84.4375 74.793 83.8633 74.2305 83.1602 74.2305C82.4688 74.2305 81.8945 74.793 81.8945 75.4961C81.8945 76.1875 82.4688 76.7617 83.1602 76.7617ZM83.1602 91.2109C83.7578 91.2109 84.1797 90.7656 84.1797 90.1211V79.6914C84.1797 79.0469 83.7578 78.6016 83.1602 78.6016C82.5625 78.6016 82.1406 79.0469 82.1406 79.6914V90.1211C82.1406 90.7656 82.5625 91.2109 83.1602 91.2109ZM87.5898 88.1875C87.5898 90.1328 88.5742 91.0938 90.543 91.0938H90.6719C91.8086 91.0938 92.1602 90.7656 92.1602 90.1445C92.1602 89.6641 91.8555 89.3945 91.1875 89.3477L91.0117 89.3359C89.9922 89.2656 89.6289 88.7734 89.6289 87.7422V80.4883H91.1992C91.7852 80.4883 92.1133 80.1836 92.1133 79.6445C92.1133 79.1172 91.7852 78.8125 91.1992 78.8125H89.6289V76.7266C89.6289 76.082 89.207 75.6367 88.6094 75.6367C88.0117 75.6367 87.5898 76.082 87.5898 76.7266V78.8125H86.5703C85.9844 78.8125 85.6562 79.1172 85.6562 79.6445C85.6562 80.1836 85.9844 80.4883 86.5703 80.4883H87.5898V88.1875ZM98.9336 91.2109C101.16 91.2109 102.871 90.2734 103.656 88.6211C103.75 88.3984 103.809 88.1875 103.809 88.0234C103.809 87.4844 103.445 87.1328 102.906 87.1328C102.59 87.1328 102.355 87.25 102.145 87.543C101.195 88.9258 100.305 89.4414 98.8516 89.4414C96.6719 89.4414 95.3242 87.918 95.3242 85.457H102.941C103.645 85.457 104.066 85.0117 104.066 84.2734C104.066 80.9336 101.875 78.6016 98.7578 78.6016C95.3945 78.6016 93.2266 81.1094 93.2266 84.9531C93.2266 88.8906 95.3359 91.2109 98.9336 91.2109ZM95.3359 83.8633C95.4648 81.7656 96.8242 80.3711 98.7227 80.3711C100.609 80.3711 101.91 81.7539 101.957 83.8633H95.3359ZM110.746 91.2109C112.656 91.2109 113.922 90.2734 114.59 88.8203H114.625V90.2148C114.625 90.8125 115.094 91.2109 115.668 91.2109C116.254 91.2109 116.664 90.8008 116.664 90.2148V74.9688C116.664 74.3242 116.242 73.8789 115.645 73.8789C115.047 73.8789 114.625 74.3242 114.625 74.9688V80.793H114.578C113.852 79.457 112.445 78.6016 110.699 78.6016C107.629 78.6016 105.531 81.0859 105.531 84.9062C105.531 88.7266 107.641 91.2109 110.746 91.2109ZM111.133 89.418C108.977 89.418 107.617 87.6719 107.617 84.9062C107.617 82.1523 108.977 80.3945 111.133 80.3945C113.23 80.3945 114.637 82.1875 114.637 84.9062C114.637 87.6367 113.23 89.418 111.133 89.418ZM124.715 91.1641C125.242 91.1641 125.547 90.918 125.746 90.3555L127.234 86.1602H133.926L135.426 90.3555C135.625 90.918 135.93 91.1641 136.457 91.1641C137.066 91.1641 137.512 90.7773 137.512 90.2383C137.512 90.0859 137.477 89.9102 137.383 89.6523L131.934 74.9336C131.676 74.2422 131.254 73.9258 130.609 73.9258C129.918 73.9258 129.484 74.2539 129.227 74.9453L123.789 89.6523C123.695 89.9102 123.66 90.0859 123.66 90.2383C123.66 90.7773 124.105 91.1641 124.715 91.1641ZM127.844 84.3672L130.551 76.6562H130.621L133.328 84.3672H127.844ZM140.5 91.2109C141.098 91.2109 141.52 90.7656 141.52 90.1211V83.4297C141.52 81.8711 142.305 80.5469 144.145 80.5469C144.59 80.5469 144.906 80.4648 145.117 80.2891C145.328 80.125 145.434 79.8906 145.434 79.5742C145.434 79.293 145.352 79.0586 145.176 78.8945C144.977 78.707 144.66 78.6016 144.215 78.6016C142.996 78.6016 141.801 79.5391 141.449 80.8047H141.402V79.6328C141.402 79.0234 141.004 78.6016 140.441 78.6016C139.879 78.6016 139.48 79.0234 139.48 79.6328V90.1211C139.48 90.7656 139.902 91.2109 140.5 91.2109ZM150.203 91.2109C151.844 91.2109 153.402 90.2969 154.129 88.9023H154.176V90.1797C154.176 90.7891 154.574 91.2109 155.148 91.2109C155.711 91.2109 156.109 90.7891 156.109 90.1797V82.5742C156.109 80.1484 154.305 78.6016 151.445 78.6016C149.465 78.6016 147.684 79.4805 146.992 80.8164C146.828 81.1094 146.746 81.4023 146.746 81.6602C146.746 82.2109 147.121 82.5742 147.648 82.5742C148.035 82.5742 148.305 82.4219 148.492 82.082C149.172 80.875 150.074 80.3945 151.398 80.3945C153.086 80.3945 154.07 81.2852 154.07 82.7734V83.793L150.566 83.9922C147.754 84.1562 146.148 85.4688 146.148 87.5547C146.148 89.7461 147.777 91.2109 150.203 91.2109ZM150.66 89.4766C149.195 89.4766 148.223 88.7148 148.223 87.5547C148.223 86.4062 149.16 85.6797 150.801 85.5742L154.07 85.375V86.3711C154.07 88.1289 152.582 89.4766 150.66 89.4766ZM159.754 91.2109C160.34 91.2109 160.75 90.8008 160.75 90.2148V88.9375H160.797C161.594 90.3438 162.988 91.2109 164.77 91.2109C167.887 91.2109 169.949 88.7383 169.949 84.9062C169.949 81.0859 167.875 78.6016 164.805 78.6016C163.082 78.6016 161.664 79.457 160.891 80.8516H160.844V74.9688C160.844 74.3242 160.422 73.8789 159.824 73.8789C159.227 73.8789 158.805 74.3242 158.805 74.9688V90.2148C158.805 90.8125 159.18 91.2109 159.754 91.2109ZM164.371 89.418C162.309 89.418 160.832 87.625 160.832 84.9062C160.832 82.1992 162.309 80.3945 164.371 80.3945C166.527 80.3945 167.863 82.1406 167.863 84.9062C167.863 87.6953 166.527 89.418 164.371 89.418ZM178.305 91H186.895C187.492 91 187.902 90.6133 187.902 90.0508C187.902 89.4883 187.492 89.1016 186.895 89.1016H179.359V83.2891H186.473C187.059 83.2891 187.469 82.9023 187.469 82.3516C187.469 81.7891 187.059 81.4141 186.473 81.4141H179.359V75.9883H186.895C187.492 75.9883 187.902 75.6016 187.902 75.0391C187.902 74.4766 187.492 74.0898 186.895 74.0898H178.305C177.66 74.0898 177.25 74.5117 177.25 75.1797V89.9102C177.25 90.5781 177.66 91 178.305 91ZM191.219 91.2109C191.84 91.2109 192.238 90.7422 192.238 90.1211V83.3594C192.238 81.6719 193.41 80.4062 195.027 80.4062C196.539 80.4062 197.523 81.3672 197.523 82.832V90.1211C197.523 90.7422 197.922 91.2109 198.543 91.2109C199.164 91.2109 199.562 90.7422 199.562 90.1211V83.2539C199.562 81.6016 200.699 80.4062 202.316 80.4062C203.922 80.4062 204.848 81.3906 204.848 83.0547V90.1211C204.848 90.7422 205.246 91.2109 205.867 91.2109C206.488 91.2109 206.887 90.7422 206.887 90.1211V82.5859C206.887 80.1719 205.328 78.6016 202.914 78.6016C201.203 78.6016 199.773 79.4688 199.094 80.9219H199.047C198.52 79.4453 197.289 78.6016 195.625 78.6016C193.984 78.6016 192.742 79.4688 192.168 80.7578H192.121V79.6328C192.121 79.0234 191.723 78.6016 191.16 78.6016C190.598 78.6016 190.199 79.0234 190.199 79.6328V90.1211C190.199 90.7422 190.598 91.2109 191.219 91.2109ZM210.613 76.7617C211.316 76.7617 211.891 76.1875 211.891 75.4961C211.891 74.793 211.316 74.2305 210.613 74.2305C209.922 74.2305 209.348 74.793 209.348 75.4961C209.348 76.1875 209.922 76.7617 210.613 76.7617ZM210.613 91.2109C211.211 91.2109 211.633 90.7656 211.633 90.1211V79.6914C211.633 79.0469 211.211 78.6016 210.613 78.6016C210.016 78.6016 209.594 79.0469 209.594 79.6914V90.1211C209.594 90.7656 210.016 91.2109 210.613 91.2109ZM215.406 91.2109C216.004 91.2109 216.426 90.7656 216.426 90.1211V83.4297C216.426 81.8711 217.211 80.5469 219.051 80.5469C219.496 80.5469 219.812 80.4648 220.023 80.2891C220.234 80.125 220.34 79.8906 220.34 79.5742C220.34 79.293 220.258 79.0586 220.082 78.8945C219.883 78.707 219.566 78.6016 219.121 78.6016C217.902 78.6016 216.707 79.5391 216.355 80.8047H216.309V79.6328C216.309 79.0234 215.91 78.6016 215.348 78.6016C214.785 78.6016 214.387 79.0234 214.387 79.6328V90.1211C214.387 90.7656 214.809 91.2109 215.406 91.2109ZM225.109 91.2109C226.75 91.2109 228.309 90.2969 229.035 88.9023H229.082V90.1797C229.082 90.7891 229.48 91.2109 230.055 91.2109C230.617 91.2109 231.016 90.7891 231.016 90.1797V82.5742C231.016 80.1484 229.211 78.6016 226.352 78.6016C224.371 78.6016 222.59 79.4805 221.898 80.8164C221.734 81.1094 221.652 81.4023 221.652 81.6602C221.652 82.2109 222.027 82.5742 222.555 82.5742C222.941 82.5742 223.211 82.4219 223.398 82.082C224.078 80.875 224.98 80.3945 226.305 80.3945C227.992 80.3945 228.977 81.2852 228.977 82.7734V83.793L225.473 83.9922C222.66 84.1562 221.055 85.4688 221.055 87.5547C221.055 89.7461 222.684 91.2109 225.109 91.2109ZM225.566 89.4766C224.102 89.4766 223.129 88.7148 223.129 87.5547C223.129 86.4062 224.066 85.6797 225.707 85.5742L228.977 85.375V86.3711C228.977 88.1289 227.488 89.4766 225.566 89.4766ZM234.262 88.1875C234.262 90.1328 235.246 91.0938 237.215 91.0938H237.344C238.48 91.0938 238.832 90.7656 238.832 90.1445C238.832 89.6641 238.527 89.3945 237.859 89.3477L237.684 89.3359C236.664 89.2656 236.301 88.7734 236.301 87.7422V80.4883H237.871C238.457 80.4883 238.785 80.1836 238.785 79.6445C238.785 79.1172 238.457 78.8125 237.871 78.8125H236.301V76.7266C236.301 76.082 235.879 75.6367 235.281 75.6367C234.684 75.6367 234.262 76.082 234.262 76.7266V78.8125H233.242C232.656 78.8125 232.328 79.1172 232.328 79.6445C232.328 80.1836 232.656 80.4883 233.242 80.4883H234.262V88.1875ZM245.605 91.2109C247.832 91.2109 249.543 90.2734 250.328 88.6211C250.422 88.3984 250.48 88.1875 250.48 88.0234C250.48 87.4844 250.117 87.1328 249.578 87.1328C249.262 87.1328 249.027 87.25 248.816 87.543C247.867 88.9258 246.977 89.4414 245.523 89.4414C243.344 89.4414 241.996 87.918 241.996 85.457H249.613C250.316 85.457 250.738 85.0117 250.738 84.2734C250.738 80.9336 248.547 78.6016 245.43 78.6016C242.066 78.6016 239.898 81.1094 239.898 84.9531C239.898 88.8906 242.008 91.2109 245.605 91.2109ZM242.008 83.8633C242.137 81.7656 243.496 80.3711 245.395 80.3711C247.281 80.3711 248.582 81.7539 248.629 83.8633H242.008ZM257.031 91.2109C259.926 91.2109 261.883 89.7461 261.883 87.5664C261.883 85.7734 260.945 84.8828 258.402 84.2617L256.586 83.8164C255.25 83.4883 254.594 82.9023 254.594 82.0586C254.594 81.0156 255.613 80.2773 257.078 80.2773C258.32 80.2773 259.105 80.7227 259.633 81.7422C259.855 82.1641 260.137 82.293 260.535 82.293C261.027 82.293 261.332 81.9766 261.332 81.4961C261.332 81.4023 261.32 81.3086 261.297 81.1914C260.98 79.7266 259.199 78.6016 257.195 78.6016C254.441 78.6016 252.578 80.043 252.578 82.1641C252.578 83.875 253.715 84.9883 256.07 85.5742L257.934 86.043C259.305 86.3828 259.809 86.8516 259.809 87.7305C259.809 88.8672 258.754 89.5469 257.195 89.5469C255.637 89.5469 254.91 89.0664 254.301 88C254.066 87.5781 253.773 87.3906 253.41 87.3906C252.883 87.3906 252.484 87.6953 252.484 88.2344C252.484 88.3867 252.508 88.5391 252.578 88.7148C253.164 90.2383 254.863 91.2109 257.031 91.2109Z" fill="black"/>
<g clip-path="url(#clip3_1907_2937)">
<path d="M0 140H32V148H0V140Z" fill="#FF9933"/>
<path d="M0 148H32V156H0V148Z" fill="white"/>
<path d="M0 156H32V164H0V156Z" fill="#128807"/>
<path d="M15.9998 155.2C17.7671 155.2 19.1998 153.767 19.1998 152C19.1998 150.233 17.7671 148.8 15.9998 148.8C14.2325 148.8 12.7998 150.233 12.7998 152C12.7998 153.767 14.2325 155.2 15.9998 155.2Z" fill="#000088"/>
<path d="M15.9997 154.8C17.5461 154.8 18.7997 153.546 18.7997 152C18.7997 150.454 17.5461 149.2 15.9997 149.2C14.4533 149.2 13.1997 150.454 13.1997 152C13.1997 153.546 14.4533 154.8 15.9997 154.8Z" fill="white"/>
<path d="M15.9999 152.56C16.3092 152.56 16.5599 152.309 16.5599 152C16.5599 151.691 16.3092 151.44 15.9999 151.44C15.6907 151.44 15.4399 151.691 15.4399 152C15.4399 152.309 15.6907 152.56 15.9999 152.56Z" fill="#000088"/>
<path d="M18.757 152.509C18.8359 152.52 18.9082 152.464 18.9186 152.385C18.929 152.306 18.8735 152.234 18.7946 152.224C18.7158 152.213 18.6434 152.269 18.6331 152.348C18.6227 152.427 18.6782 152.499 18.757 152.509Z" fill="#000088"/>
<path d="M15.9998 154.8L16.0958 153.12L15.9998 152.32L15.9038 153.12L15.9998 154.8Z" fill="#000088"/>
<path d="M18.5316 153.205C18.6051 153.236 18.6893 153.201 18.7198 153.128C18.7502 153.054 18.7153 152.97 18.6418 152.939C18.5684 152.909 18.4841 152.944 18.4537 153.017C18.4232 153.091 18.4581 153.175 18.5316 153.205Z" fill="#000088"/>
<path d="M15.2756 154.705L15.8031 153.107L15.9174 152.309L15.6177 153.057L15.2756 154.705Z" fill="#000088"/>
<path d="M18.1333 153.82C18.1964 153.868 18.2867 153.856 18.3352 153.793C18.3836 153.73 18.3717 153.64 18.3086 153.591C18.2455 153.543 18.1551 153.555 18.1067 153.618C18.0583 153.681 18.0702 153.771 18.1333 153.82Z" fill="#000088"/>
<path d="M14.6 154.425L15.5231 153.018L15.84 152.277L15.3568 152.922L14.6 154.425Z" fill="#000088"/>
<path d="M17.5896 154.31C17.6381 154.373 17.7285 154.385 17.7915 154.336C17.8546 154.288 17.8665 154.197 17.8181 154.134C17.7697 154.071 17.6793 154.059 17.6162 154.108C17.5531 154.156 17.5412 154.247 17.5896 154.31Z" fill="#000088"/>
<path d="M14.0198 153.98L15.2756 152.86L15.7734 152.226L15.1399 152.724L14.0198 153.98Z" fill="#000088"/>
<path d="M16.9375 154.642C16.9679 154.716 17.0521 154.751 17.1256 154.72C17.1991 154.69 17.234 154.606 17.2035 154.532C17.1731 154.459 17.0889 154.424 17.0154 154.454C16.9419 154.485 16.907 154.569 16.9375 154.642Z" fill="#000088"/>
<path d="M13.5751 153.4L15.078 152.643L15.7228 152.16L14.982 152.477L13.5751 153.4Z" fill="#000088"/>
<path d="M16.222 154.795C16.2324 154.874 16.3047 154.929 16.3836 154.919C16.4624 154.909 16.5179 154.836 16.5076 154.758C16.4972 154.679 16.4249 154.623 16.346 154.634C16.2672 154.644 16.2116 154.716 16.222 154.795Z" fill="#000088"/>
<path d="M13.2954 152.725L14.943 152.383L15.6909 152.083L14.8933 152.197L13.2954 152.725Z" fill="#000088"/>
<path d="M15.4906 154.757C15.4802 154.836 15.5357 154.908 15.6146 154.919C15.6934 154.929 15.7657 154.874 15.7761 154.795C15.7865 154.716 15.731 154.644 15.6522 154.633C15.5733 154.623 15.501 154.678 15.4906 154.757Z" fill="#000088"/>
<path d="M13.1997 152L14.8797 152.096L15.6797 152L14.8797 151.904L13.1997 152Z" fill="#000088"/>
<path d="M14.7941 154.531C14.7636 154.605 14.7985 154.689 14.872 154.72C14.9455 154.75 15.0297 154.715 15.0601 154.642C15.0906 154.568 15.0557 154.484 14.9822 154.454C14.9087 154.423 14.8245 154.458 14.7941 154.531Z" fill="#000088"/>
<path d="M13.295 151.275L14.8929 151.803L15.6905 151.917L14.9426 151.617L13.295 151.275Z" fill="#000088"/>
<path d="M14.1804 154.133C14.132 154.196 14.1439 154.287 14.207 154.335C14.2701 154.383 14.3605 154.372 14.4089 154.308C14.4573 154.245 14.4454 154.155 14.3823 154.107C14.3192 154.058 14.2288 154.07 14.1804 154.133Z" fill="#000088"/>
<path d="M13.5753 150.6L14.9822 151.523L15.723 151.84L15.0782 151.357L13.5753 150.6Z" fill="#000088"/>
<path d="M13.6899 153.589C13.6268 153.638 13.6149 153.728 13.6633 153.791C13.7118 153.854 13.8022 153.866 13.8652 153.818C13.9283 153.769 13.9402 153.679 13.8918 153.616C13.8434 153.553 13.753 153.541 13.6899 153.589Z" fill="#000088"/>
<path d="M14.0198 150.02L15.1399 151.276L15.7734 151.774L15.2756 151.14L14.0198 150.02Z" fill="#000088"/>
<path d="M13.3578 152.937C13.2843 152.968 13.2495 153.052 13.2799 153.126C13.3103 153.199 13.3946 153.234 13.468 153.204C13.5415 153.173 13.5764 153.089 13.546 153.015C13.5155 152.942 13.4313 152.907 13.3578 152.937Z" fill="#000088"/>
<path d="M14.6002 149.575L15.3571 151.078L15.8402 151.723L15.5233 150.982L14.6002 149.575Z" fill="#000088"/>
<path d="M13.2054 152.222C13.1265 152.232 13.071 152.304 13.0814 152.383C13.0918 152.462 13.1641 152.517 13.243 152.507C13.3218 152.497 13.3773 152.424 13.3669 152.346C13.3566 152.267 13.2842 152.211 13.2054 152.222Z" fill="#000088"/>
<path d="M15.2757 149.295L15.6177 150.943L15.9175 151.691L15.8032 150.893L15.2757 149.295Z" fill="#000088"/>
<path d="M13.243 151.491C13.1641 151.48 13.0918 151.536 13.0814 151.615C13.071 151.693 13.1265 151.766 13.2054 151.776C13.2842 151.787 13.3566 151.731 13.3669 151.652C13.3773 151.573 13.3218 151.501 13.243 151.491Z" fill="#000088"/>
<path d="M16.0002 149.2L15.9042 150.88L16.0002 151.68L16.0962 150.88L16.0002 149.2Z" fill="#000088"/>
<path d="M13.4684 150.794C13.3949 150.764 13.3107 150.799 13.2802 150.872C13.2498 150.946 13.2847 151.03 13.3582 151.06C13.4316 151.091 13.5159 151.056 13.5463 150.983C13.5768 150.909 13.5419 150.825 13.4684 150.794Z" fill="#000088"/>
<path d="M16.7244 149.295L16.1969 150.893L16.0826 151.691L16.3823 150.943L16.7244 149.295Z" fill="#000088"/>
<path d="M13.8667 150.18C13.8036 150.132 13.7133 150.144 13.6648 150.207C13.6164 150.27 13.6283 150.36 13.6914 150.409C13.7545 150.457 13.8449 150.445 13.8933 150.382C13.9417 150.319 13.9298 150.229 13.8667 150.18Z" fill="#000088"/>
<path d="M17.4 149.575L16.4769 150.982L16.16 151.723L16.6432 151.078L17.4 149.575Z" fill="#000088"/>
<path d="M14.4104 149.69C14.3619 149.627 14.2715 149.615 14.2085 149.664C14.1454 149.712 14.1335 149.802 14.1819 149.865C14.2303 149.929 14.3207 149.94 14.3838 149.892C14.4469 149.844 14.4588 149.753 14.4104 149.69Z" fill="#000088"/>
<path d="M17.9802 150.02L16.7244 151.14L16.2266 151.774L16.8601 151.276L17.9802 150.02Z" fill="#000088"/>
<path d="M15.0625 149.358C15.0321 149.284 14.9479 149.249 14.8744 149.28C14.8009 149.31 14.766 149.394 14.7965 149.468C14.8269 149.541 14.9111 149.576 14.9846 149.546C15.0581 149.515 15.093 149.431 15.0625 149.358Z" fill="#000088"/>
<path d="M18.4249 150.6L16.922 151.357L16.2772 151.84L17.018 151.523L18.4249 150.6Z" fill="#000088"/>
<path d="M15.778 149.205C15.7676 149.126 15.6953 149.071 15.6164 149.081C15.5376 149.091 15.4821 149.164 15.4924 149.242C15.5028 149.321 15.5751 149.377 15.654 149.366C15.7328 149.356 15.7884 149.284 15.778 149.205Z" fill="#000088"/>
<path d="M18.7046 151.275L17.057 151.617L16.3091 151.917L17.1067 151.803L18.7046 151.275Z" fill="#000088"/>
<path d="M16.5094 149.243C16.5198 149.164 16.4643 149.092 16.3854 149.081C16.3066 149.071 16.2343 149.126 16.2239 149.205C16.2135 149.284 16.269 149.356 16.3478 149.367C16.4267 149.377 16.499 149.322 16.5094 149.243Z" fill="#000088"/>
<path d="M18.8003 152L17.1203 151.904L16.3203 152L17.1203 152.096L18.8003 152Z" fill="#000088"/>
<path d="M17.2059 149.469C17.2364 149.395 17.2015 149.311 17.128 149.28C17.0545 149.25 16.9703 149.285 16.9399 149.358C16.9094 149.432 16.9443 149.516 17.0178 149.546C17.0913 149.577 17.1755 149.542 17.2059 149.469Z" fill="#000088"/>
<path d="M18.705 152.725L17.1071 152.197L16.3095 152.083L17.0574 152.383L18.705 152.725Z" fill="#000088"/>
<path d="M17.8196 149.867C17.868 149.804 17.8561 149.713 17.793 149.665C17.7299 149.616 17.6395 149.628 17.5911 149.691C17.5427 149.755 17.5546 149.845 17.6177 149.893C17.6808 149.942 17.7712 149.93 17.8196 149.867Z" fill="#000088"/>
<path d="M18.4247 153.4L17.0178 152.477L16.277 152.16L16.9218 152.643L18.4247 153.4Z" fill="#000088"/>
<path d="M18.3101 150.41C18.3732 150.362 18.3851 150.272 18.3367 150.209C18.2882 150.145 18.1978 150.134 18.1348 150.182C18.0717 150.23 18.0598 150.321 18.1082 150.384C18.1566 150.447 18.247 150.459 18.3101 150.41Z" fill="#000088"/>
<path d="M17.9802 153.98L16.8601 152.724L16.2266 152.226L16.7244 152.86L17.9802 153.98Z" fill="#000088"/>
<path d="M18.6422 151.062C18.7157 151.032 18.7505 150.948 18.7201 150.874C18.6897 150.801 18.6054 150.766 18.532 150.796C18.4585 150.827 18.4236 150.911 18.454 150.984C18.4845 151.058 18.5687 151.093 18.6422 151.062Z" fill="#000088"/>
<path d="M17.3998 154.425L16.6429 152.922L16.1598 152.277L16.4767 153.018L17.3998 154.425Z" fill="#000088"/>
<path d="M18.7946 151.778C18.8735 151.768 18.929 151.696 18.9186 151.617C18.9082 151.538 18.8359 151.482 18.757 151.493C18.6782 151.503 18.6227 151.576 18.6331 151.654C18.6434 151.733 18.7158 151.789 18.7946 151.778Z" fill="#000088"/>
<path d="M16.7243 154.705L16.3823 153.057L16.0825 152.309L16.1968 153.107L16.7243 154.705Z" fill="#000088"/>
</g>
<path d="M54.0547 157.164C54.6992 157.164 55.1094 156.742 55.1094 156.074V141.016C55.1094 140.348 54.6992 139.926 54.0547 139.926C53.4102 139.926 53 140.348 53 141.016V156.074C53 156.742 53.4102 157.164 54.0547 157.164ZM59.0938 157.211C59.6914 157.211 60.1133 156.766 60.1133 156.121V149.828C60.1133 147.766 61.3672 146.406 63.2891 146.406C65.1641 146.406 66.0898 147.484 66.0898 149.453V156.121C66.0898 156.766 66.5117 157.211 67.1094 157.211C67.707 157.211 68.1289 156.766 68.1289 156.121V149.09C68.1289 146.324 66.582 144.602 63.9102 144.602C62.0234 144.602 60.7227 145.445 60.043 146.758H59.9961V145.633C59.9961 145.023 59.5977 144.602 59.0352 144.602C58.4727 144.602 58.0742 145.023 58.0742 145.633V156.121C58.0742 156.766 58.4961 157.211 59.0938 157.211ZM75.3477 157.211C77.2578 157.211 78.5234 156.273 79.1914 154.82H79.2266V156.215C79.2266 156.812 79.6953 157.211 80.2695 157.211C80.8555 157.211 81.2656 156.801 81.2656 156.215V140.969C81.2656 140.324 80.8438 139.879 80.2461 139.879C79.6484 139.879 79.2266 140.324 79.2266 140.969V146.793H79.1797C78.4531 145.457 77.0469 144.602 75.3008 144.602C72.2305 144.602 70.1328 147.086 70.1328 150.906C70.1328 154.727 72.2422 157.211 75.3477 157.211ZM75.7344 155.418C73.5781 155.418 72.2188 153.672 72.2188 150.906C72.2188 148.152 73.5781 146.395 75.7344 146.395C77.832 146.395 79.2383 148.188 79.2383 150.906C79.2383 153.637 77.832 155.418 75.7344 155.418ZM85.1445 142.762C85.8477 142.762 86.4219 142.188 86.4219 141.496C86.4219 140.793 85.8477 140.23 85.1445 140.23C84.4531 140.23 83.8789 140.793 83.8789 141.496C83.8789 142.188 84.4531 142.762 85.1445 142.762ZM85.1445 157.211C85.7422 157.211 86.1641 156.766 86.1641 156.121V145.691C86.1641 145.047 85.7422 144.602 85.1445 144.602C84.5469 144.602 84.125 145.047 84.125 145.691V156.121C84.125 156.766 84.5469 157.211 85.1445 157.211ZM92.4688 157.211C94.1094 157.211 95.668 156.297 96.3945 154.902H96.4414V156.18C96.4414 156.789 96.8398 157.211 97.4141 157.211C97.9766 157.211 98.375 156.789 98.375 156.18V148.574C98.375 146.148 96.5703 144.602 93.7109 144.602C91.7305 144.602 89.9492 145.48 89.2578 146.816C89.0938 147.109 89.0117 147.402 89.0117 147.66C89.0117 148.211 89.3867 148.574 89.9141 148.574C90.3008 148.574 90.5703 148.422 90.7578 148.082C91.4375 146.875 92.3398 146.395 93.6641 146.395C95.3516 146.395 96.3359 147.285 96.3359 148.773V149.793L92.832 149.992C90.0195 150.156 88.4141 151.469 88.4141 153.555C88.4141 155.746 90.043 157.211 92.4688 157.211ZM92.9258 155.477C91.4609 155.477 90.4883 154.715 90.4883 153.555C90.4883 152.406 91.4258 151.68 93.0664 151.574L96.3359 151.375V152.371C96.3359 154.129 94.8477 155.477 92.9258 155.477Z" fill="black"/>
<g clip-path="url(#clip4_1907_2937)">
<path d="M0 268H32V280H0V268Z" fill="#0038A8"/>
<path d="M0 280H32V292H0V280Z" fill="#CE1126"/>
<path d="M20.785 280L0 292V268" fill="white"/>
<path d="M1.3352 270.12L2.0502 270.75L2.8802 270.29L2.5102 271.165L3.2102 271.815L2.2602 271.735L1.8552 272.595L1.6402 271.67L0.700195 271.55L1.5152 271.05L1.3352 270.12ZM17.5252 278.735L17.5452 279.685L18.4452 280L17.5452 280.31L17.5252 281.26L16.9502 280.505L16.0402 280.78L16.5802 280L16.0402 279.22L16.9502 279.495L17.5252 278.735ZM1.8602 287.405L2.2602 288.265L3.2102 288.185L2.5152 288.835L2.8852 289.71L2.0552 289.255L1.3352 289.875L1.5152 288.94L0.700195 288.45L1.6452 288.33L1.8602 287.405ZM7.57019 274.955L7.26019 275.265L7.41519 277.615L7.26519 277.63L6.9802 275.485L6.72519 275.735L7.1052 277.655C6.79793 277.715 6.50565 277.836 6.24519 278.01L5.16019 276.39H4.8002L6.12019 278.105C6.07912 278.137 6.0391 278.17 6.0002 278.205L4.4452 276.43H4.0052V276.87L5.7752 278.42L5.6752 278.545L3.9602 277.23V277.585L5.5852 278.67C5.41519 278.93 5.29019 279.22 5.2302 279.53L3.3152 279.15L3.0602 279.4L5.20519 279.685C5.1952 279.735 5.1902 279.79 5.1902 279.84L2.8402 279.69L2.5302 280L2.8402 280.31L5.1902 280.155L5.20519 280.31L3.0602 280.595L3.31019 280.845L5.2302 280.465C5.29067 280.772 5.41132 281.065 5.5852 281.325L3.9602 282.41V282.77L5.6752 281.455C5.70722 281.496 5.74057 281.536 5.7752 281.575L4.0052 283.125V283.565H4.4502L6.0002 281.795L6.1252 281.895L4.8002 283.61H5.16019L6.24519 281.985C6.5002 282.155 6.7952 282.28 7.1052 282.34L6.72519 284.26L6.97519 284.51L7.26019 282.365C7.31019 282.375 7.3602 282.38 7.41519 282.38L7.26519 284.73L7.57019 285.04L7.88519 284.73L7.7302 282.38L7.8802 282.365L8.16519 284.515L8.42019 284.26L8.04019 282.34C8.34746 282.28 8.63974 282.159 8.9002 281.985L9.98519 283.61H10.3452L9.0252 281.895C9.06627 281.863 9.10629 281.83 9.14519 281.795L10.7002 283.565H11.1402V283.125L9.37019 281.575L9.47019 281.455L11.1852 282.77V282.41L9.56019 281.325C9.7302 281.07 9.8552 280.775 9.91519 280.465L11.8302 280.845L12.0852 280.595L9.9402 280.31C9.9502 280.26 9.9552 280.21 9.9552 280.155L12.3052 280.305L12.6152 280L12.3052 279.69L9.9552 279.84L9.9402 279.69L12.0852 279.405L11.8352 279.155L9.91519 279.53C9.85472 279.223 9.73407 278.93 9.56019 278.67L11.1852 277.585V277.23L9.47019 278.545C9.43817 278.504 9.40482 278.464 9.37019 278.425L11.1402 276.875V276.43H10.7002L9.1502 278.205C9.10965 278.17 9.06796 278.137 9.0252 278.105L10.3452 276.39H9.98519L8.9002 278.01C8.6452 277.84 8.35019 277.715 8.04019 277.655L8.42019 275.74L8.17019 275.49L7.88519 277.63L7.7302 277.615L7.8802 275.265L7.57019 274.955Z" fill="#FCD116"/>
</g>
<path d="M53.7266 289.164C54.3711 289.164 54.7812 288.742 54.7812 288.074V282.965H58.6836C61.8594 282.965 64.1211 280.727 64.1211 277.516C64.1211 274.316 61.8828 272.09 58.707 272.09H53.7266C53.082 272.09 52.6719 272.512 52.6719 273.18V288.074C52.6719 288.742 53.082 289.164 53.7266 289.164ZM54.7812 281.09V273.965H58.1562C60.582 273.965 61.9531 275.277 61.9531 277.516C61.9531 279.766 60.5703 281.09 58.1562 281.09H54.7812ZM67.3555 289.211C67.9531 289.211 68.375 288.766 68.375 288.121V281.898C68.375 279.789 69.6289 278.406 71.6562 278.406C73.5664 278.406 74.5391 279.566 74.5391 281.5V288.121C74.5391 288.766 74.9609 289.211 75.5586 289.211C76.1562 289.211 76.5781 288.766 76.5781 288.121V281.125C76.5781 278.406 74.9609 276.602 72.2891 276.602C70.4375 276.602 69.1016 277.398 68.4219 278.758H68.375V272.945C68.375 272.312 67.9766 271.879 67.3555 271.879C66.7461 271.879 66.3359 272.312 66.3359 272.945V288.121C66.3359 288.766 66.7578 289.211 67.3555 289.211ZM80.293 274.762C80.9961 274.762 81.5703 274.188 81.5703 273.496C81.5703 272.793 80.9961 272.23 80.293 272.23C79.6016 272.23 79.0273 272.793 79.0273 273.496C79.0273 274.188 79.6016 274.762 80.293 274.762ZM80.293 289.211C80.8906 289.211 81.3125 288.766 81.3125 288.121V277.691C81.3125 277.047 80.8906 276.602 80.293 276.602C79.6953 276.602 79.2734 277.047 79.2734 277.691V288.121C79.2734 288.766 79.6953 289.211 80.293 289.211ZM85.1914 289.211C85.7891 289.211 86.2109 288.766 86.2109 288.121V272.969C86.2109 272.324 85.7891 271.879 85.1914 271.879C84.5938 271.879 84.1719 272.324 84.1719 272.969V288.121C84.1719 288.766 84.5938 289.211 85.1914 289.211ZM90.0898 274.762C90.793 274.762 91.3672 274.188 91.3672 273.496C91.3672 272.793 90.793 272.23 90.0898 272.23C89.3984 272.23 88.8242 272.793 88.8242 273.496C88.8242 274.188 89.3984 274.762 90.0898 274.762ZM90.0898 289.211C90.6875 289.211 91.1094 288.766 91.1094 288.121V277.691C91.1094 277.047 90.6875 276.602 90.0898 276.602C89.4922 276.602 89.0703 277.047 89.0703 277.691V288.121C89.0703 288.766 89.4922 289.211 90.0898 289.211ZM94.8828 293.301C95.4805 293.301 95.9023 292.855 95.9023 292.211V287.02H95.9492C96.6758 288.355 98.082 289.211 99.8281 289.211C102.898 289.211 104.996 286.727 104.996 282.906C104.996 279.086 102.887 276.602 99.7812 276.602C98.0117 276.602 96.5938 277.504 95.8438 278.875H95.7969V277.633C95.7969 277.023 95.3984 276.602 94.8359 276.602C94.2617 276.602 93.8633 277.023 93.8633 277.633V292.211C93.8633 292.855 94.2852 293.301 94.8828 293.301ZM99.3828 287.418C97.2969 287.418 95.8906 285.625 95.8906 282.906C95.8906 280.199 97.2969 278.395 99.3828 278.395C101.551 278.395 102.91 280.152 102.91 282.906C102.91 285.672 101.551 287.418 99.3828 287.418ZM108.078 293.301C108.676 293.301 109.098 292.855 109.098 292.211V287.02H109.145C109.871 288.355 111.277 289.211 113.023 289.211C116.094 289.211 118.191 286.727 118.191 282.906C118.191 279.086 116.082 276.602 112.977 276.602C111.207 276.602 109.789 277.504 109.039 278.875H108.992V277.633C108.992 277.023 108.594 276.602 108.031 276.602C107.457 276.602 107.059 277.023 107.059 277.633V292.211C107.059 292.855 107.48 293.301 108.078 293.301ZM112.578 287.418C110.492 287.418 109.086 285.625 109.086 282.906C109.086 280.199 110.492 278.395 112.578 278.395C114.746 278.395 116.105 280.152 116.105 282.906C116.105 285.672 114.746 287.418 112.578 287.418ZM121.379 274.762C122.082 274.762 122.656 274.188 122.656 273.496C122.656 272.793 122.082 272.23 121.379 272.23C120.688 272.23 120.113 272.793 120.113 273.496C120.113 274.188 120.688 274.762 121.379 274.762ZM121.379 289.211C121.977 289.211 122.398 288.766 122.398 288.121V277.691C122.398 277.047 121.977 276.602 121.379 276.602C120.781 276.602 120.359 277.047 120.359 277.691V288.121C120.359 288.766 120.781 289.211 121.379 289.211ZM126.172 289.211C126.77 289.211 127.191 288.766 127.191 288.121V281.828C127.191 279.766 128.445 278.406 130.367 278.406C132.242 278.406 133.168 279.484 133.168 281.453V288.121C133.168 288.766 133.59 289.211 134.188 289.211C134.785 289.211 135.207 288.766 135.207 288.121V281.09C135.207 278.324 133.66 276.602 130.988 276.602C129.102 276.602 127.801 277.445 127.121 278.758H127.074V277.633C127.074 277.023 126.676 276.602 126.113 276.602C125.551 276.602 125.152 277.023 125.152 277.633V288.121C125.152 288.766 125.574 289.211 126.172 289.211ZM142.918 289.211C145.145 289.211 146.855 288.273 147.641 286.621C147.734 286.398 147.793 286.188 147.793 286.023C147.793 285.484 147.43 285.133 146.891 285.133C146.574 285.133 146.34 285.25 146.129 285.543C145.18 286.926 144.289 287.441 142.836 287.441C140.656 287.441 139.309 285.918 139.309 283.457H146.926C147.629 283.457 148.051 283.012 148.051 282.273C148.051 278.934 145.859 276.602 142.742 276.602C139.379 276.602 137.211 279.109 137.211 282.953C137.211 286.891 139.32 289.211 142.918 289.211ZM139.32 281.863C139.449 279.766 140.809 278.371 142.707 278.371C144.594 278.371 145.895 279.754 145.941 281.863H139.32ZM154.344 289.211C157.238 289.211 159.195 287.746 159.195 285.566C159.195 283.773 158.258 282.883 155.715 282.262L153.898 281.816C152.562 281.488 151.906 280.902 151.906 280.059C151.906 279.016 152.926 278.277 154.391 278.277C155.633 278.277 156.418 278.723 156.945 279.742C157.168 280.164 157.449 280.293 157.848 280.293C158.34 280.293 158.645 279.977 158.645 279.496C158.645 279.402 158.633 279.309 158.609 279.191C158.293 277.727 156.512 276.602 154.508 276.602C151.754 276.602 149.891 278.043 149.891 280.164C149.891 281.875 151.027 282.988 153.383 283.574L155.246 284.043C156.617 284.383 157.121 284.852 157.121 285.73C157.121 286.867 156.066 287.547 154.508 287.547C152.949 287.547 152.223 287.066 151.613 286C151.379 285.578 151.086 285.391 150.723 285.391C150.195 285.391 149.797 285.695 149.797 286.234C149.797 286.387 149.82 286.539 149.891 286.715C150.477 288.238 152.176 289.211 154.344 289.211Z" fill="black"/>
<g clip-path="url(#clip5_1907_2937)">
<mask id="mask1_1907_2937" style="mask-type:alpha" maskUnits="userSpaceOnUse" x="-1" y="466" width="34" height="25">
<path d="M-0.019043 466H32.0679V490.064H-0.019043V466Z" fill="white"/>
</mask>
<g mask="url(#mask1_1907_2937)">
<path fill-rule="evenodd" clip-rule="evenodd" d="M0 466H32.0023V477.999H0V466Z" fill="black"/>
<path fill-rule="evenodd" clip-rule="evenodd" d="M0 477.999H32.0023V489.998H0V477.999Z" fill="#007A3D"/>
<path fill-rule="evenodd" clip-rule="evenodd" d="M0 472.998H32.0023V483H0V472.998Z" fill="white"/>
<path fill-rule="evenodd" clip-rule="evenodd" d="M0 466L15.9988 477.999L0 489.998V466Z" fill="#C4111B"/>
<path d="M23.9981 481.2C25.7658 481.2 27.1988 479.767 27.1988 477.999C27.1988 476.231 25.7658 474.798 23.9981 474.798C22.2304 474.798 20.7974 476.231 20.7974 477.999C20.7974 479.767 22.2304 481.2 23.9981 481.2Z" fill="#C4111B"/>
<path d="M25.2012 481.2C26.9689 481.2 28.4019 479.767 28.4019 477.999C28.4019 476.231 26.9689 474.798 25.2012 474.798C23.4335 474.798 22.0005 476.231 22.0005 477.999C22.0005 479.767 23.4335 481.2 25.2012 481.2Z" fill="white"/>
<path fill-rule="evenodd" clip-rule="evenodd" d="M23.1379 479.936L24.5056 478.963L25.8592 479.95L25.3516 478.352L26.7146 477.369L25.0367 477.36L24.5197 475.762L23.9933 477.355L22.3154 477.346L23.6643 478.342L23.1426 479.94L23.1379 479.936Z" fill="#C4111B"/>
</g>
</g>
<path d="M57.3711 487.164C58.0273 487.164 58.3789 486.871 58.5898 486.168L62.2812 473.582H62.3984L66.0898 486.168C66.3008 486.871 66.6523 487.164 67.3086 487.164C67.9414 487.164 68.293 486.848 68.4922 486.156L72.6289 471.473C72.6992 471.215 72.7227 471.074 72.7227 470.887C72.7227 470.324 72.2891 469.926 71.6797 469.926C71.1406 469.926 70.7773 470.219 70.6367 470.77L67.3086 483.895H67.2148L63.6406 471.062C63.418 470.266 63.043 469.926 62.3516 469.926C61.6367 469.926 61.2617 470.266 61.0273 471.109L57.4648 483.895H57.3711L54.043 470.77C53.9023 470.23 53.5508 469.926 53 469.926C52.3906 469.926 51.957 470.324 51.957 470.887C51.957 471.074 51.9805 471.215 52.0508 471.473L56.1875 486.156C56.3867 486.848 56.7383 487.164 57.3711 487.164ZM78.5703 487.211C80.7969 487.211 82.5078 486.273 83.293 484.621C83.3867 484.398 83.4453 484.188 83.4453 484.023C83.4453 483.484 83.082 483.133 82.543 483.133C82.2266 483.133 81.9922 483.25 81.7812 483.543C80.832 484.926 79.9414 485.441 78.4883 485.441C76.3086 485.441 74.9609 483.918 74.9609 481.457H82.5781C83.2812 481.457 83.7031 481.012 83.7031 480.273C83.7031 476.934 81.5117 474.602 78.3945 474.602C75.0312 474.602 72.8633 477.109 72.8633 480.953C72.8633 484.891 74.9727 487.211 78.5703 487.211ZM74.9727 479.863C75.1016 477.766 76.4609 476.371 78.3594 476.371C80.2461 476.371 81.5469 477.754 81.5938 479.863H74.9727ZM89.9961 487.211C92.8906 487.211 94.8477 485.746 94.8477 483.566C94.8477 481.773 93.9102 480.883 91.3672 480.262L89.5508 479.816C88.2148 479.488 87.5586 478.902 87.5586 478.059C87.5586 477.016 88.5781 476.277 90.043 476.277C91.2852 476.277 92.0703 476.723 92.5977 477.742C92.8203 478.164 93.1016 478.293 93.5 478.293C93.9922 478.293 94.2969 477.977 94.2969 477.496C94.2969 477.402 94.2852 477.309 94.2617 477.191C93.9453 475.727 92.1641 474.602 90.1602 474.602C87.4062 474.602 85.543 476.043 85.543 478.164C85.543 479.875 86.6797 480.988 89.0352 481.574L90.8984 482.043C92.2695 482.383 92.7734 482.852 92.7734 483.73C92.7734 484.867 91.7188 485.547 90.1602 485.547C88.6016 485.547 87.875 485.066 87.2656 484C87.0312 483.578 86.7383 483.391 86.375 483.391C85.8477 483.391 85.4492 483.695 85.4492 484.234C85.4492 484.387 85.4727 484.539 85.543 484.715C86.1289 486.238 87.8281 487.211 89.9961 487.211ZM97.6016 484.188C97.6016 486.133 98.5859 487.094 100.555 487.094H100.684C101.82 487.094 102.172 486.766 102.172 486.145C102.172 485.664 101.867 485.395 101.199 485.348L101.023 485.336C100.004 485.266 99.6406 484.773 99.6406 483.742V476.488H101.211C101.797 476.488 102.125 476.184 102.125 475.645C102.125 475.117 101.797 474.812 101.211 474.812H99.6406V472.727C99.6406 472.082 99.2188 471.637 98.6211 471.637C98.0234 471.637 97.6016 472.082 97.6016 472.727V474.812H96.582C95.9961 474.812 95.668 475.117 95.668 475.645C95.668 476.184 95.9961 476.488 96.582 476.488H97.6016V484.188ZM109.484 487.164C110.012 487.164 110.316 486.918 110.516 486.355L112.004 482.16H118.695L120.195 486.355C120.395 486.918 120.699 487.164 121.227 487.164C121.836 487.164 122.281 486.777 122.281 486.238C122.281 486.086 122.246 485.91 122.152 485.652L116.703 470.934C116.445 470.242 116.023 469.926 115.379 469.926C114.688 469.926 114.254 470.254 113.996 470.945L108.559 485.652C108.465 485.91 108.43 486.086 108.43 486.238C108.43 486.777 108.875 487.164 109.484 487.164ZM112.613 480.367L115.32 472.656H115.391L118.098 480.367H112.613ZM125.926 487.211C126.547 487.211 126.945 486.789 126.945 486.133V476.488H128.738C129.266 476.488 129.605 476.184 129.605 475.656C129.605 475.152 129.266 474.812 128.738 474.812H126.934V473.523C126.934 472.27 127.402 471.73 128.48 471.73C128.738 471.73 128.938 471.707 129.113 471.66C129.488 471.555 129.664 471.32 129.664 470.945C129.664 470.348 129.09 469.996 128.012 469.996C126.02 469.996 124.906 471.121 124.906 473.453V474.812H123.898C123.371 474.812 123.031 475.152 123.031 475.656C123.031 476.184 123.371 476.488 123.898 476.488H124.906V486.133C124.906 486.789 125.305 487.211 125.926 487.211ZM132.559 487.211C133.156 487.211 133.578 486.766 133.578 486.121V479.43C133.578 477.871 134.363 476.547 136.203 476.547C136.648 476.547 136.965 476.465 137.176 476.289C137.387 476.125 137.492 475.891 137.492 475.574C137.492 475.293 137.41 475.059 137.234 474.895C137.035 474.707 136.719 474.602 136.273 474.602C135.055 474.602 133.859 475.539 133.508 476.805H133.461V475.633C133.461 475.023 133.062 474.602 132.5 474.602C131.938 474.602 131.539 475.023 131.539 475.633V486.121C131.539 486.766 131.961 487.211 132.559 487.211ZM140.07 472.762C140.773 472.762 141.348 472.188 141.348 471.496C141.348 470.793 140.773 470.23 140.07 470.23C139.379 470.23 138.805 470.793 138.805 471.496C138.805 472.188 139.379 472.762 140.07 472.762ZM140.07 487.211C140.668 487.211 141.09 486.766 141.09 486.121V475.691C141.09 475.047 140.668 474.602 140.07 474.602C139.473 474.602 139.051 475.047 139.051 475.691V486.121C139.051 486.766 139.473 487.211 140.07 487.211ZM148.871 487.211C151.086 487.211 153.02 485.992 153.605 484.305C153.664 484.117 153.699 483.941 153.699 483.789C153.699 483.262 153.348 482.898 152.82 482.898C152.375 482.898 152.152 483.062 151.859 483.613C151.227 484.785 150.336 485.418 148.871 485.418C146.773 485.418 145.32 483.707 145.32 480.906C145.32 478.176 146.75 476.395 148.871 476.395C150.277 476.395 151.203 476.992 151.848 478.199C152.129 478.727 152.375 478.914 152.82 478.914C153.348 478.914 153.688 478.562 153.688 478.023C153.688 477.895 153.664 477.742 153.617 477.59C153.148 475.902 151.145 474.602 148.848 474.602C145.473 474.602 143.246 477.098 143.246 480.93C143.246 484.785 145.496 487.211 148.871 487.211ZM159.418 487.211C161.059 487.211 162.617 486.297 163.344 484.902H163.391V486.18C163.391 486.789 163.789 487.211 164.363 487.211C164.926 487.211 165.324 486.789 165.324 486.18V478.574C165.324 476.148 163.52 474.602 160.66 474.602C158.68 474.602 156.898 475.48 156.207 476.816C156.043 477.109 155.961 477.402 155.961 477.66C155.961 478.211 156.336 478.574 156.863 478.574C157.25 478.574 157.52 478.422 157.707 478.082C158.387 476.875 159.289 476.395 160.613 476.395C162.301 476.395 163.285 477.285 163.285 478.773V479.793L159.781 479.992C156.969 480.156 155.363 481.469 155.363 483.555C155.363 485.746 156.992 487.211 159.418 487.211ZM159.875 485.477C158.41 485.477 157.438 484.715 157.438 483.555C157.438 482.406 158.375 481.68 160.016 481.574L163.285 481.375V482.371C163.285 484.129 161.797 485.477 159.875 485.477ZM168.934 487.211C169.531 487.211 169.953 486.766 169.953 486.121V479.828C169.953 477.766 171.207 476.406 173.129 476.406C175.004 476.406 175.93 477.484 175.93 479.453V486.121C175.93 486.766 176.352 487.211 176.949 487.211C177.547 487.211 177.969 486.766 177.969 486.121V479.09C177.969 476.324 176.422 474.602 173.75 474.602C171.863 474.602 170.562 475.445 169.883 476.758H169.836V475.633C169.836 475.023 169.438 474.602 168.875 474.602C168.312 474.602 167.914 475.023 167.914 475.633V486.121C167.914 486.766 168.336 487.211 168.934 487.211ZM186.863 487.164C187.508 487.164 187.918 486.742 187.918 486.074V479.676H194.586C195.172 479.676 195.582 479.301 195.582 478.738C195.582 478.176 195.172 477.801 194.586 477.801H187.918V471.988H195.242C195.84 471.988 196.25 471.602 196.25 471.039C196.25 470.477 195.84 470.09 195.242 470.09H186.863C186.219 470.09 185.809 470.512 185.809 471.18V486.074C185.809 486.742 186.219 487.164 186.863 487.164ZM199.191 487.211C199.789 487.211 200.211 486.766 200.211 486.121V479.43C200.211 477.871 200.996 476.547 202.836 476.547C203.281 476.547 203.598 476.465 203.809 476.289C204.02 476.125 204.125 475.891 204.125 475.574C204.125 475.293 204.043 475.059 203.867 474.895C203.668 474.707 203.352 474.602 202.906 474.602C201.688 474.602 200.492 475.539 200.141 476.805H200.094V475.633C200.094 475.023 199.695 474.602 199.133 474.602C198.57 474.602 198.172 475.023 198.172 475.633V486.121C198.172 486.766 198.594 487.211 199.191 487.211ZM208.895 487.211C210.535 487.211 212.094 486.297 212.82 484.902H212.867V486.18C212.867 486.789 213.266 487.211 213.84 487.211C214.402 487.211 214.801 486.789 214.801 486.18V478.574C214.801 476.148 212.996 474.602 210.137 474.602C208.156 474.602 206.375 475.48 205.684 476.816C205.52 477.109 205.438 477.402 205.438 477.66C205.438 478.211 205.812 478.574 206.34 478.574C206.727 478.574 206.996 478.422 207.184 478.082C207.863 476.875 208.766 476.395 210.09 476.395C211.777 476.395 212.762 477.285 212.762 478.773V479.793L209.258 479.992C206.445 480.156 204.84 481.469 204.84 483.555C204.84 485.746 206.469 487.211 208.895 487.211ZM209.352 485.477C207.887 485.477 206.914 484.715 206.914 483.555C206.914 482.406 207.852 481.68 209.492 481.574L212.762 481.375V482.371C212.762 484.129 211.273 485.477 209.352 485.477ZM218.41 487.211C219.008 487.211 219.43 486.766 219.43 486.121V479.828C219.43 477.766 220.684 476.406 222.605 476.406C224.48 476.406 225.406 477.484 225.406 479.453V486.121C225.406 486.766 225.828 487.211 226.426 487.211C227.023 487.211 227.445 486.766 227.445 486.121V479.09C227.445 476.324 225.898 474.602 223.227 474.602C221.34 474.602 220.039 475.445 219.359 476.758H219.312V475.633C219.312 475.023 218.914 474.602 218.352 474.602C217.789 474.602 217.391 475.023 217.391 475.633V486.121C217.391 486.766 217.812 487.211 218.41 487.211ZM235.074 487.211C237.289 487.211 239.223 485.992 239.809 484.305C239.867 484.117 239.902 483.941 239.902 483.789C239.902 483.262 239.551 482.898 239.023 482.898C238.578 482.898 238.355 483.062 238.062 483.613C237.43 484.785 236.539 485.418 235.074 485.418C232.977 485.418 231.523 483.707 231.523 480.906C231.523 478.176 232.953 476.395 235.074 476.395C236.48 476.395 237.406 476.992 238.051 478.199C238.332 478.727 238.578 478.914 239.023 478.914C239.551 478.914 239.891 478.562 239.891 478.023C239.891 477.895 239.867 477.742 239.82 477.59C239.352 475.902 237.348 474.602 235.051 474.602C231.676 474.602 229.449 477.098 229.449 480.93C229.449 484.785 231.699 487.211 235.074 487.211Z" fill="black"/>
<defs>
<clipPath id="clip0_1907_2937">
<rect width="32" height="24" fill="white" transform="translate(0 400)"/>
</clipPath>
<clipPath id="clip1_1907_2937">
<rect width="32" height="24" fill="white" transform="translate(0 4)"/>
</clipPath>
<clipPath id="clip2_1907_2937">
<rect width="32" height="24" fill="white" transform="translate(0 70)"/>
</clipPath>
<clipPath id="clip3_1907_2937">
<rect width="32" height="24" fill="white" transform="translate(0 140)"/>
</clipPath>
<clipPath id="clip4_1907_2937">
<rect width="32" height="24" fill="white" transform="translate(0 268)"/>
</clipPath>
<clipPath id="clip5_1907_2937">
<rect width="32" height="24" fill="white" transform="translate(0 466)"/>
</clipPath>
</defs>
</svg>
