<svg width="175" height="494" viewBox="0 0 175 494" fill="none" xmlns="http://www.w3.org/2000/svg">
<path d="M53.918 289.164C54.5625 289.164 54.9609 288.742 54.9609 288.074V275.77H55.0664L63.9609 288.473C64.3359 289.012 64.6055 289.164 65.1797 289.164C65.9297 289.164 66.375 288.73 66.375 288.016V273.016C66.375 272.348 65.9766 271.926 65.332 271.926C64.6875 271.926 64.2891 272.348 64.2891 273.016V285.367H64.1836L55.3008 272.629C54.9258 272.09 54.6445 271.926 54.082 271.926C53.3555 271.926 52.875 272.418 52.875 273.156V288.074C52.875 288.742 53.2734 289.164 53.918 289.164ZM70.4648 274.762C71.168 274.762 71.7422 274.188 71.7422 273.496C71.7422 272.793 71.168 272.23 70.4648 272.23C69.7734 272.23 69.1992 272.793 69.1992 273.496C69.1992 274.188 69.7734 274.762 70.4648 274.762ZM70.4648 289.211C71.0625 289.211 71.4844 288.766 71.4844 288.121V277.691C71.4844 277.047 71.0625 276.602 70.4648 276.602C69.8672 276.602 69.4453 277.047 69.4453 277.691V288.121C69.4453 288.766 69.8672 289.211 70.4648 289.211ZM79.1602 293.594C82.6289 293.629 84.7852 291.66 84.7852 288.754V277.656C84.7852 277.023 84.3516 276.602 83.7656 276.602C83.1797 276.602 82.7461 277.023 82.7461 277.656V278.816H82.7109C81.9023 277.445 80.5547 276.602 78.832 276.602C75.6797 276.602 73.6406 279.039 73.6406 282.859C73.6406 286.645 75.6797 289.094 78.7852 289.094C80.4961 289.094 81.9492 288.227 82.6992 286.902H82.7461V288.824C82.7461 290.641 81.4219 291.895 79.2422 291.859C78 291.836 77.1445 291.391 76.1016 290.242C75.7852 289.891 75.5859 289.773 75.2461 289.773C74.707 289.773 74.332 290.137 74.332 290.652C74.332 290.922 74.4023 291.156 74.5664 291.414C75.4219 292.762 77.1211 293.57 79.1602 293.594ZM79.1953 287.301C77.0977 287.301 75.7266 285.59 75.7266 282.859C75.7266 280.129 77.0977 278.395 79.1953 278.395C81.3164 278.395 82.7461 280.176 82.7461 282.859C82.7461 285.543 81.3164 287.301 79.1953 287.301ZM92.543 289.211C94.7695 289.211 96.4805 288.273 97.2656 286.621C97.3594 286.398 97.418 286.188 97.418 286.023C97.418 285.484 97.0547 285.133 96.5156 285.133C96.1992 285.133 95.9648 285.25 95.7539 285.543C94.8047 286.926 93.9141 287.441 92.4609 287.441C90.2812 287.441 88.9336 285.918 88.9336 283.457H96.5508C97.2539 283.457 97.6758 283.012 97.6758 282.273C97.6758 278.934 95.4844 276.602 92.3672 276.602C89.0039 276.602 86.8359 279.109 86.8359 282.953C86.8359 286.891 88.9453 289.211 92.543 289.211ZM88.9453 281.863C89.0742 279.766 90.4336 278.371 92.332 278.371C94.2188 278.371 95.5195 279.754 95.5664 281.863H88.9453ZM100.758 289.211C101.355 289.211 101.777 288.766 101.777 288.121V281.43C101.777 279.871 102.562 278.547 104.402 278.547C104.848 278.547 105.164 278.465 105.375 278.289C105.586 278.125 105.691 277.891 105.691 277.574C105.691 277.293 105.609 277.059 105.434 276.895C105.234 276.707 104.918 276.602 104.473 276.602C103.254 276.602 102.059 277.539 101.707 278.805H101.66V277.633C101.66 277.023 101.262 276.602 100.699 276.602C100.137 276.602 99.7383 277.023 99.7383 277.633V288.121C99.7383 288.766 100.16 289.211 100.758 289.211ZM108.27 274.762C108.973 274.762 109.547 274.188 109.547 273.496C109.547 272.793 108.973 272.23 108.27 272.23C107.578 272.23 107.004 272.793 107.004 273.496C107.004 274.188 107.578 274.762 108.27 274.762ZM108.27 289.211C108.867 289.211 109.289 288.766 109.289 288.121V277.691C109.289 277.047 108.867 276.602 108.27 276.602C107.672 276.602 107.25 277.047 107.25 277.691V288.121C107.25 288.766 107.672 289.211 108.27 289.211ZM115.594 289.211C117.234 289.211 118.793 288.297 119.52 286.902H119.566V288.18C119.566 288.789 119.965 289.211 120.539 289.211C121.102 289.211 121.5 288.789 121.5 288.18V280.574C121.5 278.148 119.695 276.602 116.836 276.602C114.855 276.602 113.074 277.48 112.383 278.816C112.219 279.109 112.137 279.402 112.137 279.66C112.137 280.211 112.512 280.574 113.039 280.574C113.426 280.574 113.695 280.422 113.883 280.082C114.562 278.875 115.465 278.395 116.789 278.395C118.477 278.395 119.461 279.285 119.461 280.773V281.793L115.957 281.992C113.145 282.156 111.539 283.469 111.539 285.555C111.539 287.746 113.168 289.211 115.594 289.211ZM116.051 287.477C114.586 287.477 113.613 286.715 113.613 285.555C113.613 284.406 114.551 283.68 116.191 283.574L119.461 283.375V284.371C119.461 286.129 117.973 287.477 116.051 287.477Z" fill="black"/>
<path d="M58.4023 355.281C62.1875 355.281 64.6484 353.324 64.6484 350.195C64.6484 347.805 63.2539 346.398 59.7266 345.625L57.8516 345.215C55.543 344.711 54.6406 343.797 54.6406 342.461C54.6406 340.738 56.2695 339.707 58.3789 339.707C60.207 339.707 61.6016 340.457 62.1875 342.168C62.375 342.707 62.7031 342.988 63.2422 342.988C63.8047 342.988 64.2031 342.613 64.2031 342.039C64.2031 341.816 64.1797 341.641 64.1445 341.512C63.5352 339.227 61.2617 337.809 58.4375 337.809C54.9336 337.809 52.4727 339.766 52.4727 342.555C52.4727 344.957 53.9375 346.492 57.3242 347.23L59.1992 347.641C61.543 348.156 62.4805 349.094 62.4805 350.512C62.4805 352.176 60.8164 353.383 58.5195 353.383C56.3867 353.383 54.7227 352.562 54.207 350.816C54.043 350.254 53.7148 349.984 53.1875 349.984C52.5898 349.984 52.2148 350.406 52.2148 351.074C52.2148 351.32 52.2617 351.578 52.332 351.812C52.9648 353.852 55.2266 355.281 58.4023 355.281ZM71.8438 355.211C75.207 355.211 77.4805 352.785 77.4805 348.906C77.4805 345.016 75.207 342.602 71.8438 342.602C68.4688 342.602 66.1953 345.016 66.1953 348.906C66.1953 352.785 68.4688 355.211 71.8438 355.211ZM71.8438 353.418C69.6875 353.418 68.2695 351.777 68.2695 348.906C68.2695 346.035 69.6875 344.395 71.8438 344.395C74 344.395 75.4062 346.035 75.4062 348.906C75.4062 351.777 74 353.418 71.8438 353.418ZM83.7031 355.211C85.5781 355.211 86.8438 354.426 87.5703 353.02H87.6172V354.18C87.6172 354.766 88.0039 355.211 88.5898 355.211C89.1758 355.211 89.5508 354.766 89.5508 354.18V343.691C89.5508 343.047 89.1289 342.602 88.5312 342.602C87.9336 342.602 87.5117 343.047 87.5117 343.691V349.973C87.5117 352.047 86.3164 353.406 84.3359 353.406C82.4492 353.406 81.5234 352.34 81.5234 350.359V343.691C81.5234 343.047 81.1016 342.602 80.5039 342.602C79.9062 342.602 79.4844 343.047 79.4844 343.691V350.723C79.4844 353.488 81.043 355.211 83.7031 355.211ZM92.8555 352.188C92.8555 354.133 93.8398 355.094 95.8086 355.094H95.9375C97.0742 355.094 97.4258 354.766 97.4258 354.145C97.4258 353.664 97.1211 353.395 96.4531 353.348L96.2773 353.336C95.2578 353.266 94.8945 352.773 94.8945 351.742V344.488H96.4648C97.0508 344.488 97.3789 344.184 97.3789 343.645C97.3789 343.117 97.0508 342.812 96.4648 342.812H94.8945V340.727C94.8945 340.082 94.4727 339.637 93.875 339.637C93.2773 339.637 92.8555 340.082 92.8555 340.727V342.812H91.8359C91.25 342.812 90.9219 343.117 90.9219 343.645C90.9219 344.184 91.25 344.488 91.8359 344.488H92.8555V352.188ZM100.566 355.211C101.164 355.211 101.586 354.766 101.586 354.121V347.898C101.586 345.789 102.84 344.406 104.867 344.406C106.777 344.406 107.75 345.566 107.75 347.5V354.121C107.75 354.766 108.172 355.211 108.77 355.211C109.367 355.211 109.789 354.766 109.789 354.121V347.125C109.789 344.406 108.172 342.602 105.5 342.602C103.648 342.602 102.312 343.398 101.633 344.758H101.586V338.945C101.586 338.312 101.188 337.879 100.566 337.879C99.957 337.879 99.5469 338.312 99.5469 338.945V354.121C99.5469 354.766 99.9688 355.211 100.566 355.211ZM117.676 355.164C118.203 355.164 118.508 354.918 118.707 354.355L120.195 350.16H126.887L128.387 354.355C128.586 354.918 128.891 355.164 129.418 355.164C130.027 355.164 130.473 354.777 130.473 354.238C130.473 354.086 130.438 353.91 130.344 353.652L124.895 338.934C124.637 338.242 124.215 337.926 123.57 337.926C122.879 337.926 122.445 338.254 122.188 338.945L116.75 353.652C116.656 353.91 116.621 354.086 116.621 354.238C116.621 354.777 117.066 355.164 117.676 355.164ZM120.805 348.367L123.512 340.656H123.582L126.289 348.367H120.805ZM134.117 355.211C134.738 355.211 135.137 354.789 135.137 354.133V344.488H136.93C137.457 344.488 137.797 344.184 137.797 343.656C137.797 343.152 137.457 342.812 136.93 342.812H135.125V341.523C135.125 340.27 135.594 339.73 136.672 339.73C136.93 339.73 137.129 339.707 137.305 339.66C137.68 339.555 137.855 339.32 137.855 338.945C137.855 338.348 137.281 337.996 136.203 337.996C134.211 337.996 133.098 339.121 133.098 341.453V342.812H132.09C131.562 342.812 131.223 343.152 131.223 343.656C131.223 344.184 131.562 344.488 132.09 344.488H133.098V354.133C133.098 354.789 133.496 355.211 134.117 355.211ZM140.75 355.211C141.348 355.211 141.77 354.766 141.77 354.121V347.43C141.77 345.871 142.555 344.547 144.395 344.547C144.84 344.547 145.156 344.465 145.367 344.289C145.578 344.125 145.684 343.891 145.684 343.574C145.684 343.293 145.602 343.059 145.426 342.895C145.227 342.707 144.91 342.602 144.465 342.602C143.246 342.602 142.051 343.539 141.699 344.805H141.652V343.633C141.652 343.023 141.254 342.602 140.691 342.602C140.129 342.602 139.73 343.023 139.73 343.633V354.121C139.73 354.766 140.152 355.211 140.75 355.211ZM148.262 340.762C148.965 340.762 149.539 340.188 149.539 339.496C149.539 338.793 148.965 338.23 148.262 338.23C147.57 338.23 146.996 338.793 146.996 339.496C146.996 340.188 147.57 340.762 148.262 340.762ZM148.262 355.211C148.859 355.211 149.281 354.766 149.281 354.121V343.691C149.281 343.047 148.859 342.602 148.262 342.602C147.664 342.602 147.242 343.047 147.242 343.691V354.121C147.242 354.766 147.664 355.211 148.262 355.211ZM157.062 355.211C159.277 355.211 161.211 353.992 161.797 352.305C161.855 352.117 161.891 351.941 161.891 351.789C161.891 351.262 161.539 350.898 161.012 350.898C160.566 350.898 160.344 351.062 160.051 351.613C159.418 352.785 158.527 353.418 157.062 353.418C154.965 353.418 153.512 351.707 153.512 348.906C153.512 346.176 154.941 344.395 157.062 344.395C158.469 344.395 159.395 344.992 160.039 346.199C160.32 346.727 160.566 346.914 161.012 346.914C161.539 346.914 161.879 346.562 161.879 346.023C161.879 345.895 161.855 345.742 161.809 345.59C161.34 343.902 159.336 342.602 157.039 342.602C153.664 342.602 151.438 345.098 151.438 348.93C151.438 352.785 153.688 355.211 157.062 355.211ZM167.609 355.211C169.25 355.211 170.809 354.297 171.535 352.902H171.582V354.18C171.582 354.789 171.98 355.211 172.555 355.211C173.117 355.211 173.516 354.789 173.516 354.18V346.574C173.516 344.148 171.711 342.602 168.852 342.602C166.871 342.602 165.09 343.48 164.398 344.816C164.234 345.109 164.152 345.402 164.152 345.66C164.152 346.211 164.527 346.574 165.055 346.574C165.441 346.574 165.711 346.422 165.898 346.082C166.578 344.875 167.48 344.395 168.805 344.395C170.492 344.395 171.477 345.285 171.477 346.773V347.793L167.973 347.992C165.16 348.156 163.555 349.469 163.555 351.555C163.555 353.746 165.184 355.211 167.609 355.211ZM168.066 353.477C166.602 353.477 165.629 352.715 165.629 351.555C165.629 350.406 166.566 349.68 168.207 349.574L171.477 349.375V350.371C171.477 352.129 169.988 353.477 168.066 353.477Z" fill="black"/>
<g clip-path="url(#clip0_1907_2936)">
<path fill-rule="evenodd" clip-rule="evenodd" d="M0 4H32V28H0V4Z" fill="#229E45"/>
<path fill-rule="evenodd" clip-rule="evenodd" d="M16.07 25.8L31.145 16.015L15.98 6.19995L0.85498 16.035L16.07 25.8Z" fill="#F8E509"/>
<path fill-rule="evenodd" clip-rule="evenodd" d="M22.6399 16C22.6399 19.515 19.7849 22.365 16.2599 22.365C15.0003 22.363 13.7695 21.9876 12.7231 21.2863C11.6768 20.5849 10.8619 19.589 10.3814 18.4246C9.901 17.2602 9.77657 15.9794 10.0239 14.7443C10.2712 13.5092 10.8792 12.3751 11.7709 11.4854C12.6627 10.5958 13.7982 9.99048 15.0339 9.74606C16.2696 9.50165 17.5501 9.62909 18.7134 10.1123C19.8767 10.5955 20.8706 11.4127 21.5695 12.4607C22.2684 13.5087 22.6409 14.7403 22.6399 16Z" fill="#2B49A3"/>
<path fill-rule="evenodd" clip-rule="evenodd" d="M14.1651 19.815L13.9651 19.7L13.7651 19.8L13.8101 19.575L13.6501 19.405L13.8751 19.38L13.9851 19.18L14.0801 19.39L14.3001 19.43L14.1351 19.58M18.4351 20.895L18.2401 20.78L18.0401 20.88L18.0801 20.655L17.9251 20.49L18.1501 20.465L18.2551 20.26L18.3551 20.47L18.5751 20.51L18.4051 20.665M16.5951 19.165L16.4251 19.065L16.2501 19.155L16.2901 18.96L16.1501 18.815L16.3501 18.795L16.4401 18.615L16.5201 18.8L16.7151 18.835L16.5651 18.97M20.9151 18.545L20.7451 18.445L20.5701 18.535L20.6101 18.34L20.4751 18.2L20.6701 18.18L20.7601 18.005L20.8401 18.185L21.0301 18.22L20.8851 18.35M16.5201 17.25L16.3201 17.14L16.1201 17.24L16.1601 17.01L16.0051 16.845L16.2301 16.82L16.3351 16.615L16.4351 16.825L16.6551 16.865L16.4851 17.025M11.2551 15.275L11.0551 15.165L10.8551 15.265L10.9051 15.035L10.7401 14.87L10.9701 14.845L11.0701 14.64L11.1701 14.85L11.3901 14.89L11.2251 15.045M11.8901 17.905L11.6901 17.79L11.4901 17.89L11.5351 17.665L11.3751 17.5L11.6001 17.47L11.7051 17.27L11.8051 17.48L12.0251 17.52L11.8601 17.675M18.4601 14.31L18.2801 14.21L18.1001 14.3L18.1401 14.1L18.0001 13.95L18.2001 13.925L18.2951 13.745L18.3801 13.935L18.5801 13.97L18.4301 14.105M18.0951 16.02L17.9601 15.94L17.8151 16.01L17.8451 15.85L17.7351 15.735L17.8951 15.715L17.9701 15.575L18.0351 15.725L18.1851 15.75L18.0751 15.86M10.9651 18.38L10.8301 18.305L10.6951 18.37L10.7251 18.22L10.6201 18.11L10.7701 18.09L10.8401 17.955L10.9051 18.095L11.0551 18.125L10.9401 18.225M20.9501 18.99L20.8401 18.935L20.7301 18.985L20.7551 18.87L20.6701 18.79L20.7901 18.775L20.8501 18.675L20.9001 18.775L21.0251 18.8L20.9301 18.875" fill="#FFFFEF"/>
<path fill-rule="evenodd" clip-rule="evenodd" d="M10.9651 18.38L10.8301 18.305L10.6951 18.37L10.7251 18.22L10.6201 18.11L10.7701 18.09L10.8401 17.955L10.9051 18.095L11.0551 18.125L10.9401 18.225" fill="#FFFFEF"/>
<path fill-rule="evenodd" clip-rule="evenodd" d="M10.9651 18.38L10.8301 18.305L10.6951 18.37L10.7251 18.22L10.6201 18.11L10.7701 18.09L10.8401 17.955L10.9051 18.095L11.0551 18.125L10.9401 18.225M13.0551 18.375L12.9251 18.305L12.7901 18.37L12.8201 18.22L12.7151 18.11L12.8651 18.09L12.9351 17.955L13.0001 18.095L13.1501 18.12L13.0351 18.225M12.7951 19.075L12.6651 19L12.5301 19.07L12.5601 18.92L12.4551 18.805L12.6051 18.785L12.6751 18.65L12.7401 18.79L12.8901 18.82L12.7751 18.92M17.1451 17.81L17.0151 17.73L16.8751 17.8L16.9051 17.65L16.8051 17.535L16.9551 17.52L17.0251 17.385L17.0851 17.525L17.2351 17.55L17.1251 17.655M15.8701 17.805L15.7351 17.73L15.6001 17.8L15.6301 17.65L15.5301 17.535L15.6801 17.52L15.7501 17.38L15.8101 17.525L15.9601 17.55L15.8501 17.655M12.4101 17.365L12.3251 17.315L12.2401 17.355L12.2601 17.26L12.1951 17.19L12.2901 17.18L12.3301 17.095L12.3701 17.185L12.4651 17.2L12.3951 17.265M20.7851 19.535L20.6551 19.46L20.5201 19.53L20.5501 19.38L20.4451 19.265L20.5951 19.245L20.6651 19.11L20.7301 19.25L20.8801 19.28L20.7651 19.38M19.7251 19.68L19.6151 19.61L19.5001 19.67L19.5251 19.54L19.4401 19.45L19.5651 19.435L19.6251 19.32L19.6751 19.44L19.8001 19.46L19.7051 19.55M20.2251 19.665L20.1251 19.605L20.0201 19.655L20.0401 19.54L19.9601 19.455L20.0751 19.44L20.1301 19.34L20.1801 19.44L20.2951 19.465L20.2101 19.545M21.6651 18.405L21.5651 18.355L21.4651 18.405L21.4901 18.29L21.4101 18.205L21.5251 18.19L21.5751 18.09L21.6251 18.195L21.7301 18.215L21.6501 18.295M19.7101 20.385L19.5851 20.315L19.4501 20.375L19.4801 20.235L19.3801 20.135L19.5301 20.12L19.5951 19.995L19.6551 20.125L19.8051 20.15L19.6901 20.245M19.7201 20.955L19.6001 20.885L19.4801 20.95L19.5101 20.81L19.4151 20.71L19.5501 20.69L19.6101 20.565L19.6651 20.695L19.8001 20.72L19.7001 20.82M18.7501 19.665L18.6551 19.605L18.5551 19.655L18.5751 19.545L18.5001 19.46L18.6101 19.45L18.6601 19.35L18.7101 19.45L18.8201 19.47L18.7401 19.55M17.8501 19.665L17.7501 19.605L17.6501 19.655L17.6751 19.545L17.5951 19.46L17.7101 19.45L17.7601 19.35L17.8101 19.45L17.9151 19.47L17.8351 19.55M16.3151 18.32L16.2151 18.265L16.1151 18.315L16.1401 18.2L16.0601 18.12L16.1701 18.105L16.2201 18.005L16.2701 18.105L16.3801 18.13L16.3001 18.205M16.4851 21.055L16.4051 21.01L16.3151 21.055L16.3351 20.955L16.2701 20.885L16.3651 20.875L16.4101 20.79L16.4501 20.88L16.5451 20.895L16.4751 20.96M14.1651 16.63L13.9651 16.515L13.7651 16.615L13.8101 16.39L13.6501 16.225L13.8751 16.195L13.9851 15.995L14.0801 16.205L14.3001 16.245L14.1351 16.4" fill="#FFFFEF"/>
<path fill-rule="evenodd" clip-rule="evenodd" d="M22.2199 18.29C22.3438 17.9686 22.4408 17.6375 22.5099 17.3C19.1199 14.325 15.3449 12.8 10.5749 13.115C10.4019 13.4498 10.2596 13.7996 10.1499 14.16C15.7999 13.62 19.9499 16.12 22.2199 18.29Z" fill="white"/>
<path d="M20.7002 16.62L20.8152 16.685C20.798 16.719 20.7927 16.7577 20.8002 16.795C20.8119 16.8312 20.8369 16.8616 20.8702 16.88C20.9052 16.905 20.9402 16.92 20.9702 16.915C21.0002 16.915 21.0202 16.9 21.0352 16.88C21.0439 16.8668 21.0474 16.8508 21.0452 16.835C21.0411 16.8166 21.0325 16.7994 21.0202 16.785C21.0102 16.77 20.9852 16.735 20.9452 16.695C20.904 16.6526 20.8732 16.6013 20.8552 16.545C20.8427 16.5025 20.8459 16.4568 20.8643 16.4165C20.8826 16.3761 20.9149 16.3436 20.9552 16.325C20.9915 16.3099 21.0317 16.3064 21.0702 16.315C21.1172 16.3259 21.1614 16.3463 21.2002 16.375C21.2702 16.425 21.3152 16.475 21.3302 16.535C21.3371 16.5631 21.338 16.5923 21.3328 16.6208C21.3276 16.6492 21.3165 16.6762 21.3002 16.7L21.1802 16.625C21.1952 16.595 21.2002 16.565 21.1902 16.54C21.1852 16.515 21.1652 16.49 21.1302 16.47C21.1045 16.4494 21.073 16.4372 21.0402 16.435C21.0311 16.4347 21.0221 16.4369 21.0142 16.4413C21.0063 16.4457 20.9997 16.4522 20.9952 16.46C20.9852 16.475 20.9852 16.49 20.9902 16.51C20.9952 16.53 21.0202 16.57 21.0702 16.62C21.1202 16.67 21.1502 16.715 21.1702 16.745C21.188 16.7778 21.1961 16.815 21.1934 16.8522C21.1908 16.8895 21.1775 16.9252 21.1552 16.955C21.1318 16.989 21.0986 17.0152 21.0602 17.03C21.0227 17.0473 20.9807 17.0526 20.9402 17.045C20.8952 17.035 20.8502 17.015 20.8002 16.98C20.7252 16.93 20.6802 16.875 20.6652 16.815C20.6489 16.747 20.6596 16.6753 20.6952 16.615L20.7002 16.62ZM20.1202 16.24L20.2452 16.305C20.2297 16.3396 20.2262 16.3783 20.2352 16.415C20.2479 16.4494 20.2728 16.4778 20.3052 16.495C20.3452 16.52 20.3752 16.53 20.4052 16.525C20.4352 16.525 20.4552 16.51 20.4702 16.485C20.4777 16.4732 20.4813 16.4591 20.4802 16.445C20.4802 16.43 20.4702 16.41 20.4552 16.395C20.4295 16.3641 20.4029 16.3341 20.3752 16.305C20.3202 16.25 20.2852 16.205 20.2752 16.165C20.267 16.1393 20.2645 16.1121 20.268 16.0853C20.2714 16.0586 20.2807 16.0329 20.2952 16.01C20.3142 15.9792 20.3421 15.9548 20.3752 15.94C20.4095 15.9242 20.4478 15.919 20.4852 15.925C20.5314 15.9328 20.5756 15.9498 20.6152 15.975C20.6902 16.025 20.7352 16.075 20.7502 16.13C20.7593 16.1582 20.7622 16.1879 20.7587 16.2172C20.7553 16.2466 20.7455 16.2748 20.7302 16.3L20.6052 16.23C20.6202 16.195 20.6252 16.17 20.6152 16.145C20.6052 16.12 20.5852 16.095 20.5502 16.075C20.5225 16.0552 20.4892 16.0447 20.4552 16.045C20.4469 16.0456 20.439 16.0482 20.432 16.0525C20.425 16.0569 20.4193 16.0629 20.4152 16.07C20.4052 16.085 20.4052 16.1 20.4102 16.12C20.4152 16.14 20.4452 16.18 20.4952 16.23C20.5452 16.28 20.5802 16.32 20.5952 16.35C20.6152 16.3814 20.6258 16.4178 20.6258 16.455C20.6258 16.4923 20.6152 16.5287 20.5952 16.56C20.5736 16.5949 20.5423 16.6227 20.5052 16.64C20.4677 16.6573 20.4257 16.6626 20.3852 16.655C20.3337 16.6464 20.2844 16.6277 20.2402 16.6C20.1755 16.5656 20.1257 16.5087 20.1002 16.44C20.0808 16.3733 20.088 16.3017 20.1202 16.24ZM19.4102 16.05L19.7752 15.45L20.2152 15.725L20.1552 15.825L19.8352 15.625L19.7552 15.76L20.0552 15.945L19.9902 16.045L19.6902 15.86L19.5902 16.025L19.9252 16.225L19.8652 16.325L19.4152 16.05H19.4102ZM18.3752 15.2L18.4302 15.1L18.7002 15.235L18.5752 15.485C18.5352 15.495 18.4852 15.5 18.4252 15.495C18.3675 15.4887 18.3116 15.4717 18.2602 15.445C18.1997 15.4156 18.1479 15.3707 18.1102 15.315C18.0758 15.2633 18.0583 15.2022 18.0602 15.14C18.0627 15.0754 18.0798 15.0122 18.1102 14.955C18.1402 14.8949 18.1849 14.8433 18.2402 14.805C18.293 14.7685 18.3559 14.7493 18.4202 14.75C18.4702 14.75 18.5202 14.765 18.5802 14.8C18.6602 14.835 18.7102 14.885 18.7352 14.94C18.7612 14.9946 18.7665 15.0568 18.7502 15.115L18.6152 15.075C18.6234 15.0416 18.6199 15.0062 18.6052 14.975C18.5902 14.945 18.5652 14.925 18.5252 14.905C18.5018 14.8917 18.476 14.8835 18.4493 14.8809C18.4225 14.8784 18.3956 14.8815 18.3702 14.89C18.3202 14.905 18.2752 14.95 18.2402 15.02C18.2052 15.09 18.1902 15.155 18.2052 15.21C18.2121 15.2361 18.2246 15.2604 18.2419 15.2811C18.2591 15.3019 18.2807 15.3186 18.3052 15.33C18.3302 15.345 18.3602 15.355 18.3902 15.355C18.42 15.3596 18.4503 15.3596 18.4802 15.355L18.5202 15.275L18.3752 15.2ZM13.8652 14.085L13.9652 13.385L14.1752 13.42L14.2302 13.91L14.4252 13.46L14.6352 13.49L14.5352 14.18L14.4002 14.16L14.4852 13.615L14.2652 14.14L14.1302 14.12L14.0752 13.555L13.9952 14.105L13.8652 14.085ZM13.1602 14L13.2252 13.3L13.7402 13.35L13.7302 13.47L13.3552 13.435L13.3402 13.585L13.6902 13.62L13.6752 13.74L13.3252 13.705L13.3102 13.895L13.7002 13.93L13.6902 14.05L13.1602 14Z" fill="#309E3A"/>
<path d="M10.8249 13.565C10.8249 13.49 10.8399 13.435 10.8599 13.385C10.8774 13.3494 10.9011 13.3172 10.9299 13.29C10.9556 13.2641 10.9862 13.2437 11.0199 13.23C11.0699 13.215 11.1199 13.205 11.1699 13.205C11.2749 13.205 11.3549 13.245 11.4199 13.305C11.4509 13.3432 11.4739 13.3872 11.4876 13.4344C11.5013 13.4816 11.5055 13.5311 11.4999 13.58C11.4999 13.69 11.4649 13.78 11.3999 13.845C11.3665 13.8758 11.327 13.8993 11.2839 13.914C11.2409 13.9286 11.1952 13.9341 11.1499 13.93C11.1052 13.9304 11.0609 13.9218 11.0197 13.9046C10.9784 13.8874 10.9411 13.862 10.9099 13.83C10.8477 13.7563 10.8171 13.661 10.8249 13.565Z" fill="#309E3A"/>
<path d="M10.9697 13.5649C10.9697 13.6399 10.9847 13.6999 11.0197 13.7449C11.0547 13.7849 11.0997 13.8099 11.1597 13.8099C11.1857 13.8117 11.2117 13.8077 11.2359 13.7982C11.2602 13.7887 11.2819 13.7739 11.2997 13.7549C11.3347 13.7149 11.3497 13.6549 11.3547 13.5699C11.3547 13.4899 11.3447 13.4299 11.3047 13.3899C11.2884 13.3698 11.2679 13.3535 11.2445 13.3422C11.2212 13.331 11.1956 13.3251 11.1697 13.3249C11.1434 13.3241 11.1173 13.329 11.0931 13.3394C11.0689 13.3497 11.0473 13.3653 11.0297 13.3849C10.9897 13.4249 10.9747 13.4849 10.9697 13.5649Z" fill="#F7FFFF"/>
<path d="M11.6499 13.925L11.6599 13.225H11.9599C12.0349 13.225 12.0849 13.235 12.1199 13.25C12.1549 13.26 12.1799 13.285 12.1999 13.315C12.2199 13.345 12.2299 13.385 12.2299 13.43C12.2303 13.4781 12.2124 13.5245 12.1799 13.56C12.1429 13.5946 12.0954 13.6157 12.0449 13.62L12.1199 13.68C12.1399 13.7 12.1649 13.74 12.1949 13.795L12.2799 13.935H12.1099L12.0099 13.775L11.9399 13.675C11.9278 13.6612 11.9123 13.6509 11.8949 13.645C11.8722 13.6383 11.8486 13.635 11.8249 13.635H11.7949V13.925H11.6499Z" fill="#309E3A"/>
<path d="M11.7998 13.525H11.8998C11.9698 13.525 12.0148 13.525 12.0298 13.515C12.0448 13.515 12.0598 13.5 12.0698 13.49C12.0798 13.48 12.0848 13.455 12.0848 13.44C12.0848 13.41 12.0798 13.39 12.0648 13.38C12.0548 13.365 12.0348 13.355 12.0148 13.35H11.9148L11.7998 13.345V13.52V13.525Z" fill="white"/>
<path d="M12.45 13.26L12.71 13.275C12.765 13.275 12.81 13.28 12.84 13.29C12.879 13.3041 12.9135 13.3283 12.94 13.36C12.9688 13.395 12.9894 13.436 13 13.48C13.015 13.525 13.02 13.58 13.015 13.645C13.015 13.696 13.0065 13.7467 12.99 13.795C12.97 13.845 12.94 13.885 12.905 13.915C12.8759 13.939 12.8417 13.9561 12.805 13.965C12.775 13.975 12.73 13.975 12.68 13.975L12.415 13.96L12.45 13.26Z" fill="#309E3A"/>
<path d="M12.5851 13.385L12.5601 13.85H12.7501C12.7751 13.85 12.7951 13.84 12.8101 13.825C12.8251 13.81 12.8401 13.79 12.8501 13.76C12.8601 13.73 12.8701 13.685 12.8701 13.63L12.8651 13.505C12.8579 13.4786 12.8441 13.4545 12.8251 13.435C12.8085 13.4183 12.7878 13.4062 12.7651 13.4C12.7272 13.3916 12.6888 13.3866 12.6501 13.385H12.5851Z" fill="white"/>
<path d="M15.8799 14.51L16.0449 13.83L16.2649 13.88L16.4249 13.93C16.4599 13.95 16.4899 13.98 16.5049 14.025C16.5249 14.065 16.5249 14.11 16.5149 14.165C16.5049 14.205 16.4899 14.24 16.4649 14.265C16.4465 14.2869 16.4236 14.3046 16.3977 14.3167C16.3718 14.3288 16.3435 14.335 16.3149 14.335C16.2799 14.335 16.2299 14.325 16.1649 14.31L16.0799 14.285L16.0199 14.545L15.8799 14.51Z" fill="#309E3A"/>
<path d="M16.1499 13.98L16.1099 14.17L16.1849 14.19C16.2349 14.2 16.2749 14.21 16.2949 14.205C16.3143 14.2023 16.3324 14.1936 16.3468 14.1802C16.3611 14.1668 16.3709 14.1492 16.3749 14.13C16.3749 14.105 16.3749 14.085 16.3649 14.065C16.3539 14.0447 16.3362 14.0288 16.3149 14.02L16.2199 13.995L16.1549 13.98H16.1499Z" fill="white"/>
<path d="M16.5298 14.705L16.7648 14.045L17.0398 14.145C17.1148 14.17 17.1598 14.195 17.1898 14.215C17.2148 14.24 17.2348 14.265 17.2398 14.305C17.2448 14.345 17.2498 14.38 17.2398 14.42C17.2198 14.47 17.1898 14.505 17.1498 14.53C17.1098 14.55 17.0598 14.555 16.9998 14.545C17.0198 14.57 17.0398 14.595 17.0498 14.625L17.0898 14.76L17.1198 14.915L16.9648 14.86L16.9148 14.68C16.9057 14.6393 16.894 14.5993 16.8798 14.56C16.8732 14.5445 16.8629 14.5308 16.8498 14.52C16.8398 14.505 16.8198 14.495 16.7848 14.485L16.7598 14.475L16.6598 14.755L16.5298 14.705Z" fill="#309E3A"/>
<path d="M16.7999 14.3701L16.8949 14.4051C16.9599 14.4301 16.9999 14.4401 17.0199 14.4401C17.0349 14.4401 17.0499 14.4401 17.0649 14.4251C17.0799 14.4151 17.0899 14.4001 17.0949 14.3801C17.1049 14.3601 17.1049 14.3401 17.0949 14.3201C17.0875 14.3007 17.0733 14.2847 17.0549 14.2751L16.9549 14.2401L16.8549 14.2051L16.7949 14.3701H16.7999Z" fill="white"/>
<path d="M17.3498 14.68C17.367 14.6215 17.3959 14.5671 17.4348 14.52C17.4601 14.4899 17.4906 14.4645 17.5248 14.445C17.5558 14.4275 17.5897 14.4157 17.6248 14.41C17.6748 14.41 17.7248 14.41 17.7798 14.43C17.8245 14.4411 17.8664 14.4615 17.9026 14.49C17.9388 14.5184 17.9685 14.5542 17.9898 14.595C18.0298 14.675 18.0298 14.77 17.9998 14.88C17.9751 14.9745 17.914 15.0554 17.8298 15.105C17.7548 15.15 17.6648 15.155 17.5698 15.125C17.5253 15.1137 17.4836 15.0931 17.4474 15.0647C17.4112 15.0363 17.3814 15.0007 17.3598 14.96C17.3398 14.9163 17.3286 14.8691 17.3269 14.821C17.3252 14.773 17.333 14.7251 17.3498 14.68Z" fill="#309E3A"/>
<path d="M17.4901 14.72C17.4701 14.795 17.4651 14.86 17.4901 14.91C17.5151 14.96 17.5501 14.99 17.6051 15.01C17.6551 15.025 17.7051 15.02 17.7551 14.99C17.8051 14.965 17.8351 14.91 17.8601 14.83C17.8851 14.755 17.8851 14.695 17.8601 14.645C17.8502 14.6213 17.8352 14.6 17.8162 14.5827C17.7972 14.5655 17.7746 14.5526 17.7501 14.545C17.7255 14.5365 17.6993 14.5335 17.6734 14.536C17.6475 14.5386 17.6225 14.5468 17.6001 14.56C17.5501 14.59 17.5151 14.64 17.4901 14.72Z" fill="white"/>
<path d="M18.7148 15.655L19.0348 15.035L19.2998 15.17C19.3498 15.194 19.3954 15.2261 19.4348 15.265C19.4598 15.29 19.4748 15.32 19.4748 15.36C19.4748 15.4 19.4748 15.435 19.4548 15.47C19.4356 15.515 19.3998 15.5508 19.3548 15.57C19.3048 15.58 19.2548 15.58 19.1998 15.56C19.2198 15.59 19.2298 15.62 19.2398 15.645C19.2498 15.675 19.2548 15.72 19.2598 15.785L19.2698 15.945L19.1198 15.87L19.0998 15.685C19.0975 15.6431 19.0925 15.6013 19.0848 15.56C19.0814 15.5413 19.0728 15.524 19.0598 15.51L18.9998 15.475L18.9748 15.46L18.8398 15.72L18.7148 15.655Z" fill="#309E3A"/>
<path d="M19.0249 15.3601L19.1199 15.4101C19.1799 15.4401 19.2199 15.4601 19.2349 15.4601C19.2499 15.4601 19.2699 15.4601 19.2849 15.4501C19.2999 15.4451 19.3099 15.4301 19.3199 15.4101C19.3299 15.3901 19.3349 15.3701 19.3299 15.3501C19.3237 15.3302 19.3115 15.3127 19.2949 15.3001C19.2656 15.2821 19.2356 15.2654 19.2049 15.2501L19.1049 15.2001L19.0249 15.3601Z" fill="white"/>
<path d="M21.3052 16.935C21.3376 16.8835 21.3801 16.8393 21.4302 16.805C21.4639 16.7834 21.5011 16.7682 21.5402 16.76C21.5765 16.7525 21.6139 16.7525 21.6502 16.76C21.7002 16.77 21.7452 16.79 21.7902 16.82C21.8291 16.8442 21.8626 16.8763 21.8884 16.9142C21.9142 16.952 21.9319 16.9949 21.9402 17.04C21.9552 17.125 21.9302 17.22 21.8702 17.315C21.82 17.3976 21.7391 17.4569 21.6452 17.48C21.6004 17.4896 21.5541 17.4897 21.5093 17.4802C21.4645 17.4708 21.4222 17.4519 21.3852 17.425C21.3463 17.4007 21.3129 17.3686 21.287 17.3308C21.2612 17.2929 21.2436 17.25 21.2352 17.205C21.2202 17.115 21.2452 17.025 21.3052 16.935Z" fill="#309E3A"/>
<path d="M21.43 17.0149C21.38 17.0799 21.365 17.1399 21.375 17.1949C21.3787 17.2203 21.3877 17.2445 21.4015 17.2661C21.4153 17.2876 21.4335 17.306 21.455 17.3199C21.505 17.3549 21.555 17.3649 21.605 17.3499C21.655 17.3349 21.705 17.2999 21.75 17.2299C21.795 17.1599 21.815 17.0999 21.805 17.0499C21.8 16.9999 21.77 16.9549 21.725 16.9199C21.68 16.8849 21.625 16.8799 21.575 16.8949C21.525 16.9049 21.475 16.9449 21.425 17.0149H21.43Z" fill="white"/>
<path d="M15.0898 14.225L15.2048 13.735L15.5648 13.82L15.5498 13.9L15.2848 13.84L15.2598 13.95L15.5048 14.005L15.4848 14.09L15.2398 14.03L15.2098 14.165L15.4848 14.23L15.4648 14.31L15.0898 14.225Z" fill="#309E3A"/>
</g>
<path d="M53.8789 25H59.2109C62.8086 25 64.9414 23.2305 64.9414 20.2539C64.9414 18.0039 63.4648 16.3867 61.168 16.0938V16C62.7969 15.707 64.0859 14.0664 64.0859 12.3086C64.0859 9.77734 62.1289 8.08984 59.2344 8.08984H53.8789C53.2344 8.08984 52.8242 8.51172 52.8242 9.17969V23.9102C52.8242 24.5781 53.2344 25 53.8789 25ZM54.9336 15.3789V9.95312H58.7539C60.8047 9.95312 61.9531 10.8789 61.9531 12.5547C61.9531 14.3828 60.5938 15.3789 58.0977 15.3789H54.9336ZM54.9336 23.1367V17.1953H58.6953C61.3906 17.1953 62.7734 18.1914 62.7734 20.1484C62.7734 22.1055 61.4375 23.1367 58.8945 23.1367H54.9336ZM68.0352 25.2109C68.6328 25.2109 69.0547 24.7656 69.0547 24.1211V17.4297C69.0547 15.8711 69.8398 14.5469 71.6797 14.5469C72.125 14.5469 72.4414 14.4648 72.6523 14.2891C72.8633 14.125 72.9688 13.8906 72.9688 13.5742C72.9688 13.293 72.8867 13.0586 72.7109 12.8945C72.5117 12.707 72.1953 12.6016 71.75 12.6016C70.5312 12.6016 69.3359 13.5391 68.9844 14.8047H68.9375V13.6328C68.9375 13.0234 68.5391 12.6016 67.9766 12.6016C67.4141 12.6016 67.0156 13.0234 67.0156 13.6328V24.1211C67.0156 24.7656 67.4375 25.2109 68.0352 25.2109ZM77.7383 25.2109C79.3789 25.2109 80.9375 24.2969 81.6641 22.9023H81.7109V24.1797C81.7109 24.7891 82.1094 25.2109 82.6836 25.2109C83.2461 25.2109 83.6445 24.7891 83.6445 24.1797V16.5742C83.6445 14.1484 81.8398 12.6016 78.9805 12.6016C77 12.6016 75.2188 13.4805 74.5273 14.8164C74.3633 15.1094 74.2812 15.4023 74.2812 15.6602C74.2812 16.2109 74.6562 16.5742 75.1836 16.5742C75.5703 16.5742 75.8398 16.4219 76.0273 16.082C76.707 14.875 77.6094 14.3945 78.9336 14.3945C80.6211 14.3945 81.6055 15.2852 81.6055 16.7734V17.793L78.1016 17.9922C75.2891 18.1562 73.6836 19.4688 73.6836 21.5547C73.6836 23.7461 75.3125 25.2109 77.7383 25.2109ZM78.1953 23.4766C76.7305 23.4766 75.7578 22.7148 75.7578 21.5547C75.7578 20.4062 76.6953 19.6797 78.3359 19.5742L81.6055 19.375V20.3711C81.6055 22.1289 80.1172 23.4766 78.1953 23.4766ZM86.9375 25H94.168C94.7539 25 95.082 24.6953 95.082 24.1562C95.082 23.6289 94.7539 23.3242 94.168 23.3242H88.2148V23.2891L94.4609 14.9453C94.8125 14.4766 94.9414 14.207 94.9414 13.8555C94.9414 13.1992 94.4961 12.8125 93.7227 12.8125H86.668C86.082 12.8125 85.7539 13.1172 85.7539 13.6445C85.7539 14.1836 86.082 14.4883 86.668 14.4883H92.6094V14.5234L86.1875 23.0898C85.9297 23.4297 85.8477 23.6406 85.8477 23.9922C85.8477 24.6016 86.2812 25 86.9375 25ZM98.4688 10.7617C99.1719 10.7617 99.7461 10.1875 99.7461 9.49609C99.7461 8.79297 99.1719 8.23047 98.4688 8.23047C97.7773 8.23047 97.2031 8.79297 97.2031 9.49609C97.2031 10.1875 97.7773 10.7617 98.4688 10.7617ZM98.4688 25.2109C99.0664 25.2109 99.4883 24.7656 99.4883 24.1211V13.6914C99.4883 13.0469 99.0664 12.6016 98.4688 12.6016C97.8711 12.6016 97.4492 13.0469 97.4492 13.6914V24.1211C97.4492 24.7656 97.8711 25.2109 98.4688 25.2109ZM103.367 25.2109C103.965 25.2109 104.387 24.7656 104.387 24.1211V8.96875C104.387 8.32422 103.965 7.87891 103.367 7.87891C102.77 7.87891 102.348 8.32422 102.348 8.96875V24.1211C102.348 24.7656 102.77 25.2109 103.367 25.2109Z" fill="black"/>
<g clip-path="url(#clip1_1907_2936)">
<path fill-rule="evenodd" clip-rule="evenodd" d="M0 267H32V291H0V267Z" fill="white"/>
<path fill-rule="evenodd" clip-rule="evenodd" d="M21.33 267H32V291H21.33V267ZM0 267H10.665V291H0V267Z" fill="#008753"/>
</g>
<mask id="mask0_1907_2936" style="mask-type:alpha" maskUnits="userSpaceOnUse" x="0" y="334" width="33" height="24">
<path d="M0 334H32.0016V358H0V334Z" fill="white"/>
</mask>
<g mask="url(#mask0_1907_2936)">
<path fill-rule="evenodd" clip-rule="evenodd" d="M-0.000195384 353.116V338.894L10.5889 346.005L-0.00488281 353.116H-0.000195384Z" fill="black"/>
<path fill-rule="evenodd" clip-rule="evenodd" d="M7.22363 358.005L19.1111 350.008H35.9955V358H7.22363V358.005Z" fill="#0000CC"/>
<path fill-rule="evenodd" clip-rule="evenodd" d="M6.46387 334H35.9951V342.006H19.1061C19.1061 342.006 6.61855 333.92 6.46387 334Z" fill="#FF0000"/>
<path fill-rule="evenodd" clip-rule="evenodd" d="M-0.000195384 337V338.894L10.5889 346L-0.00488281 353.116V355.005L13.3311 346.005L-0.00488281 337H-0.000195384Z" fill="#FFCC00"/>
<path fill-rule="evenodd" clip-rule="evenodd" d="M0 337V334H4.45312L18.5719 343.562H36V348.447H18.5719L4.44844 358H0V355.005L13.3312 346.005L0.00468743 337H0Z" fill="#009933"/>
<path fill-rule="evenodd" clip-rule="evenodd" d="M4.44873 334H7.22373L19.1112 342.002H35.9956V343.563H18.5722L4.44873 334.005V334ZM4.44873 358.005H7.22373L19.1112 350.008H35.9956V348.452H18.5722L4.44873 358V358.005Z" fill="white"/>
</g>
<mask id="mask1_1907_2936" style="mask-type:alpha" maskUnits="userSpaceOnUse" x="0" y="400" width="32" height="24">
<path d="M0 400H32V424H0V400Z" fill="white"/>
</mask>
<g mask="url(#mask1_1907_2936)">
<path fill-rule="evenodd" clip-rule="evenodd" d="M-2 400H34V424H-2V400Z" fill="#0099FF"/>
<path fill-rule="evenodd" clip-rule="evenodd" d="M-2 400H34L-2 424V400Z" fill="#009900"/>
<path fill-rule="evenodd" clip-rule="evenodd" d="M-2 424H6L34 405V400H26L-2 419V424Z" fill="black"/>
<path fill-rule="evenodd" clip-rule="evenodd" d="M-2 418.3L25.44 400H28.14L-2 420.1V418.3ZM3.86 424L34 403.9V405.7L6.56 424H3.86Z" fill="#FFFF00"/>
</g>
<path d="M58.3516 421.164C58.9961 421.164 59.4062 420.742 59.4062 420.074V405.988H63.9062C64.5039 405.988 64.9141 405.602 64.9141 405.039C64.9141 404.477 64.5039 404.09 63.9062 404.09H52.7969C52.1992 404.09 51.7891 404.477 51.7891 405.039C51.7891 405.602 52.1992 405.988 52.7969 405.988H57.2969V420.074C57.2969 420.742 57.707 421.164 58.3516 421.164ZM67.0352 421.211C68.6758 421.211 70.2344 420.297 70.9609 418.902H71.0078V420.18C71.0078 420.789 71.4062 421.211 71.9805 421.211C72.543 421.211 72.9414 420.789 72.9414 420.18V412.574C72.9414 410.148 71.1367 408.602 68.2773 408.602C66.2969 408.602 64.5156 409.48 63.8242 410.816C63.6602 411.109 63.5781 411.402 63.5781 411.66C63.5781 412.211 63.9531 412.574 64.4805 412.574C64.8672 412.574 65.1367 412.422 65.3242 412.082C66.0039 410.875 66.9062 410.395 68.2305 410.395C69.918 410.395 70.9023 411.285 70.9023 412.773V413.793L67.3984 413.992C64.5859 414.156 62.9805 415.469 62.9805 417.555C62.9805 419.746 64.6094 421.211 67.0352 421.211ZM67.4922 419.477C66.0273 419.477 65.0547 418.715 65.0547 417.555C65.0547 416.406 65.9922 415.68 67.6328 415.574L70.9023 415.375V416.371C70.9023 418.129 69.4141 419.477 67.4922 419.477ZM76.5508 421.211C77.1484 421.211 77.5703 420.766 77.5703 420.121V413.828C77.5703 411.766 78.8242 410.406 80.7461 410.406C82.6211 410.406 83.5469 411.484 83.5469 413.453V420.121C83.5469 420.766 83.9688 421.211 84.5664 421.211C85.1641 421.211 85.5859 420.766 85.5859 420.121V413.09C85.5859 410.324 84.0391 408.602 81.3672 408.602C79.4805 408.602 78.1797 409.445 77.5 410.758H77.4531V409.633C77.4531 409.023 77.0547 408.602 76.4922 408.602C75.9297 408.602 75.5312 409.023 75.5312 409.633V420.121C75.5312 420.766 75.9531 421.211 76.5508 421.211ZM88.8906 421H96.1211C96.707 421 97.0352 420.695 97.0352 420.156C97.0352 419.629 96.707 419.324 96.1211 419.324H90.168V419.289L96.4141 410.945C96.7656 410.477 96.8945 410.207 96.8945 409.855C96.8945 409.199 96.4492 408.812 95.6758 408.812H88.6211C88.0352 408.812 87.707 409.117 87.707 409.645C87.707 410.184 88.0352 410.488 88.6211 410.488H94.5625V410.523L88.1406 419.09C87.8828 419.43 87.8008 419.641 87.8008 419.992C87.8008 420.602 88.2344 421 88.8906 421ZM102.848 421.211C104.488 421.211 106.047 420.297 106.773 418.902H106.82V420.18C106.82 420.789 107.219 421.211 107.793 421.211C108.355 421.211 108.754 420.789 108.754 420.18V412.574C108.754 410.148 106.949 408.602 104.09 408.602C102.109 408.602 100.328 409.48 99.6367 410.816C99.4727 411.109 99.3906 411.402 99.3906 411.66C99.3906 412.211 99.7656 412.574 100.293 412.574C100.68 412.574 100.949 412.422 101.137 412.082C101.816 410.875 102.719 410.395 104.043 410.395C105.73 410.395 106.715 411.285 106.715 412.773V413.793L103.211 413.992C100.398 414.156 98.793 415.469 98.793 417.555C98.793 419.746 100.422 421.211 102.848 421.211ZM103.305 419.477C101.84 419.477 100.867 418.715 100.867 417.555C100.867 416.406 101.805 415.68 103.445 415.574L106.715 415.375V416.371C106.715 418.129 105.227 419.477 103.305 419.477ZM112.363 421.211C112.961 421.211 113.383 420.766 113.383 420.121V413.828C113.383 411.766 114.637 410.406 116.559 410.406C118.434 410.406 119.359 411.484 119.359 413.453V420.121C119.359 420.766 119.781 421.211 120.379 421.211C120.977 421.211 121.398 420.766 121.398 420.121V413.09C121.398 410.324 119.852 408.602 117.18 408.602C115.293 408.602 113.992 409.445 113.312 410.758H113.266V409.633C113.266 409.023 112.867 408.602 112.305 408.602C111.742 408.602 111.344 409.023 111.344 409.633V420.121C111.344 420.766 111.766 421.211 112.363 421.211ZM125.125 406.762C125.828 406.762 126.402 406.188 126.402 405.496C126.402 404.793 125.828 404.23 125.125 404.23C124.434 404.23 123.859 404.793 123.859 405.496C123.859 406.188 124.434 406.762 125.125 406.762ZM125.125 421.211C125.723 421.211 126.145 420.766 126.145 420.121V409.691C126.145 409.047 125.723 408.602 125.125 408.602C124.527 408.602 124.105 409.047 124.105 409.691V420.121C124.105 420.766 124.527 421.211 125.125 421.211ZM132.449 421.211C134.09 421.211 135.648 420.297 136.375 418.902H136.422V420.18C136.422 420.789 136.82 421.211 137.395 421.211C137.957 421.211 138.355 420.789 138.355 420.18V412.574C138.355 410.148 136.551 408.602 133.691 408.602C131.711 408.602 129.93 409.48 129.238 410.816C129.074 411.109 128.992 411.402 128.992 411.66C128.992 412.211 129.367 412.574 129.895 412.574C130.281 412.574 130.551 412.422 130.738 412.082C131.418 410.875 132.32 410.395 133.645 410.395C135.332 410.395 136.316 411.285 136.316 412.773V413.793L132.812 413.992C130 414.156 128.395 415.469 128.395 417.555C128.395 419.746 130.023 421.211 132.449 421.211ZM132.906 419.477C131.441 419.477 130.469 418.715 130.469 417.555C130.469 416.406 131.406 415.68 133.047 415.574L136.316 415.375V416.371C136.316 418.129 134.828 419.477 132.906 419.477Z" fill="black"/>
<mask id="mask2_1907_2936" style="mask-type:alpha" maskUnits="userSpaceOnUse" x="0" y="466" width="32" height="24">
<path d="M0 466H31.9969V490H0V466Z" fill="white"/>
</mask>
<g mask="url(#mask2_1907_2936)">
<path fill-rule="evenodd" clip-rule="evenodd" d="M-2.00146 466H33.9985V490H-2.00146V466Z" fill="#EC0015"/>
<path fill-rule="evenodd" clip-rule="evenodd" d="M20.386 483.859L16.186 480.733L12.0142 483.888L13.561 478.75L9.38916 475.577L14.5501 475.53L16.1532 470.402L17.7798 475.516L22.9407 475.52L18.7923 478.727L20.3813 483.864L20.386 483.859Z" fill="#FFFF00"/>
</g>
<path d="M58.9541 487.164C59.6221 487.164 59.9736 486.906 60.2432 486.203L65.9268 471.426C66.0088 471.203 66.0557 471.004 66.0557 470.84C66.0557 470.312 65.6104 469.926 64.9893 469.926C64.4736 469.926 64.1924 470.137 63.9932 470.676L58.9893 484.434H58.9189L53.915 470.676C53.7275 470.16 53.4111 469.926 52.9072 469.926C52.2744 469.926 51.8525 470.289 51.8525 470.84C51.8525 471.004 51.8877 471.191 51.9814 471.426L57.6533 486.191C57.9229 486.895 58.2861 487.164 58.9541 487.164ZM68.6221 472.762C69.3252 472.762 69.8994 472.188 69.8994 471.496C69.8994 470.793 69.3252 470.23 68.6221 470.23C67.9307 470.23 67.3564 470.793 67.3564 471.496C67.3564 472.188 67.9307 472.762 68.6221 472.762ZM68.6221 487.211C69.2197 487.211 69.6416 486.766 69.6416 486.121V475.691C69.6416 475.047 69.2197 474.602 68.6221 474.602C68.0244 474.602 67.6025 475.047 67.6025 475.691V486.121C67.6025 486.766 68.0244 487.211 68.6221 487.211ZM77.5049 487.211C79.7314 487.211 81.4424 486.273 82.2275 484.621C82.3213 484.398 82.3799 484.188 82.3799 484.023C82.3799 483.484 82.0166 483.133 81.4775 483.133C81.1611 483.133 80.9268 483.25 80.7158 483.543C79.7666 484.926 78.876 485.441 77.4229 485.441C75.2432 485.441 73.8955 483.918 73.8955 481.457H81.5127C82.2158 481.457 82.6377 481.012 82.6377 480.273C82.6377 476.934 80.4463 474.602 77.3291 474.602C73.9658 474.602 71.7979 477.109 71.7979 480.953C71.7979 484.891 73.9072 487.211 77.5049 487.211ZM73.9072 479.863C74.0361 477.766 75.3955 476.371 77.2939 476.371C79.1807 476.371 80.4814 477.754 80.5283 479.863H73.9072ZM85.3564 484.188C85.3564 486.133 86.3408 487.094 88.3096 487.094H88.4385C89.5752 487.094 89.9268 486.766 89.9268 486.145C89.9268 485.664 89.6221 485.395 88.9541 485.348L88.7783 485.336C87.7588 485.266 87.3955 484.773 87.3955 483.742V476.488H88.9658C89.5518 476.488 89.8799 476.184 89.8799 475.645C89.8799 475.117 89.5518 474.812 88.9658 474.812H87.3955V472.727C87.3955 472.082 86.9736 471.637 86.376 471.637C85.7783 471.637 85.3564 472.082 85.3564 472.727V474.812H84.3369C83.751 474.812 83.4229 475.117 83.4229 475.645C83.4229 476.184 83.751 476.488 84.3369 476.488H85.3564V484.188ZM92.9619 487.211C93.5596 487.211 93.9814 486.766 93.9814 486.121V479.828C93.9814 477.766 95.2354 476.406 97.1572 476.406C99.0322 476.406 99.958 477.484 99.958 479.453V486.121C99.958 486.766 100.38 487.211 100.978 487.211C101.575 487.211 101.997 486.766 101.997 486.121V479.09C101.997 476.324 100.45 474.602 97.7783 474.602C95.8916 474.602 94.5908 475.445 93.9111 476.758H93.8643V475.633C93.8643 475.023 93.4658 474.602 92.9033 474.602C92.3408 474.602 91.9424 475.023 91.9424 475.633V486.121C91.9424 486.766 92.3643 487.211 92.9619 487.211ZM108.149 487.211C109.79 487.211 111.349 486.297 112.075 484.902H112.122V486.18C112.122 486.789 112.521 487.211 113.095 487.211C113.657 487.211 114.056 486.789 114.056 486.18V478.574C114.056 476.148 112.251 474.602 109.392 474.602C107.411 474.602 105.63 475.48 104.938 476.816C104.774 477.109 104.692 477.402 104.692 477.66C104.692 478.211 105.067 478.574 105.595 478.574C105.981 478.574 106.251 478.422 106.438 478.082C107.118 476.875 108.021 476.395 109.345 476.395C111.032 476.395 112.017 477.285 112.017 478.773V479.793L108.513 479.992C105.7 480.156 104.095 481.469 104.095 483.555C104.095 485.746 105.724 487.211 108.149 487.211ZM108.606 485.477C107.142 485.477 106.169 484.715 106.169 483.555C106.169 482.406 107.106 481.68 108.747 481.574L112.017 481.375V482.371C112.017 484.129 110.528 485.477 108.606 485.477ZM117.665 487.211C118.286 487.211 118.685 486.742 118.685 486.121V479.359C118.685 477.672 119.856 476.406 121.474 476.406C122.985 476.406 123.97 477.367 123.97 478.832V486.121C123.97 486.742 124.368 487.211 124.989 487.211C125.61 487.211 126.009 486.742 126.009 486.121V479.254C126.009 477.602 127.146 476.406 128.763 476.406C130.368 476.406 131.294 477.391 131.294 479.055V486.121C131.294 486.742 131.692 487.211 132.313 487.211C132.935 487.211 133.333 486.742 133.333 486.121V478.586C133.333 476.172 131.774 474.602 129.36 474.602C127.649 474.602 126.22 475.469 125.54 476.922H125.493C124.966 475.445 123.735 474.602 122.071 474.602C120.431 474.602 119.188 475.469 118.614 476.758H118.567V475.633C118.567 475.023 118.169 474.602 117.606 474.602C117.044 474.602 116.646 475.023 116.646 475.633V486.121C116.646 486.742 117.044 487.211 117.665 487.211Z" fill="black"/>
<g clip-path="url(#clip2_1907_2936)">
<path fill-rule="evenodd" clip-rule="evenodd" d="M0 70H32V94H0V70Z" fill="#FFE800"/>
<path fill-rule="evenodd" clip-rule="evenodd" d="M0 82H32V94H0V82Z" fill="#00148E"/>
<path fill-rule="evenodd" clip-rule="evenodd" d="M0 88H32V94H0V88Z" fill="#DA0010"/>
</g>
<path d="M59.9375 91.2812C63.0312 91.2812 65.2344 90.0156 66.3477 87.7773C66.5352 87.4023 66.6289 87.0859 66.6289 86.7227C66.6289 86.1719 66.2305 85.7734 65.668 85.7734C65.1992 85.7734 64.9062 85.9961 64.6836 86.5117C63.8867 88.4102 62.1523 89.3359 59.9492 89.3359C56.6094 89.3359 54.4883 86.6875 54.4883 82.5391C54.4883 78.4258 56.6328 75.7539 59.9375 75.7539C62.0234 75.7539 63.8398 76.832 64.6367 78.8242C64.8711 79.4219 65.2344 79.7031 65.75 79.7031C66.3242 79.7031 66.6992 79.3281 66.6992 78.7422C66.6992 78.4961 66.6406 78.2031 66.5234 77.9102C65.5273 75.3906 63.0195 73.8086 59.9375 73.8086C55.3086 73.8086 52.3203 77.2305 52.3203 82.5391C52.3203 87.8945 55.2734 91.2812 59.9375 91.2812ZM74.1875 91.2109C77.5508 91.2109 79.8242 88.7852 79.8242 84.9062C79.8242 81.0156 77.5508 78.6016 74.1875 78.6016C70.8125 78.6016 68.5391 81.0156 68.5391 84.9062C68.5391 88.7852 70.8125 91.2109 74.1875 91.2109ZM74.1875 89.418C72.0312 89.418 70.6133 87.7773 70.6133 84.9062C70.6133 82.0352 72.0312 80.3945 74.1875 80.3945C76.3438 80.3945 77.75 82.0352 77.75 84.9062C77.75 87.7773 76.3438 89.418 74.1875 89.418ZM83.0117 91.2109C83.6094 91.2109 84.0312 90.7656 84.0312 90.1211V74.9688C84.0312 74.3242 83.6094 73.8789 83.0117 73.8789C82.4141 73.8789 81.9922 74.3242 81.9922 74.9688V90.1211C81.9922 90.7656 82.4141 91.2109 83.0117 91.2109ZM90.9453 91.2109C92.8203 91.2109 94.0859 90.4258 94.8125 89.0195H94.8594V90.1797C94.8594 90.7656 95.2461 91.2109 95.832 91.2109C96.418 91.2109 96.793 90.7656 96.793 90.1797V79.6914C96.793 79.0469 96.3711 78.6016 95.7734 78.6016C95.1758 78.6016 94.7539 79.0469 94.7539 79.6914V85.9727C94.7539 88.0469 93.5586 89.4062 91.5781 89.4062C89.6914 89.4062 88.7656 88.3398 88.7656 86.3594V79.6914C88.7656 79.0469 88.3438 78.6016 87.7461 78.6016C87.1484 78.6016 86.7266 79.0469 86.7266 79.6914V86.7227C86.7266 89.4883 88.2852 91.2109 90.9453 91.2109ZM100.461 91.2109C101.082 91.2109 101.48 90.7422 101.48 90.1211V83.3594C101.48 81.6719 102.652 80.4062 104.27 80.4062C105.781 80.4062 106.766 81.3672 106.766 82.832V90.1211C106.766 90.7422 107.164 91.2109 107.785 91.2109C108.406 91.2109 108.805 90.7422 108.805 90.1211V83.2539C108.805 81.6016 109.941 80.4062 111.559 80.4062C113.164 80.4062 114.09 81.3906 114.09 83.0547V90.1211C114.09 90.7422 114.488 91.2109 115.109 91.2109C115.73 91.2109 116.129 90.7422 116.129 90.1211V82.5859C116.129 80.1719 114.57 78.6016 112.156 78.6016C110.445 78.6016 109.016 79.4688 108.336 80.9219H108.289C107.762 79.4453 106.531 78.6016 104.867 78.6016C103.227 78.6016 101.984 79.4688 101.41 80.7578H101.363V79.6328C101.363 79.0234 100.965 78.6016 100.402 78.6016C99.8398 78.6016 99.4414 79.0234 99.4414 79.6328V90.1211C99.4414 90.7422 99.8398 91.2109 100.461 91.2109ZM119.785 91.2109C120.371 91.2109 120.781 90.8008 120.781 90.2148V88.9375H120.828C121.625 90.3438 123.02 91.2109 124.801 91.2109C127.918 91.2109 129.98 88.7383 129.98 84.9062C129.98 81.0859 127.906 78.6016 124.836 78.6016C123.113 78.6016 121.695 79.457 120.922 80.8516H120.875V74.9688C120.875 74.3242 120.453 73.8789 119.855 73.8789C119.258 73.8789 118.836 74.3242 118.836 74.9688V90.2148C118.836 90.8125 119.211 91.2109 119.785 91.2109ZM124.402 89.418C122.34 89.418 120.863 87.625 120.863 84.9062C120.863 82.1992 122.34 80.3945 124.402 80.3945C126.559 80.3945 127.895 82.1406 127.895 84.9062C127.895 87.6953 126.559 89.418 124.402 89.418ZM133.168 76.7617C133.871 76.7617 134.445 76.1875 134.445 75.4961C134.445 74.793 133.871 74.2305 133.168 74.2305C132.477 74.2305 131.902 74.793 131.902 75.4961C131.902 76.1875 132.477 76.7617 133.168 76.7617ZM133.168 91.2109C133.766 91.2109 134.188 90.7656 134.188 90.1211V79.6914C134.188 79.0469 133.766 78.6016 133.168 78.6016C132.57 78.6016 132.148 79.0469 132.148 79.6914V90.1211C132.148 90.7656 132.57 91.2109 133.168 91.2109ZM140.492 91.2109C142.133 91.2109 143.691 90.2969 144.418 88.9023H144.465V90.1797C144.465 90.7891 144.863 91.2109 145.438 91.2109C146 91.2109 146.398 90.7891 146.398 90.1797V82.5742C146.398 80.1484 144.594 78.6016 141.734 78.6016C139.754 78.6016 137.973 79.4805 137.281 80.8164C137.117 81.1094 137.035 81.4023 137.035 81.6602C137.035 82.2109 137.41 82.5742 137.938 82.5742C138.324 82.5742 138.594 82.4219 138.781 82.082C139.461 80.875 140.363 80.3945 141.688 80.3945C143.375 80.3945 144.359 81.2852 144.359 82.7734V83.793L140.855 83.9922C138.043 84.1562 136.438 85.4688 136.438 87.5547C136.438 89.7461 138.066 91.2109 140.492 91.2109ZM140.949 89.4766C139.484 89.4766 138.512 88.7148 138.512 87.5547C138.512 86.4062 139.449 85.6797 141.09 85.5742L144.359 85.375V86.3711C144.359 88.1289 142.871 89.4766 140.949 89.4766Z" fill="black"/>
<g clip-path="url(#clip3_1907_2936)">
<mask id="mask3_1907_2936" style="mask-type:alpha" maskUnits="userSpaceOnUse" x="-1" y="136" width="34" height="25">
<path d="M-0.0078125 136H32.0744V160.064H-0.0078125V136Z" fill="white"/>
</mask>
<g mask="url(#mask3_1907_2936)">
<path fill-rule="evenodd" clip-rule="evenodd" d="M33.221 160.064H-1.15479V136H33.221V160.064Z" fill="#BA0000"/>
<path fill-rule="evenodd" clip-rule="evenodd" d="M15.5441 147.647C15.5441 147.647 13.1189 146.603 13.4667 143.896C13.8004 142.594 14.3973 141.706 15.4736 141.222C15.9812 141.067 16.4982 140.996 17.0246 140.954C16.8836 141.085 16.7708 141.217 16.7097 141.377C16.5969 141.678 16.6815 141.96 16.8366 142.246C17.0293 142.575 17.1468 142.914 17.1844 143.356C17.2198 143.657 17.1749 143.962 17.0544 144.24C16.9339 144.518 16.742 144.759 16.4982 144.939C16.188 145.179 15.8214 145.264 15.5206 145.536C15.2856 145.762 15.1446 145.992 15.0976 146.387C15.0882 147.144 15.2903 147.252 15.5441 147.647Z" fill="white"/>
<path fill-rule="evenodd" clip-rule="evenodd" d="M15.0791 143.732V143.717V143.732Z" fill="#BA0000"/>
<path d="M15.0791 143.732V143.717" stroke="black" stroke-width="0.24675"/>
<path d="M15.2339 147.365C14.2939 146.533 14.3738 144.432 15.0929 143.731" stroke="#BA0000" stroke-width="0.24675"/>
<path fill-rule="evenodd" clip-rule="evenodd" d="M15.6713 143.261L15.8264 143.52L15.5444 143.402L15.3235 143.637L15.3611 143.332L15.0791 143.214L15.3846 143.144L15.4222 142.843L15.5773 143.102L15.8875 143.031" fill="#BA0000"/>
<path fill-rule="evenodd" clip-rule="evenodd" d="M15.751 147.468C15.751 147.468 16.033 144.841 18.7261 144.38C20.0703 144.324 21.0949 144.629 21.8751 145.522C22.1712 145.959 22.3874 146.434 22.5801 146.923C22.4156 146.829 22.2605 146.758 22.0819 146.749C21.767 146.725 21.5179 146.89 21.2923 147.12C21.0288 147.412 20.7003 147.637 20.3335 147.778C20.0563 147.901 19.7517 147.948 19.4504 147.915C19.1492 147.882 18.862 147.77 18.618 147.59C18.2984 147.36 18.1104 147.036 17.7626 146.829C17.4799 146.661 17.1449 146.604 16.8226 146.669C16.0941 146.885 16.0565 147.111 15.751 147.468Z" fill="white"/>
<path fill-rule="evenodd" clip-rule="evenodd" d="M19.356 145.879H19.3701H19.356Z" fill="#BA0000"/>
<path d="M19.356 145.879H19.3701" stroke="black" stroke-width="0.24675"/>
<path d="M15.9248 147.092C16.4512 145.945 18.4816 145.409 19.3605 145.889" stroke="#BA0000" stroke-width="0.24675"/>
<path fill-rule="evenodd" clip-rule="evenodd" d="M19.9813 146.307L19.7792 146.528L19.8074 146.223L19.5254 146.082L19.8215 146.035L19.8497 145.72L20.0095 146.002L20.3103 145.945L20.1082 146.166L20.2633 146.448" fill="#BA0000"/>
<path fill-rule="evenodd" clip-rule="evenodd" d="M15.9297 147.656C15.9297 147.656 18.5147 147.092 19.8025 149.503C20.2866 150.758 20.3195 151.825 19.7226 152.845C19.403 153.268 19.0176 153.62 18.6181 153.963C18.6557 153.775 18.6698 153.606 18.6228 153.437C18.5476 153.127 18.3126 152.944 18.0212 152.803C17.6596 152.644 17.3407 152.403 17.0906 152.098C16.8878 151.874 16.7476 151.6 16.6841 151.305C16.6205 151.009 16.6359 150.702 16.7287 150.415C16.8415 150.039 17.0906 149.757 17.1752 149.362C17.2455 149.042 17.1936 148.706 17.0295 148.422C16.5924 147.802 16.3668 147.835 15.9297 147.656Z" fill="white"/>
<path fill-rule="evenodd" clip-rule="evenodd" d="M18.5806 150.575L18.59 150.584L18.5806 150.575Z" fill="#BA0000"/>
<path d="M18.5806 150.575L18.59 150.584" stroke="black" stroke-width="0.24675"/>
<path d="M16.3481 147.703C17.5983 147.839 18.7498 149.592 18.5759 150.584" stroke="#BA0000" stroke-width="0.24675"/>
<path fill-rule="evenodd" clip-rule="evenodd" d="M18.3735 151.303L18.0962 151.181L18.4017 151.111L18.4393 150.796L18.585 151.064L18.8905 150.993L18.679 151.228L18.82 151.496L18.5474 151.374L18.3359 151.613" fill="#BA0000"/>
<path fill-rule="evenodd" clip-rule="evenodd" d="M15.8734 147.924C15.8734 147.924 17.1377 150.246 15.1919 152.154C14.1203 152.972 13.1051 153.305 11.9583 153.019C11.4648 152.831 11.0183 152.563 10.5718 152.271C10.7598 152.257 10.9337 152.224 11.0841 152.13C11.3567 151.971 11.4648 151.693 11.5212 151.378C11.5701 150.986 11.7119 150.61 11.9348 150.283C12.0925 150.025 12.3154 149.813 12.5811 149.669C12.8468 149.525 13.1459 149.453 13.4482 149.461C13.843 149.465 14.1814 149.63 14.5856 149.602C14.9099 149.559 15.1637 149.47 15.4504 149.188C15.9204 148.601 15.8264 148.389 15.8734 147.919V147.924Z" fill="white"/>
<path fill-rule="evenodd" clip-rule="evenodd" d="M13.8148 151.289L13.8101 151.298L13.8148 151.289Z" fill="#BA0000"/>
<path d="M13.8148 151.289L13.8101 151.298" stroke="black" stroke-width="0.24675"/>
<path d="M15.939 148.333C16.1693 149.574 14.8063 151.176 13.8052 151.28" stroke="#BA0000" stroke-width="0.24675"/>
<path fill-rule="evenodd" clip-rule="evenodd" d="M13.0579 151.294L13.1002 150.993L13.2553 151.261L13.5655 151.214L13.3493 151.43L13.5044 151.698L13.2177 151.562L13.0015 151.778L13.0391 151.477L12.7524 151.341" fill="#BA0000"/>
<path fill-rule="evenodd" clip-rule="evenodd" d="M15.5867 147.872C15.5867 147.872 13.8195 149.837 11.3661 148.643C10.2381 147.905 9.58955 147.054 9.48145 145.879C9.49555 145.348 9.59425 144.841 9.72115 144.328C9.80105 144.498 9.89035 144.648 10.0266 144.761C10.2663 144.963 10.5671 144.972 10.8867 144.921C11.2704 144.837 11.6686 144.846 12.0476 144.949C12.3445 145.011 12.6195 145.151 12.8448 145.354C13.0702 145.557 13.2378 145.816 13.3307 146.105C13.4576 146.476 13.4153 146.852 13.5798 147.224C13.7208 147.515 13.89 147.722 14.2519 147.9C14.9663 148.149 15.1308 147.99 15.5867 147.877V147.872Z" fill="white"/>
<path fill-rule="evenodd" clip-rule="evenodd" d="M11.7281 147.054L11.7188 147.05L11.7281 147.054Z" fill="#BA0000"/>
<path d="M11.7281 147.054L11.7188 147.05" stroke="black" stroke-width="0.24675"/>
<path d="M15.2198 148.074C14.1294 148.699 12.1648 147.947 11.7324 147.04" stroke="#BA0000" stroke-width="0.24675"/>
<path fill-rule="evenodd" clip-rule="evenodd" d="M11.474 146.34L11.7701 146.279L11.568 146.514L11.7137 146.791L11.4411 146.66L11.239 146.895L11.2719 146.575L10.9946 146.443L11.2907 146.382L11.3236 146.063" fill="#BA0000"/>
</g>
</g>
<path d="M53.7109 157.164C54.3555 157.164 54.7656 156.742 54.7656 156.074V149.301H64.0469V156.074C64.0469 156.742 64.457 157.164 65.1016 157.164C65.7461 157.164 66.1562 156.742 66.1562 156.074V141.016C66.1562 140.348 65.7461 139.926 65.1016 139.926C64.457 139.926 64.0469 140.348 64.0469 141.016V147.402H54.7656V141.016C54.7656 140.348 54.3555 139.926 53.7109 139.926C53.0664 139.926 52.6562 140.348 52.6562 141.016V156.074C52.6562 156.742 53.0664 157.164 53.7109 157.164ZM74.1719 157.211C77.5352 157.211 79.8086 154.785 79.8086 150.906C79.8086 147.016 77.5352 144.602 74.1719 144.602C70.7969 144.602 68.5234 147.016 68.5234 150.906C68.5234 154.785 70.7969 157.211 74.1719 157.211ZM74.1719 155.418C72.0156 155.418 70.5977 153.777 70.5977 150.906C70.5977 148.035 72.0156 146.395 74.1719 146.395C76.3281 146.395 77.7344 148.035 77.7344 150.906C77.7344 153.777 76.3281 155.418 74.1719 155.418ZM82.8906 157.211C83.4883 157.211 83.9102 156.766 83.9102 156.121V149.828C83.9102 147.766 85.1641 146.406 87.0859 146.406C88.9609 146.406 89.8867 147.484 89.8867 149.453V156.121C89.8867 156.766 90.3086 157.211 90.9062 157.211C91.5039 157.211 91.9258 156.766 91.9258 156.121V149.09C91.9258 146.324 90.3789 144.602 87.707 144.602C85.8203 144.602 84.5195 145.445 83.8398 146.758H83.793V145.633C83.793 145.023 83.3945 144.602 82.832 144.602C82.2695 144.602 81.8711 145.023 81.8711 145.633V156.121C81.8711 156.766 82.293 157.211 82.8906 157.211ZM99.4492 161.594C102.918 161.629 105.074 159.66 105.074 156.754V145.656C105.074 145.023 104.641 144.602 104.055 144.602C103.469 144.602 103.035 145.023 103.035 145.656V146.816H103C102.191 145.445 100.844 144.602 99.1211 144.602C95.9688 144.602 93.9297 147.039 93.9297 150.859C93.9297 154.645 95.9688 157.094 99.0742 157.094C100.785 157.094 102.238 156.227 102.988 154.902H103.035V156.824C103.035 158.641 101.711 159.895 99.5312 159.859C98.2891 159.836 97.4336 159.391 96.3906 158.242C96.0742 157.891 95.875 157.773 95.5352 157.773C94.9961 157.773 94.6211 158.137 94.6211 158.652C94.6211 158.922 94.6914 159.156 94.8555 159.414C95.7109 160.762 97.4102 161.57 99.4492 161.594ZM99.4844 155.301C97.3867 155.301 96.0156 153.59 96.0156 150.859C96.0156 148.129 97.3867 146.395 99.4844 146.395C101.605 146.395 103.035 148.176 103.035 150.859C103.035 153.543 101.605 155.301 99.4844 155.301ZM114.016 157.164C114.66 157.164 115.07 156.742 115.07 156.074V151.094L116.957 149.078L123.238 156.66C123.543 157.035 123.801 157.176 124.188 157.176C124.762 157.176 125.207 156.73 125.207 156.168C125.207 155.91 125.113 155.641 124.902 155.383L118.422 147.578L124.246 141.543C124.434 141.344 124.527 141.121 124.527 140.875C124.527 140.336 124.129 139.914 123.555 139.914C123.227 139.914 122.992 140.031 122.723 140.324L115.188 148.34H115.07V141.016C115.07 140.348 114.66 139.926 114.016 139.926C113.371 139.926 112.961 140.348 112.961 141.016V156.074C112.961 156.742 113.371 157.164 114.016 157.164ZM131.758 157.211C135.121 157.211 137.395 154.785 137.395 150.906C137.395 147.016 135.121 144.602 131.758 144.602C128.383 144.602 126.109 147.016 126.109 150.906C126.109 154.785 128.383 157.211 131.758 157.211ZM131.758 155.418C129.602 155.418 128.184 153.777 128.184 150.906C128.184 148.035 129.602 146.395 131.758 146.395C133.914 146.395 135.32 148.035 135.32 150.906C135.32 153.777 133.914 155.418 131.758 155.418ZM140.477 157.211C141.074 157.211 141.496 156.766 141.496 156.121V149.828C141.496 147.766 142.75 146.406 144.672 146.406C146.547 146.406 147.473 147.484 147.473 149.453V156.121C147.473 156.766 147.895 157.211 148.492 157.211C149.09 157.211 149.512 156.766 149.512 156.121V149.09C149.512 146.324 147.965 144.602 145.293 144.602C143.406 144.602 142.105 145.445 141.426 146.758H141.379V145.633C141.379 145.023 140.98 144.602 140.418 144.602C139.855 144.602 139.457 145.023 139.457 145.633V156.121C139.457 156.766 139.879 157.211 140.477 157.211ZM157.035 161.594C160.504 161.629 162.66 159.66 162.66 156.754V145.656C162.66 145.023 162.227 144.602 161.641 144.602C161.055 144.602 160.621 145.023 160.621 145.656V146.816H160.586C159.777 145.445 158.43 144.602 156.707 144.602C153.555 144.602 151.516 147.039 151.516 150.859C151.516 154.645 153.555 157.094 156.66 157.094C158.371 157.094 159.824 156.227 160.574 154.902H160.621V156.824C160.621 158.641 159.297 159.895 157.117 159.859C155.875 159.836 155.02 159.391 153.977 158.242C153.66 157.891 153.461 157.773 153.121 157.773C152.582 157.773 152.207 158.137 152.207 158.652C152.207 158.922 152.277 159.156 152.441 159.414C153.297 160.762 154.996 161.57 157.035 161.594ZM157.07 155.301C154.973 155.301 153.602 153.59 153.602 150.859C153.602 148.129 154.973 146.395 157.07 146.395C159.191 146.395 160.621 148.176 160.621 150.859C160.621 153.543 159.191 155.301 157.07 155.301Z" fill="black"/>
<g clip-path="url(#clip4_1907_2936)">
<path d="M0 202H32V226H0V202Z" fill="white"/>
<path d="M0 202H32V209.2H0V202Z" fill="black"/>
<path d="M0 218.8H32V226H0V218.8Z" fill="#006600"/>
<path d="M11.71 221.125L11.98 221.275L18.985 209.125C19.39 209.035 19.615 208.645 19.84 208.255C19.99 207.985 20.59 206.95 20.845 205.6C20.1333 206.232 19.5303 206.977 19.06 207.805C18.835 208.195 18.61 208.585 18.715 208.99L11.71 221.125Z" fill="black" stroke="black" stroke-width="0.375" stroke-miterlimit="10"/>
<path d="M11.71 221.125L11.98 221.275L18.985 209.125C19.39 209.035 19.615 208.645 19.84 208.255C19.99 207.985 20.59 206.95 20.845 205.6C20.1333 206.232 19.5303 206.977 19.06 207.805C18.835 208.195 18.61 208.585 18.715 208.99L11.71 221.125Z" fill="white"/>
<path d="M20.29 221.125L20.02 221.275L13.015 209.125C12.61 209.035 12.385 208.645 12.16 208.255C12.01 207.985 11.41 206.95 11.155 205.6C11.8667 206.232 12.4697 206.977 12.94 207.805C13.165 208.195 13.39 208.585 13.285 208.99L20.29 221.125Z" fill="black" stroke="black" stroke-width="0.375" stroke-miterlimit="10"/>
<path d="M20.29 221.125L20.02 221.275L13.015 209.125C12.61 209.035 12.385 208.645 12.16 208.255C12.01 207.985 11.41 206.95 11.155 205.6C11.8667 206.232 12.4697 206.977 12.94 207.805C13.165 208.195 13.39 208.585 13.285 208.99L20.29 221.125Z" fill="white"/>
<path d="M32.0252 210.4H18.8502C18.4002 209.2 16.9002 206.8 16.0002 206.8C15.1002 206.8 13.6002 209.2 13.1502 210.4H-0.00976562V217.6H13.1502C13.6002 218.8 15.1002 221.2 16.0002 221.2C16.9002 221.2 18.4002 218.8 18.8502 217.6H32.0252V210.4Z" fill="#BB0000"/>
<path d="M18.8501 217.6C19.3001 216.4 19.6001 215.2 19.6001 214C19.6001 212.8 19.3001 211.6 18.8501 210.4C18.4001 211.6 18.1001 212.8 18.1001 214C18.1001 215.2 18.4001 216.4 18.8501 217.6Z" fill="black"/>
<path d="M13.1499 217.6C12.6999 216.4 12.3999 215.2 12.3999 214C12.3999 212.8 12.6999 211.6 13.1499 210.4C13.5999 211.6 13.8999 212.8 13.8999 214C13.8999 215.2 13.5999 216.4 13.1499 217.6Z" fill="black"/>
<path d="M15.9999 214.9C16.3313 214.9 16.5999 214.497 16.5999 214C16.5999 213.503 16.3313 213.1 15.9999 213.1C15.6685 213.1 15.3999 213.503 15.3999 214C15.3999 214.497 15.6685 214.9 15.9999 214.9Z" fill="white"/>
<path d="M16.1499 214.87C16.1499 214.87 16.7499 216.07 16.7499 218.02C16.7499 219.97 16.1499 221.17 16.1499 221.17V214.87Z" fill="white"/>
<path d="M15.8501 213.13C15.8501 213.13 15.2501 211.93 15.2501 209.98C15.2501 208.03 15.8501 206.83 15.8501 206.83V213.13Z" fill="white"/>
<path d="M15.8501 214.87C15.8501 214.87 15.2501 216.07 15.2501 218.02C15.2501 219.97 15.8501 221.17 15.8501 221.17V214.87Z" fill="white"/>
<path d="M16.1499 213.13C16.1499 213.13 16.7499 211.93 16.7499 209.98C16.7499 208.03 16.1499 206.83 16.1499 206.83V213.13Z" fill="white"/>
</g>
<path d="M53.9414 223.164C54.5859 223.164 54.9961 222.742 54.9961 222.074V217.094L56.8828 215.078L63.1641 222.66C63.4688 223.035 63.7266 223.176 64.1133 223.176C64.6875 223.176 65.1328 222.73 65.1328 222.168C65.1328 221.91 65.0391 221.641 64.8281 221.383L58.3477 213.578L64.1719 207.543C64.3594 207.344 64.4531 207.121 64.4531 206.875C64.4531 206.336 64.0547 205.914 63.4805 205.914C63.1523 205.914 62.918 206.031 62.6484 206.324L55.1133 214.34H54.9961V207.016C54.9961 206.348 54.5859 205.926 53.9414 205.926C53.2969 205.926 52.8867 206.348 52.8867 207.016V222.074C52.8867 222.742 53.2969 223.164 53.9414 223.164ZM71.7422 223.211C73.9688 223.211 75.6797 222.273 76.4648 220.621C76.5586 220.398 76.6172 220.188 76.6172 220.023C76.6172 219.484 76.2539 219.133 75.7148 219.133C75.3984 219.133 75.1641 219.25 74.9531 219.543C74.0039 220.926 73.1133 221.441 71.6602 221.441C69.4805 221.441 68.1328 219.918 68.1328 217.457H75.75C76.4531 217.457 76.875 217.012 76.875 216.273C76.875 212.934 74.6836 210.602 71.5664 210.602C68.2031 210.602 66.0352 213.109 66.0352 216.953C66.0352 220.891 68.1445 223.211 71.7422 223.211ZM68.1445 215.863C68.2734 213.766 69.6328 212.371 71.5312 212.371C73.418 212.371 74.7188 213.754 74.7656 215.863H68.1445ZM79.957 223.211C80.5547 223.211 80.9766 222.766 80.9766 222.121V215.828C80.9766 213.766 82.2305 212.406 84.1523 212.406C86.0273 212.406 86.9531 213.484 86.9531 215.453V222.121C86.9531 222.766 87.375 223.211 87.9727 223.211C88.5703 223.211 88.9922 222.766 88.9922 222.121V215.09C88.9922 212.324 87.4453 210.602 84.7734 210.602C82.8867 210.602 81.5859 211.445 80.9062 212.758H80.8594V211.633C80.8594 211.023 80.4609 210.602 79.8984 210.602C79.3359 210.602 78.9375 211.023 78.9375 211.633V222.121C78.9375 222.766 79.3594 223.211 79.957 223.211ZM92.7891 227.559C94.8047 227.559 95.8008 226.656 96.8555 223.855L101.355 212.078C101.426 211.879 101.461 211.691 101.461 211.539C101.461 210.988 101.051 210.602 100.465 210.602C99.9609 210.602 99.6914 210.812 99.5039 211.352L96.1289 220.961H96.0938L92.7305 211.352C92.543 210.812 92.2383 210.602 91.7578 210.602C91.1719 210.602 90.7383 210.977 90.7383 211.539C90.7383 211.691 90.7734 211.879 90.8438 212.078L95.0391 223.012L94.7578 223.867C94.2773 225.344 93.5391 225.812 92.7656 225.812C92.4492 225.812 92.3672 225.801 92.0742 225.801C91.5586 225.801 91.2539 226.105 91.2539 226.551C91.2539 227.195 91.8047 227.559 92.7891 227.559ZM106.582 223.211C108.223 223.211 109.781 222.297 110.508 220.902H110.555V222.18C110.555 222.789 110.953 223.211 111.527 223.211C112.09 223.211 112.488 222.789 112.488 222.18V214.574C112.488 212.148 110.684 210.602 107.824 210.602C105.844 210.602 104.062 211.48 103.371 212.816C103.207 213.109 103.125 213.402 103.125 213.66C103.125 214.211 103.5 214.574 104.027 214.574C104.414 214.574 104.684 214.422 104.871 214.082C105.551 212.875 106.453 212.395 107.777 212.395C109.465 212.395 110.449 213.285 110.449 214.773V215.793L106.945 215.992C104.133 216.156 102.527 217.469 102.527 219.555C102.527 221.746 104.156 223.211 106.582 223.211ZM107.039 221.477C105.574 221.477 104.602 220.715 104.602 219.555C104.602 218.406 105.539 217.68 107.18 217.574L110.449 217.375V218.371C110.449 220.129 108.961 221.477 107.039 221.477Z" fill="black"/>
<defs>
<clipPath id="clip0_1907_2936">
<rect width="32" height="24" fill="white" transform="translate(0 4)"/>
</clipPath>
<clipPath id="clip1_1907_2936">
<rect width="32" height="24" fill="white" transform="translate(0 267)"/>
</clipPath>
<clipPath id="clip2_1907_2936">
<rect width="32" height="24" fill="white" transform="translate(0 70)"/>
</clipPath>
<clipPath id="clip3_1907_2936">
<rect width="32" height="24" fill="white" transform="translate(0 136)"/>
</clipPath>
<clipPath id="clip4_1907_2936">
<rect width="32" height="24" fill="white" transform="translate(0 202)"/>
</clipPath>
</defs>
</svg>
