<svg width="20" height="20" viewBox="0 0 20 20" fill="none" xmlns="http://www.w3.org/2000/svg">
<rect width="20" height="20" rx="10" fill="white"/>
<g clip-path="url(#clip0_1004_439)">
<path d="M10.0018 7.97866C8.86607 7.97866 7.95 8.88042 7.95 9.99839C7.95 11.1164 8.86607 12.0181 10.0018 12.0181C11.1375 12.0181 12.0536 11.1164 12.0536 9.99839C12.0536 8.88042 11.1375 7.97866 10.0018 7.97866ZM10.0018 11.3115C9.26785 11.3115 8.66785 10.7226 8.66785 9.99839C8.66785 9.27417 9.26607 8.6853 10.0018 8.6853C10.7375 8.6853 11.3357 9.27417 11.3357 9.99839C11.3357 10.7226 10.7357 11.3115 10.0018 11.3115ZM12.6161 7.89604C12.6161 8.15796 12.4018 8.36714 12.1375 8.36714C11.8714 8.36714 11.6589 8.1562 11.6589 7.89604C11.6589 7.63589 11.8732 7.42495 12.1375 7.42495C12.4018 7.42495 12.6161 7.63589 12.6161 7.89604ZM13.975 8.37417C13.9446 7.74312 13.7982 7.18413 13.3286 6.72358C12.8607 6.26304 12.2929 6.1189 11.6518 6.08726C10.9911 6.05034 9.01071 6.05034 8.35 6.08726C7.71071 6.11714 7.14285 6.26128 6.67321 6.72183C6.20357 7.18237 6.05893 7.74136 6.02678 8.37241C5.98928 9.0228 5.98928 10.9722 6.02678 11.6226C6.05714 12.2537 6.20357 12.8126 6.67321 13.2732C7.14285 13.7337 7.70893 13.8779 8.35 13.9095C9.01071 13.9464 10.9911 13.9464 11.6518 13.9095C12.2929 13.8796 12.8607 13.7355 13.3286 13.2732C13.7964 12.8126 13.9429 12.2537 13.975 11.6226C14.0125 10.9722 14.0125 9.02456 13.975 8.37417ZM13.1214 12.3205C12.9821 12.665 12.7125 12.9304 12.3607 13.0693C11.8339 13.275 10.5839 13.2275 10.0018 13.2275C9.41964 13.2275 8.16785 13.2732 7.64285 13.0693C7.29285 12.9322 7.02321 12.6667 6.88214 12.3205C6.67321 11.8019 6.72143 10.5714 6.72143 9.99839C6.72143 9.42534 6.675 8.19311 6.88214 7.67632C7.02143 7.33179 7.29107 7.06636 7.64285 6.92749C8.16964 6.72183 9.41964 6.76929 10.0018 6.76929C10.5839 6.76929 11.8357 6.72358 12.3607 6.92749C12.7107 7.0646 12.9804 7.33003 13.1214 7.67632C13.3304 8.19487 13.2821 9.42534 13.2821 9.99839C13.2821 10.5714 13.3304 11.8037 13.1214 12.3205Z" fill="black"/>
</g>
<defs>
<clipPath id="clip0_1004_439">
<rect width="8" height="9" fill="white" transform="translate(6 5.5)"/>
</clipPath>
</defs>
</svg>
