<svg width="27" height="26" viewBox="0 0 27 26" fill="none" xmlns="http://www.w3.org/2000/svg">
<path fill-rule="evenodd" clip-rule="evenodd" d="M13.0957 3.25C10.4476 3.25 10.1161 3.26105 9.0761 3.3085C8.03805 3.35595 7.3289 3.52105 6.7088 3.7622C6.0588 4.0066 5.46925 4.3901 4.98175 4.8867C4.48595 5.37364 4.10221 5.96277 3.85725 6.6131C3.6174 7.2332 3.45165 7.943 3.4042 8.98105C3.3574 10.0204 3.3457 10.3512 3.3457 13C3.3457 15.6487 3.35675 15.9796 3.4042 17.0196C3.45165 18.0576 3.61675 18.7668 3.8579 19.3869C4.1023 20.0369 4.4858 20.6264 4.9824 21.1139C5.46935 21.6097 6.05848 21.9935 6.7088 22.2384C7.3289 22.4789 8.03805 22.644 9.0761 22.6915C10.1161 22.7389 10.4476 22.75 13.0957 22.75C15.7438 22.75 16.0753 22.7389 17.1153 22.6915C18.1534 22.644 18.8625 22.4789 19.4826 22.2378C20.1326 21.9934 20.7222 21.6099 21.2097 21.1133C21.7055 20.6264 22.0892 20.0372 22.3342 19.3869C22.5747 18.7668 22.7398 18.0576 22.7872 17.0196C22.8347 15.9796 22.8457 15.6481 22.8457 13C22.8457 10.3519 22.8347 10.0204 22.7872 8.9804C22.7398 7.94235 22.5747 7.2332 22.3335 6.6131C22.0887 5.96249 21.705 5.37311 21.209 4.88605C20.7221 4.39024 20.1329 4.00651 19.4826 3.76155C18.8625 3.5217 18.1527 3.35595 17.1147 3.3085C16.0753 3.2617 15.7445 3.25 13.0957 3.25ZM13.0957 5.00695C15.699 5.00695 16.0077 5.0167 17.036 5.0635C17.9863 5.10705 18.5024 5.265 18.8463 5.39955C19.3013 5.5757 19.6263 5.7876 19.9675 6.1282C20.3088 6.46945 20.52 6.79445 20.6962 7.24945C20.8301 7.5933 20.9887 8.1094 21.0322 9.0597C21.079 10.088 21.0888 10.3967 21.0888 13C21.0888 15.6032 21.079 15.912 21.0322 16.9403C20.9887 17.8906 20.8307 18.4067 20.6962 18.7505C20.5401 19.1741 20.2911 19.5572 19.9675 19.8718C19.653 20.1955 19.2698 20.4445 18.8463 20.6005C18.5024 20.7344 17.9863 20.8929 17.036 20.9365C16.0077 20.9833 15.6996 20.993 13.0957 20.993C10.4918 20.993 10.1837 20.9833 9.1554 20.9365C8.2051 20.8929 7.689 20.735 7.34515 20.6005C6.92165 20.4444 6.53851 20.1954 6.2239 19.8718C5.90032 19.5572 5.65134 19.174 5.49525 18.7505C5.36135 18.4067 5.20275 17.8906 5.1592 16.9403C5.1124 15.912 5.10265 15.6032 5.10265 13C5.10265 10.3967 5.1124 10.088 5.1592 9.0597C5.20275 8.1094 5.3607 7.5933 5.49525 7.24945C5.6714 6.79445 5.8833 6.46945 6.2239 6.1282C6.53846 5.80453 6.92162 5.55553 7.34515 5.39955C7.689 5.26565 8.2051 5.10705 9.1554 5.0635C10.1837 5.0167 10.4925 5.00695 13.0957 5.00695Z" fill="black"/>
<path fill-rule="evenodd" clip-rule="evenodd" d="M13.0955 16.2533C12.6683 16.2533 12.2452 16.1691 11.8505 16.0056C11.4558 15.8421 11.0972 15.6025 10.7951 15.3004C10.493 14.9983 10.2534 14.6397 10.0899 14.245C9.92638 13.8503 9.84223 13.4272 9.84223 13C9.84223 12.5728 9.92638 12.1498 10.0899 11.7551C10.2534 11.3603 10.493 11.0017 10.7951 10.6996C11.0972 10.3975 11.4558 10.1579 11.8505 9.9944C12.2452 9.83091 12.6683 9.74677 13.0955 9.74677C13.9583 9.74677 14.7858 10.0895 15.3959 10.6996C16.006 11.3097 16.3487 12.1372 16.3487 13C16.3487 13.8628 16.006 14.6903 15.3959 15.3004C14.7858 15.9105 13.9583 16.2533 13.0955 16.2533ZM13.0955 7.98852C11.7664 7.98852 10.4917 8.51651 9.55182 9.45635C8.61198 10.3962 8.08398 11.6709 8.08398 13C8.08398 14.3291 8.61198 15.6038 9.55182 16.5437C10.4917 17.4835 11.7664 18.0115 13.0955 18.0115C14.4246 18.0115 15.6993 17.4835 16.6391 16.5437C17.579 15.6038 18.107 14.3291 18.107 13C18.107 11.6709 17.579 10.3962 16.6391 9.45635C15.6993 8.51651 14.4246 7.98852 13.0955 7.98852ZM19.5649 7.89752C19.5649 8.2117 19.4401 8.51301 19.218 8.73517C18.9958 8.95733 18.6945 9.08214 18.3803 9.08214C18.0661 9.08214 17.7648 8.95733 17.5427 8.73517C17.3205 8.51301 17.1957 8.2117 17.1957 7.89752C17.1957 7.58333 17.3205 7.28202 17.5427 7.05986C17.7648 6.8377 18.0661 6.71289 18.3803 6.71289C18.6945 6.71289 18.9958 6.8377 19.218 7.05986C19.4401 7.28202 19.5649 7.58333 19.5649 7.89752Z" fill="black"/>
</svg>
