<svg width="20" height="20" viewBox="0 0 20 20" fill="none" xmlns="http://www.w3.org/2000/svg">
<rect width="20" height="20" rx="10" fill="white"/>
<g clip-path="url(#clip0_1004_442)">
<path d="M7.46707 13.7503H5.64516V7.9085H7.46707V13.7503ZM6.55513 7.11162C5.97254 7.11162 5.5 6.63115 5.5 6.05107C5.5 5.77244 5.61117 5.50522 5.80904 5.3082C6.00692 5.11117 6.27529 5.00049 6.55513 5.00049C6.83497 5.00049 7.10335 5.11117 7.30123 5.3082C7.4991 5.50522 7.61027 5.77244 7.61027 6.05107C7.61027 6.63115 7.13753 7.11162 6.55513 7.11162ZM14.2859 13.7503H12.4679V10.9065C12.4679 10.2288 12.4542 9.35967 11.5207 9.35967C10.5734 9.35967 10.4283 10.096 10.4283 10.8577V13.7503H8.60832V7.9085H10.3557V8.70537H10.3812C10.6244 8.24639 11.2186 7.76201 12.105 7.76201C13.9489 7.76201 14.2879 8.971 14.2879 10.5413V13.7503H14.2859Z" fill="black"/>
</g>
<defs>
<clipPath id="clip0_1004_442">
<rect width="8.78788" height="10" fill="white" transform="translate(5.5 5)"/>
</clipPath>
</defs>
</svg>
