<svg width="101" height="101" viewBox="0 0 101 101" fill="none" xmlns="http://www.w3.org/2000/svg">
<g clip-path="url(#clip0_1225_10799)">
<path d="M30.6667 40.4142L40.7524 50.5L30.6667 60.5858V54.6667V53.6667H29.6667H14V47.3333H29.6667H30.6667V46.3333V40.4142ZM70.3333 54.6667V60.5858L60.2475 50.5L70.3333 40.4142V46.3333V47.3333H71.3333H87V53.6667H71.3333H70.3333V54.6667ZM53.6667 50.5C53.6667 52.2394 52.2394 53.6667 50.5 53.6667C48.7606 53.6667 47.3333 52.2394 47.3333 50.5C47.3333 48.7606 48.7606 47.3333 50.5 47.3333C52.2394 47.3333 53.6667 48.7606 53.6667 50.5ZM95.25 50.5C95.25 38.5338 90.5036 27.6977 82.8197 19.5945L85.9046 16.5096C94.3178 25.3883 99.5 37.3452 99.5 50.5C99.5 63.6548 94.3178 75.6117 85.9046 84.4904L82.8197 81.4055C90.5033 73.3049 95.25 62.5071 95.25 50.5ZM50.5 20.3333C38.7402 20.3333 28.5219 27.1399 23.5835 37H16.5357C21.994 23.5028 35.1099 14 50.5 14C65.8901 14 79.006 23.5028 84.4643 37H77.4559C72.4789 27.1415 62.2616 20.3333 50.5 20.3333ZM18.1803 81.4055L15.0954 84.4904C6.68219 75.6117 1.5 63.6548 1.5 50.5C1.5 37.3452 6.68219 25.3883 15.0954 16.5096L18.1803 19.5945C10.4964 27.6977 5.75 38.5338 5.75 50.5C5.75 62.5071 10.4967 73.3049 18.1803 81.4055ZM50.5 80.6667C62.3032 80.6667 72.4808 73.8577 77.4559 64H84.4643C79.006 77.4972 65.8901 87 50.5 87C35.1099 87 21.994 77.4972 16.5357 64H23.5834C28.52 73.8594 38.6985 80.6667 50.5 80.6667Z" stroke="#003399" stroke-width="2"/>
</g>
<defs>
<clipPath id="clip0_1225_10799">
<rect width="100" height="100" fill="white" transform="translate(0.5 0.5)"/>
</clipPath>
</defs>
</svg>
