<svg width="41" height="37" viewBox="0 0 41 37" fill="none" xmlns="http://www.w3.org/2000/svg">
<rect width="41" height="37" rx="4" fill="#1D4EFF" fill-opacity="0.08"/>
<path d="M20.5 11.8333V25.1667M17.1667 22.0356L18.1433 22.7678C19.4444 23.7444 21.5544 23.7444 22.8567 22.7678C24.1589 21.7911 24.1589 20.2089 22.8567 19.2322C22.2067 18.7433 21.3533 18.5 20.5 18.5C19.6944 18.5 18.8889 18.2556 18.2744 17.7678C17.0456 16.7911 17.0456 15.2089 18.2744 14.2322C19.5033 13.2556 21.4967 13.2556 22.7256 14.2322L23.1867 14.5989M30.5 18.5C30.5 19.8132 30.2413 21.1136 29.7388 22.3268C29.2363 23.5401 28.4997 24.6425 27.5711 25.5711C26.6425 26.4997 25.5401 27.2363 24.3268 27.7388C23.1136 28.2413 21.8132 28.5 20.5 28.5C19.1868 28.5 17.8864 28.2413 16.6732 27.7388C15.4599 27.2363 14.3575 26.4997 13.4289 25.5711C12.5003 24.6425 11.7638 23.5401 11.2612 22.3268C10.7587 21.1136 10.5 19.8132 10.5 18.5C10.5 15.8478 11.5536 13.3043 13.4289 11.4289C15.3043 9.55357 17.8478 8.5 20.5 8.5C23.1522 8.5 25.6957 9.55357 27.5711 11.4289C29.4464 13.3043 30.5 15.8478 30.5 18.5Z" stroke="#003399" stroke-width="1.5" stroke-linecap="round" stroke-linejoin="round"/>
</svg>
