<svg width="26" height="26" viewBox="0 0 26 26" fill="none" xmlns="http://www.w3.org/2000/svg">
<g clip-path="url(#clip0_2115_1319)">
<path d="M5.29771 17.283C7.86216 20.3485 10.9492 22.7621 14.4726 24.47C15.8141 25.1057 17.6081 25.8599 19.6069 25.9892C19.7308 25.9946 19.8493 26 19.9732 26C21.3147 26 22.3922 25.5367 23.2704 24.5831C23.2757 24.5777 23.2865 24.5669 23.2919 24.5562C23.6044 24.179 23.96 23.8396 24.3317 23.4787C24.5849 23.2362 24.8435 22.983 25.0913 22.7244C26.2389 21.5284 26.2389 20.0091 25.0806 18.8508L21.8427 15.6129C21.2932 15.0419 20.6359 14.7402 19.9463 14.7402C19.2567 14.7402 18.594 15.0419 18.0283 15.6075L16.0996 17.5363C15.9218 17.4339 15.7387 17.3423 15.5663 17.2561C15.3508 17.1484 15.1514 17.046 14.9736 16.9329C13.2173 15.8177 11.6226 14.363 10.098 12.4936C9.32755 11.5184 8.81035 10.6995 8.44939 9.86448C8.95582 9.40655 9.42991 8.92706 9.88785 8.45835C10.0495 8.29134 10.2165 8.12433 10.3835 7.95731C10.9653 7.37547 11.2778 6.70203 11.2778 6.01782C11.2778 5.33361 10.9707 4.66017 10.3835 4.07833L8.77803 2.47286C8.58947 2.28429 8.41168 2.10112 8.22851 1.91256C7.87293 1.54621 7.50119 1.16908 7.13485 0.829673C6.57993 0.285537 5.92805 0 5.23845 0C4.55424 0 3.89697 0.285537 3.32051 0.83506L1.30559 2.84998C0.57289 3.58268 0.158054 4.47161 0.0718538 5.50062C-0.0305084 6.78823 0.206541 8.15665 0.820714 9.81061C1.76352 12.3697 3.18582 14.7455 5.29771 17.283ZM1.3864 5.61376C1.45105 4.89722 1.72581 4.29921 2.24301 3.78201L4.24715 1.77787C4.55963 1.47617 4.90443 1.31993 5.23845 1.31993C5.56709 1.31993 5.90111 1.47617 6.2082 1.78864C6.56916 2.12267 6.90857 2.47286 7.27492 2.84459C7.4581 3.03315 7.64666 3.22172 7.83522 3.41567L9.44069 5.02114C9.77471 5.35516 9.94711 5.69457 9.94711 6.02859C9.94711 6.36262 9.77471 6.70203 9.44069 7.03605C9.27368 7.20307 9.10666 7.37547 8.93965 7.54248C8.43862 8.0489 7.96991 8.52839 7.45271 8.98632C7.44193 8.9971 7.43655 9.00249 7.42577 9.01326C6.97861 9.46042 7.04865 9.88603 7.1564 10.2093C7.16178 10.2254 7.16717 10.2362 7.17256 10.2524C7.58739 11.2491 8.16386 12.1973 9.06357 13.3286C10.6798 15.322 12.3823 16.8682 14.2571 18.0588C14.4888 18.2097 14.7366 18.3282 14.9682 18.4467C15.1837 18.5545 15.3831 18.6569 15.5609 18.77C15.5824 18.7808 15.5986 18.7915 15.6201 18.8023C15.7979 18.8939 15.9703 18.937 16.1427 18.937C16.5737 18.937 16.8539 18.6622 16.9455 18.5707L18.9604 16.5557C19.2728 16.2433 19.6123 16.0763 19.9463 16.0763C20.3557 16.0763 20.6898 16.3295 20.8999 16.5557L24.1485 19.799C24.795 20.4455 24.7896 21.1459 24.1324 21.8301C23.9061 22.0725 23.669 22.3042 23.4158 22.5466C23.0387 22.913 22.6454 23.2901 22.2898 23.7157C21.6703 24.3838 20.9322 24.6962 19.9786 24.6962C19.887 24.6962 19.79 24.6908 19.6985 24.6855C17.9314 24.5723 16.2882 23.8827 15.0544 23.2955C11.7034 21.6738 8.76187 19.3734 6.32134 16.4534C4.3118 14.0344 2.95955 11.7824 2.06522 9.36883C1.51031 7.88728 1.3002 6.69664 1.3864 5.61376Z" fill="black"/>
</g>
<defs>
<clipPath id="clip0_2115_1319">
<rect width="26" height="26" fill="white"/>
</clipPath>
</defs>
</svg>
