<svg width="21" height="21" viewBox="0 0 21 21" fill="none" xmlns="http://www.w3.org/2000/svg">
<rect x="0.269775" y="0.269531" width="20" height="20" rx="10" fill="white"/>
<g clip-path="url(#clip0_1004_440)">
<path d="M13.8447 8.52872C13.8504 8.60592 13.8504 8.68314 13.8504 8.76034C13.8504 11.1151 11.9944 13.8284 8.60227 13.8284C7.55721 13.8284 6.58641 13.5361 5.76978 13.0287C5.91826 13.0453 6.06101 13.0508 6.21521 13.0508C7.07751 13.0508 7.8713 12.7695 8.50519 12.2898C7.69427 12.2732 7.0147 11.7603 6.78056 11.0545C6.89478 11.071 7.00899 11.082 7.12892 11.082C7.29453 11.082 7.46015 11.06 7.61433 11.0214C6.76915 10.8559 6.13524 10.139 6.13524 9.2732V9.25115C6.38079 9.38351 6.66635 9.46623 6.96899 9.47724C6.47216 9.15738 6.14667 8.61144 6.14667 7.99378C6.14667 7.66291 6.23802 7.3596 6.39793 7.09489C7.30593 8.17577 8.67079 8.88164 10.2012 8.95886C10.1727 8.82651 10.1556 8.68865 10.1556 8.55078C10.1556 7.56915 10.9779 6.76953 12.0001 6.76953C12.5312 6.76953 13.0109 6.9846 13.3478 7.33203C13.7647 7.25483 14.1644 7.10592 14.5185 6.90189C14.3814 7.3155 14.0902 7.66292 13.7076 7.8835C14.0788 7.84491 14.4386 7.74563 14.7698 7.60777C14.5185 7.9607 14.2044 8.27503 13.8447 8.52872Z" fill="black"/>
</g>
<defs>
<clipPath id="clip0_1004_440">
<rect width="9" height="7.5" fill="white" transform="translate(5.76978 6.76953)"/>
</clipPath>
</defs>
</svg>
