<svg width="74" height="66" viewBox="0 0 74 66" fill="none" xmlns="http://www.w3.org/2000/svg">
<path d="M4.1988 11.2362C3.85594 11.3169 3.55063 11.5116 3.33285 11.7885C3.11508 12.0653 2.99773 12.4079 3.00003 12.7602V25.6205C3.00058 31.3233 4.94098 36.8564 8.50238 41.3105C12.0638 45.7646 17.0344 48.8748 22.5973 50.13H22.6176C28.1843 48.8786 33.1594 45.7701 36.7248 41.3157C40.2902 36.8613 42.2337 31.3261 42.2355 25.6205V12.8166C42.2374 12.4526 42.1115 12.0995 41.8798 11.8188C41.648 11.538 41.3252 11.3475 40.9674 11.2803C37.3517 10.6077 33.8564 9.40024 30.5965 7.69778C28.4222 6.56173 26.3667 5.21176 24.4603 3.6679C23.917 3.2394 23.2463 3.00439 22.5544 3.00006C21.8625 2.99573 21.1889 3.22235 20.6403 3.64401C18.7242 5.07362 16.6943 6.34414 14.5711 7.44287C11.2869 9.13823 7.80193 10.4127 4.1988 11.2362Z" stroke="#003399" stroke-width="5" stroke-miterlimit="10"/>
<path opacity="0.2" d="M37.2605 16.3032V25.8566C37.259 30.1154 35.8083 34.2469 33.1471 37.5718C30.4858 40.8968 26.7723 43.2171 22.6172 44.1513H22.6043L22.5878 44.1472V8.97784C23.098 8.9843 23.5918 9.15881 23.9928 9.47434C25.4156 10.6272 26.9501 11.635 28.5733 12.4827C31.0065 13.7528 33.6153 14.6535 36.3139 15.1549C36.5809 15.2046 36.8219 15.3467 36.9946 15.5564C37.1675 15.7667 37.2615 16.0309 37.2605 16.3032Z" fill="#003399"/>
<path d="M42.2351 16.9504L57.91 14.359C59.0771 14.1665 60.2729 14.4454 61.2344 15.1345C62.1959 15.8235 62.8444 16.8663 63.0371 18.0334L63.0486 25.9916H63.6195C64.9333 25.9916 66.1933 26.5135 67.1223 27.4425C68.0514 28.3714 68.5734 29.6314 68.5735 30.9452V38.3054H57.7864C56.5745 38.3054 55.4122 38.7868 54.5552 39.6438C53.6983 40.5008 53.2169 41.663 53.2169 42.875V44.4876C53.217 45.6994 53.6985 46.8616 54.5554 47.7184C55.4124 48.5753 56.5746 49.0567 57.7864 49.0567H68.5735V58.0474C68.5731 59.361 68.051 60.6208 67.122 61.5495C66.193 62.4783 64.9331 63 63.6195 63H24.0992C22.7853 62.9999 21.5251 62.4779 20.596 61.5488C19.6669 60.6196 19.1449 59.3595 19.1448 58.0456V49.0837" stroke="#003399" stroke-width="5" stroke-miterlimit="10"/>
<path d="M71.2577 39.7163V47.642C71.2577 48.0168 71.1088 48.3763 70.8437 48.6413C70.5787 48.9063 70.2192 49.0552 69.8444 49.0552H57.7865C57.1864 49.0552 56.5921 48.937 56.0377 48.7073C55.4832 48.4777 54.9795 48.141 54.5551 47.7167C54.1308 47.2923 53.7942 46.7885 53.5646 46.234C53.335 45.6796 53.2169 45.0853 53.2169 44.4852V42.8731C53.2169 41.6612 53.6984 40.4989 54.5553 39.6419C55.4123 38.785 56.5746 38.3035 57.7865 38.3035H69.8462C70.2207 38.304 70.5796 38.4531 70.8442 38.7179C71.1089 38.9828 71.2576 39.3419 71.2577 39.7163V39.7163Z" stroke="#003399" stroke-width="5" stroke-miterlimit="10"/>
<path d="M59.0206 46.4248C60.5372 46.4248 61.7667 45.1953 61.7667 43.6787C61.7667 42.162 60.5372 40.9326 59.0206 40.9326C57.5039 40.9326 56.2744 42.162 56.2744 43.6787C56.2744 45.1953 57.5039 46.4248 59.0206 46.4248Z" stroke="#003399" stroke-width="5" stroke-miterlimit="10"/>
<path d="M59.3292 26.8804L42.0114 28.9587" stroke="#003399" stroke-width="5" stroke-miterlimit="10" stroke-linecap="round"/>
</svg>
