<svg width="20" height="20" viewBox="0 0 20 20" fill="none" xmlns="http://www.w3.org/2000/svg">
<rect width="20" height="20" rx="10" fill="white"/>
<g clip-path="url(#clip0_1004_440)">
<path d="M13.5749 8.25918C13.5806 8.33639 13.5806 8.41361 13.5806 8.49081C13.5806 10.8456 11.7246 13.5588 8.3325 13.5588C7.28744 13.5588 6.31663 13.2665 5.5 12.7592C5.64848 12.7757 5.79124 12.7813 5.94543 12.7813C6.80773 12.7813 7.60153 12.5 8.23541 12.0202C7.4245 12.0037 6.74492 11.4908 6.51078 10.7849C6.625 10.8015 6.73921 10.8125 6.85915 10.8125C7.02475 10.8125 7.19037 10.7904 7.34455 10.7518C6.49937 10.5864 5.86547 9.86948 5.86547 9.00367V8.98162C6.11102 9.11398 6.39658 9.1967 6.69922 9.20771C6.20239 8.88785 5.87689 8.3419 5.87689 7.72425C5.87689 7.39338 5.96825 7.09007 6.12816 6.82536C7.03616 7.90624 8.40102 8.61211 9.93146 8.68933C9.90292 8.55698 9.88578 8.41912 9.88578 8.28125C9.88578 7.29962 10.7081 6.5 11.7303 6.5C12.2614 6.5 12.7411 6.71507 13.078 7.0625C13.4949 6.9853 13.8947 6.83639 14.2487 6.63235C14.1117 7.04597 13.8204 7.39339 13.4378 7.61397C13.809 7.57538 14.1688 7.4761 14.5 7.33824C14.2488 7.69117 13.9347 8.00549 13.5749 8.25918Z" fill="black"/>
</g>
<defs>
<clipPath id="clip0_1004_440">
<rect width="9" height="7.5" fill="white" transform="translate(5.5 6.5)"/>
</clipPath>
</defs>
</svg>
