<svg width="21" height="20" viewBox="0 0 21 20" fill="none" xmlns="http://www.w3.org/2000/svg">
<path fill-rule="evenodd" clip-rule="evenodd" d="M20.6133 10C20.6133 15.5228 16.1361 20 10.6133 20C5.09043 20 0.613281 15.5228 0.613281 10C0.613281 4.47715 5.09043 0 10.6133 0C16.1361 0 20.6133 4.47715 20.6133 10ZM10.9716 7.38245C9.99897 7.78701 8.05504 8.62434 5.13984 9.89445C4.66646 10.0827 4.41848 10.2669 4.3959 10.4469C4.35775 10.7513 4.73886 10.8711 5.25782 11.0343C5.32842 11.0565 5.40156 11.0795 5.47654 11.1039C5.98713 11.2698 6.67395 11.464 7.031 11.4717C7.35488 11.4787 7.71637 11.3452 8.11546 11.0711C10.8392 9.23251 12.2452 8.30319 12.3335 8.28315C12.3958 8.26902 12.4821 8.25125 12.5406 8.30322C12.599 8.35519 12.5933 8.45361 12.5871 8.48002C12.5493 8.64096 11.0534 10.0318 10.2792 10.7515C10.0379 10.9759 9.86666 11.135 9.83166 11.1714C9.75327 11.2528 9.67337 11.3298 9.59658 11.4039C9.12223 11.8611 8.76652 12.204 9.61627 12.764C10.0246 13.0331 10.3514 13.2556 10.6774 13.4776C11.0334 13.7201 11.3885 13.9619 11.8479 14.2631C11.965 14.3398 12.0768 14.4195 12.1857 14.4971C12.6 14.7925 12.9722 15.0579 13.4321 15.0155C13.6993 14.991 13.9753 14.7397 14.1155 13.9903C14.4468 12.2193 15.098 8.38206 15.2484 6.80082C15.2616 6.66229 15.245 6.48499 15.2317 6.40716C15.2184 6.32932 15.1906 6.21843 15.0894 6.13634C14.9696 6.03912 14.7846 6.01862 14.7019 6.02008C14.3258 6.0267 13.7487 6.22736 10.9716 7.38245Z" fill="black"/>
</svg>
