<svg width="29" height="20" viewBox="0 0 29 20" fill="none" xmlns="http://www.w3.org/2000/svg">
<path fill-rule="evenodd" clip-rule="evenodd" d="M25.5038 0.604393C26.7309 0.934061 27.7016 1.90477 28.0312 3.13186C28.6356 5.3663 28.6539 9.99999 28.6539 9.99999C28.6539 9.99999 28.6539 14.652 28.0495 16.8681C27.7199 18.0952 26.7492 19.0659 25.5221 19.3956C23.306 20 14.3865 20 14.3865 20C14.3865 20 5.46712 20 3.25101 19.3956C2.0239 19.0659 1.05321 18.0952 0.723537 16.8681C0.119141 14.6337 0.119141 9.99999 0.119141 9.99999C0.119141 9.99999 0.119141 5.3663 0.705221 3.15018C1.03489 1.92308 2.00559 0.952383 3.23269 0.622715C5.44881 0.0183105 14.3682 0 14.3682 0C14.3682 0 23.2876 0 25.5038 0.604393ZM18.9287 10L11.5294 14.2857V5.71429L18.9287 10Z" fill="black"/>
</svg>
