<svg width="19" height="20" viewBox="0 0 19 20" fill="none" xmlns="http://www.w3.org/2000/svg">
<path d="M15.4904 4.00894C14.4131 3.30651 13.6355 2.18262 13.393 0.872464C13.3406 0.589395 13.3118 0.298072 13.3118 0H9.87336L9.86785 13.78C9.81004 15.3231 8.54 16.5616 6.98304 16.5616C6.49913 16.5616 6.04348 16.4406 5.64229 16.2295C4.7223 15.7454 4.09271 14.781 4.09271 13.6713C4.09271 12.0775 5.38937 10.7808 6.98304 10.7808C7.28053 10.7808 7.56592 10.8299 7.83587 10.9145V7.40424C7.5565 7.3662 7.27265 7.34242 6.98304 7.34242C3.49329 7.34242 0.654297 10.1816 0.654297 13.6713C0.654297 15.8124 1.72405 17.7072 3.35608 18.853C4.38406 19.5747 5.63448 20 6.98304 20C10.4728 20 13.3118 17.161 13.3118 13.6713V6.68367C14.6604 7.65161 16.3126 8.222 18.0955 8.222V4.7836C17.1351 4.7836 16.2406 4.49808 15.4904 4.00894Z" fill="black"/>
</svg>
