<svg width="22" height="20" viewBox="0 0 22 20" fill="none" xmlns="http://www.w3.org/2000/svg">
<path fill-rule="evenodd" clip-rule="evenodd" d="M10.8662 0C5.20147 0 0.613281 4.58819 0.613281 10.2529C0.613281 14.7899 3.54818 18.6219 7.62373 19.9804C8.13637 20.0701 8.32862 19.7625 8.32862 19.4934C8.32862 19.2499 8.3158 18.4425 8.3158 17.5838C5.73975 18.058 5.07331 16.9558 4.86825 16.3791C4.7529 16.0843 4.25307 15.1743 3.81732 14.9308C3.45847 14.7386 2.94582 14.2644 3.80451 14.2516C4.61193 14.2388 5.18865 14.9949 5.3809 15.3025C6.30366 16.8533 7.77752 16.4175 8.36707 16.1484C8.45678 15.4819 8.72592 15.0334 9.02069 14.777C6.73941 14.5207 4.3556 13.6364 4.3556 9.71466C4.3556 8.59965 4.7529 7.67689 5.40653 6.95918C5.304 6.70286 4.94515 5.65193 5.50906 4.24215C5.50906 4.24215 6.36774 3.97301 8.32862 5.29308C9.14885 5.06239 10.0204 4.94704 10.8919 4.94704C11.7634 4.94704 12.6349 5.06239 13.4551 5.29308C15.416 3.9602 16.2746 4.24215 16.2746 4.24215C16.8386 5.65193 16.4797 6.70286 16.3772 6.95918C17.0308 7.67689 17.4281 8.58684 17.4281 9.71466C17.4281 13.6492 15.0315 14.5207 12.7502 14.777C13.1219 15.0975 13.4423 15.7126 13.4423 16.6738C13.4423 18.0452 13.4295 19.1474 13.4295 19.4934C13.4295 19.7625 13.6217 20.0829 14.1343 19.9804C16.1697 19.2933 17.9384 17.9852 19.1914 16.2402C20.4444 14.4952 21.1186 12.4012 21.1192 10.2529C21.1192 4.58819 16.531 0 10.8662 0Z" fill="black"/>
</svg>
